<?xml version="1.0" encoding="UTF-8" standalone="no"?>
<svg
   width="288pt"
   height="288pt"
   viewBox="0 0 288 288"
   version="1.1"
   id="svg137"
   sodipodi:docname="Delta_bound(1).svg"
   inkscape:version="1.3.2 (091e20e, 2023-11-25, custom)"
   xmlns:inkscape="http://www.inkscape.org/namespaces/inkscape"
   xmlns:sodipodi="http://sodipodi.sourceforge.net/DTD/sodipodi-0.dtd"
   xmlns:xlink="http://www.w3.org/1999/xlink"
   xmlns="http://www.w3.org/2000/svg"
   xmlns:svg="http://www.w3.org/2000/svg"
   xmlns:rdf="http://www.w3.org/1999/02/22-rdf-syntax-ns#"
   xmlns:cc="http://creativecommons.org/ns#"
   xmlns:dc="http://purl.org/dc/elements/1.1/">
  <sodipodi:namedview
     id="namedview137"
     pagecolor="#ffffff"
     bordercolor="#999999"
     borderopacity="1"
     inkscape:showpageshadow="0"
     inkscape:pageopacity="0"
     inkscape:pagecheckerboard="0"
     inkscape:deskcolor="#d1d1d1"
     inkscape:document-units="pt"
     inkscape:zoom="1"
     inkscape:cx="193"
     inkscape:cy="221.5"
     inkscape:window-width="1920"
     inkscape:window-height="1009"
     inkscape:window-x="1912"
     inkscape:window-y="-8"
     inkscape:window-maximized="1"
     inkscape:current-layer="axes_1" />
  <metadata
     id="metadata1">
    <rdf:RDF>
      <cc:Work>
        <dc:type
           rdf:resource="http://purl.org/dc/dcmitype/StillImage" />
        <dc:date>2025-08-27T16:24:40.908587</dc:date>
        <dc:format>image/svg+xml</dc:format>
        <dc:creator>
          <cc:Agent>
            <dc:title>Matplotlib v3.10.3, https://matplotlib.org/</dc:title>
          </cc:Agent>
        </dc:creator>
      </cc:Work>
    </rdf:RDF>
  </metadata>
  <defs
     id="defs1">
    <style
       type="text/css"
       id="style1">*{stroke-linejoin: round; stroke-linecap: butt}</style>
  </defs>
  <g
     id="figure_1">
    <g
       id="patch_1">
      <path
         d="M 0 288  L 288 288  L 288 0  L 0 0  z "
         style="fill: #ffffff"
         id="path1" />
    </g>
    <g
       id="axes_1">
      <g
         id="patch_2">
        <path
           d="M 32.6 256.8175  L 281.575 256.8175  L 281.575 7.8425  L 32.6 7.8425  z "
           style="fill: #ffffff"
           id="path2" />
      </g>
      <g
         id="FillBetweenPolyCollection_1">
        <defs
           id="defs2">
          <path
             id="mb451c55e1b"
             d="M 32.6 -280.1575  L 32.6 -183.538109  L 33.851131 -179.360938  L 35.102261 -175.472669  L 36.353392 -171.635199  L 37.604523 -168.052458  L 38.855653 -164.537329  L 40.106784 -161.264864  L 41.357915 -158.222562  L 42.609045 -155.180261  L 43.860176 -152.23022  L 45.111307 -149.436614  L 46.362437 -146.643007  L 47.613568 -143.872906  L 48.864698 -141.307665  L 50.115829 -138.742425  L 51.36696 -136.177184  L 52.61809 -133.66647  L 53.869221 -131.310927  L 55.120352 -129.131585  L 56.371482 -126.990464  L 57.622613 -124.849342  L 58.873744 -122.70822  L 60.124874 -120.567098  L 61.376005 -118.599135  L 62.627136 -116.653889  L 63.878266 -114.708642  L 65.129397 -112.763395  L 66.380528 -110.818148  L 67.631658 -108.872901  L 68.882789 -107.077052  L 70.13392 -105.309761  L 71.38505 -103.54247  L 72.636181 -101.851694  L 73.887312 -100.260792  L 75.138442 -98.66989  L 76.389573 -97.078989  L 77.640704 -95.488087  L 78.891834 -93.897185  L 80.142965 -92.321098  L 81.394095 -90.895411  L 82.645226 -89.469724  L 83.896357 -88.044036  L 85.147487 -86.618349  L 86.398618 -85.192662  L 87.649749 -84.068815  L 88.900879 -82.970869  L 90.15201 -81.872922  L 91.403141 -80.774976  L 92.654271 -79.67703  L 93.905402 -78.582635  L 95.156533 -77.59871  L 96.407663 -76.614785  L 97.658794 -75.63086  L 98.909925 -74.646935  L 100.161055 -73.66301  L 101.412186 -72.679085  L 102.663317 -71.69516  L 103.914447 -70.711235  L 105.165578 -69.821993  L 106.416709 -68.936271  L 107.667839 -68.05055  L 108.91897 -67.164828  L 110.170101 -66.291532  L 111.421231 -65.486839  L 112.672362 -64.682145  L 113.923492 -63.877451  L 115.174623 -63.072758  L 116.425754 -62.268064  L 117.676884 -61.46337  L 118.928015 -60.658676  L 120.179146 -59.853983  L 121.430276 -59.049289  L 122.681407 -58.300205  L 123.932538 -57.569127  L 125.183668 -56.838048  L 126.434799 -56.10697  L 127.68593 -55.375891  L 128.93706 -54.644813  L 130.188191 -53.913735  L 131.439322 -53.182656  L 132.690452 -52.471891  L 133.941583 -51.807362  L 135.192714 -51.142832  L 136.443844 -50.510752  L 137.694975 -49.900545  L 138.946106 -49.290338  L 140.197236 -48.680131  L 141.448367 -48.069924  L 142.699497 -47.459717  L 143.950628 -46.84951  L 145.201759 -46.239303  L 146.452889 -45.664917  L 147.70402 -45.104592  L 148.955151 -44.544267  L 150.206281 -43.983941  L 151.457412 -43.423616  L 152.708543 -42.863291  L 153.959673 -42.302966  L 155.210804 -41.761924  L 156.461935 -41.247403  L 157.713065 -40.732882  L 158.964196 -40.218361  L 160.215327 -39.70384  L 161.466457 -39.189319  L 162.717588 -38.674798  L 163.968719 -38.188163  L 165.219849 -37.715702  L 166.47098 -37.243241  L 167.722111 -36.797389  L 168.973241 -36.360481  L 170.224372 -35.923573  L 171.475503 -35.486666  L 172.726633 -35.049758  L 173.977764 -34.626663  L 175.228894 -34.222035  L 176.480025 -33.817406  L 177.731156 -33.412778  L 178.982286 -33.008149  L 180.233417 -32.603521  L 181.484548 -32.222139  L 182.735678 -31.847405  L 183.986809 -31.472671  L 185.23794 -31.1825  L 186.48907 -31.1825  L 187.740201 -31.1825  L 188.991332 -31.1825  L 190.242462 -31.1825  L 191.493593 -31.1825  L 192.744724 -31.1825  L 193.995854 -31.1825  L 195.246985 -31.1825  L 196.498116 -31.1825  L 197.749246 -31.1825  L 199.000377 -31.1825  L 200.251508 -31.1825  L 201.502638 -31.1825  L 202.753769 -31.1825  L 204.004899 -31.1825  L 205.25603 -31.1825  L 206.507161 -31.1825  L 207.758291 -31.1825  L 209.009422 -31.1825  L 210.260553 -31.1825  L 211.511683 -31.1825  L 212.762814 -31.1825  L 214.013945 -31.1825  L 215.265075 -31.1825  L 216.516206 -31.1825  L 217.767337 -31.1825  L 219.018467 -31.1825  L 220.269598 -31.1825  L 221.520729 -31.1825  L 222.771859 -31.1825  L 224.02299 -31.1825  L 225.274121 -31.1825  L 226.525251 -31.1825  L 227.776382 -31.1825  L 229.027513 -31.1825  L 230.278643 -31.1825  L 231.529774 -31.1825  L 232.780905 -31.1825  L 234.032035 -31.1825  L 235.283166 -31.1825  L 236.534296 -31.1825  L 237.785427 -31.1825  L 239.036558 -31.1825  L 240.287688 -31.1825  L 241.538819 -31.1825  L 242.78995 -31.1825  L 244.04108 -31.1825  L 245.292211 -31.1825  L 246.543342 -31.1825  L 247.794472 -31.1825  L 249.045603 -31.1825  L 250.296734 -31.1825  L 251.547864 -31.1825  L 252.798995 -31.1825  L 254.050126 -31.1825  L 255.301256 -31.1825  L 256.552387 -31.1825  L 257.803518 -31.1825  L 259.054648 -31.1825  L 260.305779 -31.1825  L 261.55691 -31.1825  L 262.80804 -31.1825  L 264.059171 -31.1825  L 265.310302 -31.1825  L 266.561432 -31.1825  L 267.812563 -31.1825  L 269.063693 -31.1825  L 270.314824 -31.1825  L 271.565955 -31.1825  L 272.817085 -31.1825  L 274.068216 -31.1825  L 275.319347 -31.1825  L 276.570477 -31.1825  L 277.821608 -31.1825  L 279.072739 -31.1825  L 280.323869 -31.1825  L 281.575 -31.1825  L 281.575 -43.993039  L 281.575 -43.993039  L 280.323869 -44.059638  L 279.072739 -44.131037  L 277.821608 -44.207485  L 276.570477 -44.288456  L 275.319347 -44.374286  L 274.068216 -44.464818  L 272.817085 -44.560232  L 271.565955 -44.663136  L 270.314824 -44.771662  L 269.063693 -44.884126  L 267.812563 -45.001073  L 266.561432 -45.124355  L 265.310302 -45.250135  L 264.059171 -45.383041  L 262.80804 -45.518708  L 261.55691 -45.660392  L 260.305779 -45.805344  L 259.054648 -45.956387  L 257.803518 -46.109696  L 256.552387 -46.270714  L 255.301256 -46.431733  L 254.050126 -46.602705  L 252.798995 -46.774359  L 251.547864 -46.951888  L 250.296734 -47.140636  L 249.045603 -47.33689  L 247.794472 -47.533144  L 246.543342 -47.739026  L 245.292211 -47.949463  L 244.04108 -48.1599  L 242.78995 -48.381066  L 241.538819 -48.60671  L 240.287688 -48.832355  L 239.036558 -49.066072  L 237.785427 -49.308023  L 236.534296 -49.549974  L 235.283166 -49.792422  L 234.032035 -50.051858  L 232.780905 -50.311295  L 231.529774 -50.570731  L 230.278643 -50.835515  L 229.027513 -51.1137  L 227.776382 -51.391885  L 226.525251 -51.67007  L 225.274121 -51.953149  L 224.02299 -52.251438  L 222.771859 -52.549727  L 221.520729 -52.868767  L 220.269598 -53.190175  L 219.018467 -53.511583  L 217.767337 -53.838155  L 216.516206 -54.185203  L 215.265075 -54.532251  L 214.013945 -54.8793  L 212.762814 -55.226348  L 211.511683 -55.58323  L 210.260553 -55.957964  L 209.009422 -56.332698  L 207.758291 -56.707432  L 206.507161 -57.082166  L 205.25603 -57.460558  L 204.004899 -57.865186  L 202.753769 -58.269815  L 201.502638 -58.674443  L 200.251508 -59.079072  L 199.000377 -59.4837  L 197.749246 -59.903567  L 196.498116 -60.340475  L 195.246985 -60.777383  L 193.995854 -61.21429  L 192.744724 -61.651198  L 191.493593 -62.093495  L 190.242462 -62.565956  L 188.991332 -63.038417  L 187.740201 -63.520846  L 186.48907 -64.035367  L 185.23794 -64.549888  L 183.986809 -65.064409  L 182.735678 -65.57893  L 181.484548 -66.093451  L 180.233417 -66.607972  L 178.982286 -67.144433  L 177.731156 -67.704759  L 176.480025 -68.265084  L 175.228894 -68.825409  L 173.977764 -69.385734  L 172.726633 -69.946059  L 171.475503 -70.506384  L 170.224372 -71.075783  L 168.973241 -71.68599  L 167.722111 -72.296197  L 166.47098 -72.906404  L 165.219849 -73.516611  L 163.968719 -74.126818  L 162.717588 -74.737025  L 161.466457 -75.347232  L 160.215327 -75.973879  L 158.964196 -76.638409  L 157.713065 -77.302938  L 156.461935 -78.007048  L 155.210804 -78.738127  L 153.959673 -79.469205  L 152.708543 -80.200284  L 151.457412 -80.931362  L 150.206281 -81.66244  L 148.955151 -82.393519  L 147.70402 -83.124597  L 146.452889 -83.86632  L 145.201759 -84.671013  L 143.950628 -85.475707  L 142.699497 -86.280401  L 141.448367 -87.085094  L 140.197236 -87.889788  L 138.946106 -88.694482  L 137.694975 -89.499176  L 136.443844 -90.303869  L 135.192714 -91.108563  L 133.941583 -91.973756  L 132.690452 -92.859478  L 131.439322 -93.745199  L 130.188191 -94.630921  L 128.93706 -95.516643  L 127.68593 -96.494267  L 126.434799 -97.478192  L 125.183668 -98.462117  L 123.932538 -99.446042  L 122.681407 -100.429968  L 121.430276 -101.413893  L 120.179146 -102.397818  L 118.928015 -103.381743  L 117.676884 -104.464736  L 116.425754 -105.562682  L 115.174623 -106.660628  L 113.923492 -107.758574  L 112.672362 -108.85652  L 111.421231 -109.954466  L 110.170101 -111.37328  L 108.91897 -112.798968  L 107.667839 -114.224655  L 106.416709 -115.650342  L 105.165578 -117.076029  L 103.914447 -118.635595  L 102.663317 -120.226497  L 101.412186 -121.817399  L 100.161055 -123.4083  L 98.909925 -124.999202  L 97.658794 -126.590103  L 96.407663 -128.263241  L 95.156533 -130.030532  L 93.905402 -131.797823  L 92.654271 -133.575876  L 91.403141 -135.521123  L 90.15201 -137.46637  L 88.900879 -139.411617  L 87.649749 -141.356864  L 86.398618 -143.302111  L 85.147487 -145.250486  L 83.896357 -147.391608  L 82.645226 -149.532729  L 81.394095 -151.673851  L 80.142965 -153.814973  L 78.891834 -155.972872  L 77.640704 -158.328416  L 76.389573 -160.81816  L 75.138442 -163.3834  L 73.887312 -165.948641  L 72.636181 -168.513882  L 71.38505 -171.261147  L 70.13392 -174.054753  L 68.882789 -176.848359  L 67.631658 -179.773531  L 66.380528 -182.815832  L 65.129397 -185.858133  L 63.878266 -189.103516  L 62.627136 -192.591683  L 61.376005 -196.174425  L 60.124874 -199.983314  L 58.873744 -203.85187  L 57.622613 -208.017892  L 56.371482 -212.327209  L 55.120352 -216.856422  L 53.869221 -221.76543  L 52.61809 -227.219225  L 51.36696 -233.108352  L 50.115829 -239.613321  L 48.864698 -246.924879  L 47.613568 -255.714897  L 46.362437 -266.995616  L 45.111307 -280.1575  L 43.860176 -280.1575  L 42.609045 -280.1575  L 41.357915 -280.1575  L 40.106784 -280.1575  L 38.855653 -280.1575  L 37.604523 -280.1575  L 36.353392 -280.1575  L 35.102261 -280.1575  L 33.851131 -280.1575  L 32.6 -280.1575  z "
             style="stroke: #b7d4ea; stroke-opacity: 0.35" />
        </defs>
        <g
           clip-path="url(#pa6c9a11ba1)"
           id="g2">
          <use
             xlink:href="#mb451c55e1b"
             x="0"
             y="288"
             style="fill: #b7d4ea; fill-opacity: 0.35; stroke: #b7d4ea; stroke-opacity: 0.35"
             id="use2" />
          <path
             style="fill:#ffffff;stroke:none;stroke-width:1.13386;stroke-linecap:round;stroke-miterlimit:2.5;fill-opacity:1"
             d="M 47.5301,22.606543 32.375575,7.2641523 47.968454,6.1995783 Z"
             id="path137" />
        </g>
        <path
           style="fill:#ffffff;fill-opacity:1;stroke:none;stroke-width:1.13386;stroke-linecap:round;stroke-miterlimit:2.5"
           d="m 266.48437,241.71094 15.09375,15.11718 0.1875,-13.875 z"
           id="path138" />
      </g>
      <g
         id="matplotlib.axis_1">
        <g
           id="xtick_1">
          <g
             id="line2d_1">
            <defs
               id="defs3">
              <path
                 id="m1a79194e37"
                 d="M 0 0  L 0 -3.5  "
                 style="stroke: #000000; stroke-width: 0.8" />
            </defs>
            <g
               id="g3">
              <use
                 xlink:href="#m1a79194e37"
                 x="32.6"
                 y="256.8175"
                 style="stroke: #000000; stroke-width: 0.8"
                 id="use3" />
            </g>
          </g>
          <g
             id="line2d_2">
            <defs
               id="defs4">
              <path
                 id="maef88209db"
                 d="M 0 0  L 0 3.5  "
                 style="stroke: #000000; stroke-width: 0.8" />
            </defs>
            <g
               id="g4">
              <use
                 xlink:href="#maef88209db"
                 x="32.6"
                 y="7.8425"
                 style="stroke: #000000; stroke-width: 0.8"
                 id="use4" />
            </g>
          </g>
          <g
             id="text_1">
            <!-- 0.0 -->
            <g
               transform="translate(26.23875 266.39625) scale(0.08 -0.08)"
               id="g7">
              <defs
                 id="defs5">
                <path
                   id="DejaVuSans-30"
                   d="M 2034 4250  Q 1547 4250 1301 3770  Q 1056 3291 1056 2328  Q 1056 1369 1301 889  Q 1547 409 2034 409  Q 2525 409 2770 889  Q 3016 1369 3016 2328  Q 3016 3291 2770 3770  Q 2525 4250 2034 4250  z M 2034 4750  Q 2819 4750 3233 4129  Q 3647 3509 3647 2328  Q 3647 1150 3233 529  Q 2819 -91 2034 -91  Q 1250 -91 836 529  Q 422 1150 422 2328  Q 422 3509 836 4129  Q 1250 4750 2034 4750  z "
                   transform="scale(0.015625)" />
                <path
                   id="DejaVuSans-2e"
                   d="M 684 794  L 1344 794  L 1344 0  L 684 0  L 684 794  z "
                   transform="scale(0.015625)" />
              </defs>
              <use
                 xlink:href="#DejaVuSans-30"
                 id="use5" />
              <use
                 xlink:href="#DejaVuSans-2e"
                 transform="translate(63.623047 0)"
                 id="use6" />
              <use
                 xlink:href="#DejaVuSans-30"
                 transform="translate(95.410156 0)"
                 id="use7" />
            </g>
          </g>
        </g>
        <g
           id="xtick_2">
          <g
             id="line2d_3">
            <g
               id="g8">
              <use
                 xlink:href="#m1a79194e37"
                 x="82.395"
                 y="256.8175"
                 style="stroke: #000000; stroke-width: 0.8"
                 id="use8" />
            </g>
          </g>
          <g
             id="line2d_4">
            <g
               id="g9">
              <use
                 xlink:href="#maef88209db"
                 x="82.395"
                 y="7.8425"
                 style="stroke: #000000; stroke-width: 0.8"
                 id="use9" />
            </g>
          </g>
          <g
             id="text_2">
            <!-- 0.2 -->
            <g
               transform="translate(76.03375 266.39625) scale(0.08 -0.08)"
               id="g12">
              <defs
                 id="defs9">
                <path
                   id="DejaVuSans-32"
                   d="M 1228 531  L 3431 531  L 3431 0  L 469 0  L 469 531  Q 828 903 1448 1529  Q 2069 2156 2228 2338  Q 2531 2678 2651 2914  Q 2772 3150 2772 3378  Q 2772 3750 2511 3984  Q 2250 4219 1831 4219  Q 1534 4219 1204 4116  Q 875 4013 500 3803  L 500 4441  Q 881 4594 1212 4672  Q 1544 4750 1819 4750  Q 2544 4750 2975 4387  Q 3406 4025 3406 3419  Q 3406 3131 3298 2873  Q 3191 2616 2906 2266  Q 2828 2175 2409 1742  Q 1991 1309 1228 531  z "
                   transform="scale(0.015625)" />
              </defs>
              <use
                 xlink:href="#DejaVuSans-30"
                 id="use10" />
              <use
                 xlink:href="#DejaVuSans-2e"
                 transform="translate(63.623047 0)"
                 id="use11" />
              <use
                 xlink:href="#DejaVuSans-32"
                 transform="translate(95.410156 0)"
                 id="use12" />
            </g>
          </g>
        </g>
        <g
           id="xtick_3">
          <g
             id="line2d_5">
            <g
               id="g13">
              <use
                 xlink:href="#m1a79194e37"
                 x="132.19"
                 y="256.8175"
                 style="stroke: #000000; stroke-width: 0.8"
                 id="use13" />
            </g>
          </g>
          <g
             id="line2d_6">
            <g
               id="g14">
              <use
                 xlink:href="#maef88209db"
                 x="132.19"
                 y="7.8425"
                 style="stroke: #000000; stroke-width: 0.8"
                 id="use14" />
            </g>
          </g>
          <g
             id="text_3">
            <!-- 0.4 -->
            <g
               transform="translate(125.82875 266.39625) scale(0.08 -0.08)"
               id="g17">
              <defs
                 id="defs14">
                <path
                   id="DejaVuSans-34"
                   d="M 2419 4116  L 825 1625  L 2419 1625  L 2419 4116  z M 2253 4666  L 3047 4666  L 3047 1625  L 3713 1625  L 3713 1100  L 3047 1100  L 3047 0  L 2419 0  L 2419 1100  L 313 1100  L 313 1709  L 2253 4666  z "
                   transform="scale(0.015625)" />
              </defs>
              <use
                 xlink:href="#DejaVuSans-30"
                 id="use15" />
              <use
                 xlink:href="#DejaVuSans-2e"
                 transform="translate(63.623047 0)"
                 id="use16" />
              <use
                 xlink:href="#DejaVuSans-34"
                 transform="translate(95.410156 0)"
                 id="use17" />
            </g>
          </g>
        </g>
        <g
           id="xtick_4">
          <g
             id="line2d_7">
            <g
               id="g18">
              <use
                 xlink:href="#m1a79194e37"
                 x="181.985"
                 y="256.8175"
                 style="stroke: #000000; stroke-width: 0.8"
                 id="use18" />
            </g>
          </g>
          <g
             id="line2d_8">
            <g
               id="g19">
              <use
                 xlink:href="#maef88209db"
                 x="181.985"
                 y="7.8425"
                 style="stroke: #000000; stroke-width: 0.8"
                 id="use19" />
            </g>
          </g>
          <g
             id="text_4">
            <!-- 0.6 -->
            <g
               transform="translate(175.62375 266.39625) scale(0.08 -0.08)"
               id="g22">
              <defs
                 id="defs19">
                <path
                   id="DejaVuSans-36"
                   d="M 2113 2584  Q 1688 2584 1439 2293  Q 1191 2003 1191 1497  Q 1191 994 1439 701  Q 1688 409 2113 409  Q 2538 409 2786 701  Q 3034 994 3034 1497  Q 3034 2003 2786 2293  Q 2538 2584 2113 2584  z M 3366 4563  L 3366 3988  Q 3128 4100 2886 4159  Q 2644 4219 2406 4219  Q 1781 4219 1451 3797  Q 1122 3375 1075 2522  Q 1259 2794 1537 2939  Q 1816 3084 2150 3084  Q 2853 3084 3261 2657  Q 3669 2231 3669 1497  Q 3669 778 3244 343  Q 2819 -91 2113 -91  Q 1303 -91 875 529  Q 447 1150 447 2328  Q 447 3434 972 4092  Q 1497 4750 2381 4750  Q 2619 4750 2861 4703  Q 3103 4656 3366 4563  z "
                   transform="scale(0.015625)" />
              </defs>
              <use
                 xlink:href="#DejaVuSans-30"
                 id="use20" />
              <use
                 xlink:href="#DejaVuSans-2e"
                 transform="translate(63.623047 0)"
                 id="use21" />
              <use
                 xlink:href="#DejaVuSans-36"
                 transform="translate(95.410156 0)"
                 id="use22" />
            </g>
          </g>
        </g>
        <g
           id="xtick_5">
          <g
             id="line2d_9">
            <g
               id="g23">
              <use
                 xlink:href="#m1a79194e37"
                 x="231.78"
                 y="256.8175"
                 style="stroke: #000000; stroke-width: 0.8"
                 id="use23" />
            </g>
          </g>
          <g
             id="line2d_10">
            <g
               id="g24">
              <use
                 xlink:href="#maef88209db"
                 x="231.78"
                 y="7.8425"
                 style="stroke: #000000; stroke-width: 0.8"
                 id="use24" />
            </g>
          </g>
          <g
             id="text_5">
            <!-- 0.8 -->
            <g
               transform="translate(225.41875 266.39625) scale(0.08 -0.08)"
               id="g27">
              <defs
                 id="defs24">
                <path
                   id="DejaVuSans-38"
                   d="M 2034 2216  Q 1584 2216 1326 1975  Q 1069 1734 1069 1313  Q 1069 891 1326 650  Q 1584 409 2034 409  Q 2484 409 2743 651  Q 3003 894 3003 1313  Q 3003 1734 2745 1975  Q 2488 2216 2034 2216  z M 1403 2484  Q 997 2584 770 2862  Q 544 3141 544 3541  Q 544 4100 942 4425  Q 1341 4750 2034 4750  Q 2731 4750 3128 4425  Q 3525 4100 3525 3541  Q 3525 3141 3298 2862  Q 3072 2584 2669 2484  Q 3125 2378 3379 2068  Q 3634 1759 3634 1313  Q 3634 634 3220 271  Q 2806 -91 2034 -91  Q 1263 -91 848 271  Q 434 634 434 1313  Q 434 1759 690 2068  Q 947 2378 1403 2484  z M 1172 3481  Q 1172 3119 1398 2916  Q 1625 2713 2034 2713  Q 2441 2713 2670 2916  Q 2900 3119 2900 3481  Q 2900 3844 2670 4047  Q 2441 4250 2034 4250  Q 1625 4250 1398 4047  Q 1172 3844 1172 3481  z "
                   transform="scale(0.015625)" />
              </defs>
              <use
                 xlink:href="#DejaVuSans-30"
                 id="use25" />
              <use
                 xlink:href="#DejaVuSans-2e"
                 transform="translate(63.623047 0)"
                 id="use26" />
              <use
                 xlink:href="#DejaVuSans-38"
                 transform="translate(95.410156 0)"
                 id="use27" />
            </g>
          </g>
        </g>
        <g
           id="xtick_6">
          <g
             id="line2d_11">
            <g
               id="g28">
              <use
                 xlink:href="#m1a79194e37"
                 x="281.575"
                 y="256.8175"
                 style="stroke: #000000; stroke-width: 0.8"
                 id="use28" />
            </g>
          </g>
          <g
             id="line2d_12">
            <g
               id="g29">
              <use
                 xlink:href="#maef88209db"
                 x="281.575"
                 y="7.8425"
                 style="stroke: #000000; stroke-width: 0.8"
                 id="use29" />
            </g>
          </g>
          <g
             id="text_6">
            <!-- 1.0 -->
            <g
               transform="translate(275.21375 266.39625) scale(0.08 -0.08)"
               id="g32">
              <defs
                 id="defs29">
                <path
                   id="DejaVuSans-31"
                   d="M 794 531  L 1825 531  L 1825 4091  L 703 3866  L 703 4441  L 1819 4666  L 2450 4666  L 2450 531  L 3481 531  L 3481 0  L 794 0  L 794 531  z "
                   transform="scale(0.015625)" />
              </defs>
              <use
                 xlink:href="#DejaVuSans-31"
                 id="use30" />
              <use
                 xlink:href="#DejaVuSans-2e"
                 transform="translate(63.623047 0)"
                 id="use31" />
              <use
                 xlink:href="#DejaVuSans-30"
                 transform="translate(95.410156 0)"
                 id="use32" />
            </g>
          </g>
        </g>
        <g
           id="text_7">
          <!-- Type I error $\alpha$ -->
          <g
             transform="translate(126.3525 278.880313) scale(0.09 -0.09)"
             id="g46">
            <defs
               id="defs32">
              <path
                 id="DejaVuSans-54"
                 d="M -19 4666  L 3928 4666  L 3928 4134  L 2272 4134  L 2272 0  L 1638 0  L 1638 4134  L -19 4134  L -19 4666  z "
                 transform="scale(0.015625)" />
              <path
                 id="DejaVuSans-79"
                 d="M 2059 -325  Q 1816 -950 1584 -1140  Q 1353 -1331 966 -1331  L 506 -1331  L 506 -850  L 844 -850  Q 1081 -850 1212 -737  Q 1344 -625 1503 -206  L 1606 56  L 191 3500  L 800 3500  L 1894 763  L 2988 3500  L 3597 3500  L 2059 -325  z "
                 transform="scale(0.015625)" />
              <path
                 id="DejaVuSans-70"
                 d="M 1159 525  L 1159 -1331  L 581 -1331  L 581 3500  L 1159 3500  L 1159 2969  Q 1341 3281 1617 3432  Q 1894 3584 2278 3584  Q 2916 3584 3314 3078  Q 3713 2572 3713 1747  Q 3713 922 3314 415  Q 2916 -91 2278 -91  Q 1894 -91 1617 61  Q 1341 213 1159 525  z M 3116 1747  Q 3116 2381 2855 2742  Q 2594 3103 2138 3103  Q 1681 3103 1420 2742  Q 1159 2381 1159 1747  Q 1159 1113 1420 752  Q 1681 391 2138 391  Q 2594 391 2855 752  Q 3116 1113 3116 1747  z "
                 transform="scale(0.015625)" />
              <path
                 id="DejaVuSans-65"
                 d="M 3597 1894  L 3597 1613  L 953 1613  Q 991 1019 1311 708  Q 1631 397 2203 397  Q 2534 397 2845 478  Q 3156 559 3463 722  L 3463 178  Q 3153 47 2828 -22  Q 2503 -91 2169 -91  Q 1331 -91 842 396  Q 353 884 353 1716  Q 353 2575 817 3079  Q 1281 3584 2069 3584  Q 2775 3584 3186 3129  Q 3597 2675 3597 1894  z M 3022 2063  Q 3016 2534 2758 2815  Q 2500 3097 2075 3097  Q 1594 3097 1305 2825  Q 1016 2553 972 2059  L 3022 2063  z "
                 transform="scale(0.015625)" />
              <path
                 id="DejaVuSans-20"
                 transform="scale(0.015625)" />
              <path
                 id="DejaVuSans-49"
                 d="M 628 4666  L 1259 4666  L 1259 0  L 628 0  L 628 4666  z "
                 transform="scale(0.015625)" />
              <path
                 id="DejaVuSans-72"
                 d="M 2631 2963  Q 2534 3019 2420 3045  Q 2306 3072 2169 3072  Q 1681 3072 1420 2755  Q 1159 2438 1159 1844  L 1159 0  L 581 0  L 581 3500  L 1159 3500  L 1159 2956  Q 1341 3275 1631 3429  Q 1922 3584 2338 3584  Q 2397 3584 2469 3576  Q 2541 3569 2628 3553  L 2631 2963  z "
                 transform="scale(0.015625)" />
              <path
                 id="DejaVuSans-6f"
                 d="M 1959 3097  Q 1497 3097 1228 2736  Q 959 2375 959 1747  Q 959 1119 1226 758  Q 1494 397 1959 397  Q 2419 397 2687 759  Q 2956 1122 2956 1747  Q 2956 2369 2687 2733  Q 2419 3097 1959 3097  z M 1959 3584  Q 2709 3584 3137 3096  Q 3566 2609 3566 1747  Q 3566 888 3137 398  Q 2709 -91 1959 -91  Q 1206 -91 779 398  Q 353 888 353 1747  Q 353 2609 779 3096  Q 1206 3584 1959 3584  z "
                 transform="scale(0.015625)" />
              <path
                 id="DejaVuSans-Oblique-3b1"
                 d="M 2619 1628  L 2622 2350  Q 2625 3088 2069 3091  Q 1653 3094 1394 2747  Q 1069 2319 959 1747  Q 825 1059 994 731  Q 1169 397 1547 397  Q 1966 397 2319 1063  L 2619 1628  z M 2166 3578  Q 3141 3594 3128 2584  Q 3128 2584 3616 3500  L 4128 3500  L 3119 1603  L 3109 919  Q 3109 766 3194 638  Q 3291 488 3391 488  L 3669 488  L 3575 0  L 3228 0  Q 2934 0 2722 263  Q 2622 394 2619 669  Q 2416 334 2066 50  Q 1900 -81 1453 -78  Q 722 -72 456 397  Q 184 884 353 1747  Q 534 2675 1009 3097  Q 1544 3569 2166 3578  z "
                 transform="scale(0.015625)" />
            </defs>
            <use
               xlink:href="#DejaVuSans-54"
               transform="translate(0 0.09375)"
               id="use33" />
            <use
               xlink:href="#DejaVuSans-79"
               transform="translate(61.083984 0.09375)"
               id="use34" />
            <use
               xlink:href="#DejaVuSans-70"
               transform="translate(120.263672 0.09375)"
               id="use35" />
            <use
               xlink:href="#DejaVuSans-65"
               transform="translate(183.740234 0.09375)"
               id="use36" />
            <use
               xlink:href="#DejaVuSans-20"
               transform="translate(245.263672 0.09375)"
               id="use37" />
            <use
               xlink:href="#DejaVuSans-49"
               transform="translate(277.050781 0.09375)"
               id="use38" />
            <use
               xlink:href="#DejaVuSans-20"
               transform="translate(306.542969 0.09375)"
               id="use39" />
            <use
               xlink:href="#DejaVuSans-65"
               transform="translate(338.330078 0.09375)"
               id="use40" />
            <use
               xlink:href="#DejaVuSans-72"
               transform="translate(399.853516 0.09375)"
               id="use41" />
            <use
               xlink:href="#DejaVuSans-72"
               transform="translate(440.966797 0.09375)"
               id="use42" />
            <use
               xlink:href="#DejaVuSans-6f"
               transform="translate(482.080078 0.09375)"
               id="use43" />
            <use
               xlink:href="#DejaVuSans-72"
               transform="translate(543.261719 0.09375)"
               id="use44" />
            <use
               xlink:href="#DejaVuSans-20"
               transform="translate(584.375 0.09375)"
               id="use45" />
            <use
               xlink:href="#DejaVuSans-Oblique-3b1"
               transform="translate(616.162109 0.09375)"
               id="use46" />
          </g>
        </g>
      </g>
      <g
         id="matplotlib.axis_2">
        <g
           id="ytick_1">
          <g
             id="line2d_13">
            <defs
               id="defs46">
              <path
                 id="m747b51d525"
                 d="M 0 0  L 3.5 0  "
                 style="stroke: #000000; stroke-width: 0.8" />
            </defs>
            <g
               id="g47">
              <use
                 xlink:href="#m747b51d525"
                 x="32.6"
                 y="256.8175"
                 style="stroke: #000000; stroke-width: 0.8"
                 id="use47" />
            </g>
          </g>
          <g
             id="line2d_14">
            <defs
               id="defs47">
              <path
                 id="m2ff596f700"
                 d="M 0 0  L -3.5 0  "
                 style="stroke: #000000; stroke-width: 0.8" />
            </defs>
            <g
               id="g48">
              <use
                 xlink:href="#m2ff596f700"
                 x="281.575"
                 y="256.8175"
                 style="stroke: #000000; stroke-width: 0.8"
                 id="use48" />
            </g>
          </g>
          <g
             id="text_8">
            <!-- 0.0 -->
            <g
               transform="translate(16.3775 259.856875) scale(0.08 -0.08)"
               id="g51">
              <use
                 xlink:href="#DejaVuSans-30"
                 id="use49" />
              <use
                 xlink:href="#DejaVuSans-2e"
                 transform="translate(63.623047 0)"
                 id="use50" />
              <use
                 xlink:href="#DejaVuSans-30"
                 transform="translate(95.410156 0)"
                 id="use51" />
            </g>
          </g>
        </g>
        <g
           id="ytick_2">
          <g
             id="line2d_15">
            <g
               id="g52">
              <use
                 xlink:href="#m747b51d525"
                 x="32.6"
                 y="207.0225"
                 style="stroke: #000000; stroke-width: 0.8"
                 id="use52" />
            </g>
          </g>
          <g
             id="line2d_16">
            <g
               id="g53">
              <use
                 xlink:href="#m2ff596f700"
                 x="281.575"
                 y="207.0225"
                 style="stroke: #000000; stroke-width: 0.8"
                 id="use53" />
            </g>
          </g>
          <g
             id="text_9">
            <!-- 0.2 -->
            <g
               transform="translate(16.3775 210.061875) scale(0.08 -0.08)"
               id="g56">
              <use
                 xlink:href="#DejaVuSans-30"
                 id="use54" />
              <use
                 xlink:href="#DejaVuSans-2e"
                 transform="translate(63.623047 0)"
                 id="use55" />
              <use
                 xlink:href="#DejaVuSans-32"
                 transform="translate(95.410156 0)"
                 id="use56" />
            </g>
          </g>
        </g>
        <g
           id="ytick_3">
          <g
             id="line2d_17">
            <g
               id="g57">
              <use
                 xlink:href="#m747b51d525"
                 x="32.6"
                 y="157.2275"
                 style="stroke: #000000; stroke-width: 0.8"
                 id="use57" />
            </g>
          </g>
          <g
             id="line2d_18">
            <g
               id="g58">
              <use
                 xlink:href="#m2ff596f700"
                 x="281.575"
                 y="157.2275"
                 style="stroke: #000000; stroke-width: 0.8"
                 id="use58" />
            </g>
          </g>
          <g
             id="text_10">
            <!-- 0.4 -->
            <g
               transform="translate(16.3775 160.266875) scale(0.08 -0.08)"
               id="g61">
              <use
                 xlink:href="#DejaVuSans-30"
                 id="use59" />
              <use
                 xlink:href="#DejaVuSans-2e"
                 transform="translate(63.623047 0)"
                 id="use60" />
              <use
                 xlink:href="#DejaVuSans-34"
                 transform="translate(95.410156 0)"
                 id="use61" />
            </g>
          </g>
        </g>
        <g
           id="ytick_4">
          <g
             id="line2d_19">
            <g
               id="g62">
              <use
                 xlink:href="#m747b51d525"
                 x="32.6"
                 y="107.4325"
                 style="stroke: #000000; stroke-width: 0.8"
                 id="use62" />
            </g>
          </g>
          <g
             id="line2d_20">
            <g
               id="g63">
              <use
                 xlink:href="#m2ff596f700"
                 x="281.575"
                 y="107.4325"
                 style="stroke: #000000; stroke-width: 0.8"
                 id="use63" />
            </g>
          </g>
          <g
             id="text_11">
            <!-- 0.6 -->
            <g
               transform="translate(16.3775 110.471875) scale(0.08 -0.08)"
               id="g66">
              <use
                 xlink:href="#DejaVuSans-30"
                 id="use64" />
              <use
                 xlink:href="#DejaVuSans-2e"
                 transform="translate(63.623047 0)"
                 id="use65" />
              <use
                 xlink:href="#DejaVuSans-36"
                 transform="translate(95.410156 0)"
                 id="use66" />
            </g>
          </g>
        </g>
        <g
           id="ytick_5">
          <g
             id="line2d_21">
            <g
               id="g67">
              <use
                 xlink:href="#m747b51d525"
                 x="32.6"
                 y="57.6375"
                 style="stroke: #000000; stroke-width: 0.8"
                 id="use67" />
            </g>
          </g>
          <g
             id="line2d_22">
            <g
               id="g68">
              <use
                 xlink:href="#m2ff596f700"
                 x="281.575"
                 y="57.6375"
                 style="stroke: #000000; stroke-width: 0.8"
                 id="use68" />
            </g>
          </g>
          <g
             id="text_12">
            <!-- 0.8 -->
            <g
               transform="translate(16.3775 60.676875) scale(0.08 -0.08)"
               id="g71">
              <use
                 xlink:href="#DejaVuSans-30"
                 id="use69" />
              <use
                 xlink:href="#DejaVuSans-2e"
                 transform="translate(63.623047 0)"
                 id="use70" />
              <use
                 xlink:href="#DejaVuSans-38"
                 transform="translate(95.410156 0)"
                 id="use71" />
            </g>
          </g>
        </g>
        <g
           id="ytick_6">
          <g
             id="line2d_23">
            <g
               id="g72">
              <use
                 xlink:href="#m747b51d525"
                 x="32.6"
                 y="7.8425"
                 style="stroke: #000000; stroke-width: 0.8"
                 id="use72" />
            </g>
          </g>
          <g
             id="line2d_24">
            <g
               id="g73">
              <use
                 xlink:href="#m2ff596f700"
                 x="281.575"
                 y="7.8425"
                 style="stroke: #000000; stroke-width: 0.8"
                 id="use73" />
            </g>
          </g>
          <g
             id="text_13">
            <!-- 1.0 -->
            <g
               transform="translate(16.3775 10.881875) scale(0.08 -0.08)"
               id="g76">
              <use
                 xlink:href="#DejaVuSans-31"
                 id="use74" />
              <use
                 xlink:href="#DejaVuSans-2e"
                 transform="translate(63.623047 0)"
                 id="use75" />
              <use
                 xlink:href="#DejaVuSans-30"
                 transform="translate(95.410156 0)"
                 id="use76" />
            </g>
          </g>
        </g>
        <g
           id="text_14">
          <!-- Type II error $\beta$ -->
          <g
             transform="translate(10.4875 164.28) rotate(-90) scale(0.09 -0.09)"
             id="g91">
            <defs
               id="defs76">
              <path
                 id="DejaVuSans-Oblique-3b2"
                 d="M 872 216  L 572 -1331  L -6 -1331  L 928 3478  Q 1206 4903 2538 4903  Q 3888 4903 3659 3700  Q 3503 2844 2894 2531  Q 3713 2250 3553 1416  Q 3272 -69 1759 -66  Q 1097 -63 872 216  z M 1019 966  Q 1259 422 1875 425  Q 2775 425 2966 1406  Q 3138 2288 1675 2219  L 1778 2750  Q 2909 2731 3106 3750  Q 3241 4438 2509 4434  Q 1691 4434 1503 3459  L 1019 966  z "
                 transform="scale(0.015625)" />
            </defs>
            <use
               xlink:href="#DejaVuSans-54"
               transform="translate(0 0.390625)"
               id="use77" />
            <use
               xlink:href="#DejaVuSans-79"
               transform="translate(61.083984 0.390625)"
               id="use78" />
            <use
               xlink:href="#DejaVuSans-70"
               transform="translate(120.263672 0.390625)"
               id="use79" />
            <use
               xlink:href="#DejaVuSans-65"
               transform="translate(183.740234 0.390625)"
               id="use80" />
            <use
               xlink:href="#DejaVuSans-20"
               transform="translate(245.263672 0.390625)"
               id="use81" />
            <use
               xlink:href="#DejaVuSans-49"
               transform="translate(277.050781 0.390625)"
               id="use82" />
            <use
               xlink:href="#DejaVuSans-49"
               transform="translate(306.542969 0.390625)"
               id="use83" />
            <use
               xlink:href="#DejaVuSans-20"
               transform="translate(336.035156 0.390625)"
               id="use84" />
            <use
               xlink:href="#DejaVuSans-65"
               transform="translate(367.822266 0.390625)"
               id="use85" />
            <use
               xlink:href="#DejaVuSans-72"
               transform="translate(429.345703 0.390625)"
               id="use86" />
            <use
               xlink:href="#DejaVuSans-72"
               transform="translate(470.458984 0.390625)"
               id="use87" />
            <use
               xlink:href="#DejaVuSans-6f"
               transform="translate(511.572266 0.390625)"
               id="use88" />
            <use
               xlink:href="#DejaVuSans-72"
               transform="translate(572.753906 0.390625)"
               id="use89" />
            <use
               xlink:href="#DejaVuSans-20"
               transform="translate(613.867188 0.390625)"
               id="use90" />
            <use
               xlink:href="#DejaVuSans-Oblique-3b2"
               transform="translate(645.654297 0.390625)"
               id="use91" />
          </g>
        </g>
      </g>
      <g
         id="line2d_25">
        <path
           d="m 32.6,7.8425 1.251131,24.941384 1.25113,11.463899 1.251131,8.877286 1.251131,7.363503 1.25113,6.550147 2.502262,11.382216 2.502261,9.475086 2.502261,8.503149 3.753392,11.27876 2.502261,6.76057 3.753392,9.02221 5.004523,10.91114 3.753392,7.63071 2.502261,4.52416 6.255654,10.52266 c 0,0 5.606492,8.73999 7.506783,11.51318 1.900291,2.77319 1.892892,2.74693 3.753392,5.21654 1.8605,2.46961 5.20333,6.75366 7.506784,9.52234 2.303454,2.76867 3.960913,4.83365 6.255654,7.12843 2.294745,2.29479 4.391065,4.01322 7.506785,6.58794 3.11572,2.57472 8.32158,6.59851 11.26017,8.75573 2.9386,2.15723 3.34584,2.3967 6.25566,4.33111 2.90981,1.9344 11.26017,7.18295 11.26017,7.18295 l 11.26018,6.48951 3.75339,1.9041 10.00905,4.79346 10.00904,4.36942 8.75792,3.48754 8.75791,3.01782 10.00905,3.1226 6.25565,1.77414 6.25565,1.63792 8.75792,1.98094 10.00904,1.96571 8.75792,1.46754 7.50678,1.0327 8.75792,0.98716 7.50678,0.66122 8.75791,0.53521 7.50679,0.25774 3.75339,0.0452 v 0"
           clip-path="url(#pa6c9a11ba1)"
           style="fill:none;stroke:#e25508;stroke-width:1.5;stroke-linecap:square"
           id="path91"
           sodipodi:nodetypes="cccccccccccccccczzzzzzzcccccccccccccccccccc" />
      </g>
      <g
         id="line2d_26">
        <path
           d="m 32.6,104.46189 2.502261,8.06544 c 0,0 1.666783,5.05248 2.502262,7.42021 0.835479,2.36774 1.46746,4.14687 2.502261,6.7876 1.034801,2.64072 2.299621,5.70523 3.753392,9.03464 1.453771,3.32941 3.537633,7.83169 5.004522,10.92255 1.466889,3.09087 2.698752,5.61739 3.753392,7.6412 1.05464,2.02381 1.058658,2.01405 2.502262,4.53488 1.443604,2.52084 3.965828,6.85317 6.255653,10.53245 2.289825,3.67929 5.606717,8.74579 7.506784,11.52209 1.900067,2.7763 1.893034,2.75279 3.753392,5.22536 1.860358,2.47256 5.203222,6.7606 7.506784,9.53059 2.303562,2.76999 3.9611,4.83003 6.255653,7.12844 2.294553,2.29841 4.391289,4.03043 7.506784,6.61002 3.115495,2.5796 8.321638,6.60186 11.260178,8.76065 2.93854,2.15879 3.14098,2.27167 6.25565,4.33515 3.11467,2.06348 8.75121,5.64704 12.51131,7.91771 3.76009,2.27068 7.69929,4.51136 10.00904,5.76177 2.30975,1.25041 1.4654,0.77766 3.75339,1.90681 2.288,1.12916 6.67197,3.26825 10.00905,4.79596 3.33708,1.52771 6.87924,3.06506 10.00904,4.37171 3.12981,1.30665 5.83759,2.4048 8.75792,3.48964 2.92033,1.08484 5.83826,2.05954 8.75791,3.0212 2.91966,0.96167 8.75792,2.74937 8.75792,2.74937 l 1.25113,0.29017 H 281.575 v 0"
           clip-path="url(#pa6c9a11ba1)"
           style="fill:none;stroke:#1764ab;stroke-dasharray:3.7, 1.6;stroke-dashoffset:0"
           id="path92"
           sodipodi:nodetypes="cczzzzzzzzzzzzzzzzzzzzzcccc" />
      </g>
      <g
         id="line2d_27">
        <path
           d="m 32.6,7.8425 11.271455,11.335793 2.490982,2.421 1.251131,10.68581 1.25113,8.790018 1.251131,7.311558 1.251131,6.504969 2.502261,11.342922 2.502261,9.438221 c 0,0 1.467854,5.182965 2.502262,8.475339 1.034408,3.292374 2.698092,8.265214 3.753392,11.260187 1.0553,2.994973 1.467234,4.106104 2.502261,6.733553 1.035027,2.62745 2.500789,6.11935 3.753392,9.00977 1.252603,2.89042 2.29912,5.24476 3.753392,8.33448 1.454272,3.08972 3.730372,7.74672 5.004523,10.18546 1.274151,2.43874 1.058054,1.9998 2.502261,4.51345 1.444207,2.51365 3.965822,6.83981 6.255653,10.51286 2.289831,3.67305 5.606267,8.7342 7.506784,11.50429 1.900517,2.77009 1.89275,2.74106 3.753392,5.20772 1.860642,2.46666 5.203326,6.74793 7.506786,9.51407 2.30346,2.76614 3.76436,4.65224 6.25565,7.12156 2.49129,2.46932 5.63206,4.99817 8.75792,7.55665 3.12586,2.55848 7.28357,5.76913 10.00904,7.7669 2.72547,1.99777 3.34578,2.39401 6.25565,4.32705 2.90987,1.93304 7.50514,4.90227 11.26018,7.17927 3.75504,2.277 8.7383,5.12236 11.26018,6.48619 2.52188,1.36383 1.4652,0.77435 3.75339,1.90138 2.28819,1.12703 6.67197,3.26485 10.00904,4.79097 3.33707,1.52612 6.87924,3.06195 10.00905,4.36713 3.12981,1.30518 5.83757,2.40242 8.75791,3.48543 2.92034,1.08301 5.63069,1.9889 8.75792,3.01443 3.12723,1.02553 7.29555,2.31371 10.00904,3.12111 2.71349,0.8074 4.17032,1.20475 6.25566,1.77276 2.08534,0.56801 3.7547,1.02616 6.25565,1.63547 2.50095,0.60931 5.63036,1.31893 8.75791,1.979 3.12755,0.66007 7.08848,1.43055 10.00905,1.96402 2.92057,0.53347 7.50678,1.26982 7.50678,1.26982 l 7.50679,1.06618 11.35885,1.30695 4.20864,4.3292 3.62066,3.61108 5.70878,5.6787"
           clip-path="url(#pa6c9a11ba1)"
           style="fill:none;stroke:#1764ab;stroke-dasharray:3.7, 1.6;stroke-dashoffset:0"
           id="path93"
           sodipodi:nodetypes="ccccccccczzzzzzzzzzzzzzzzzzzzzzzzzzzcccccc" />
      </g>
      <g
         id="line2d_28">
        <path
           d="M 32.6 7.8425  L 281.575 256.8175  "
           clip-path="url(#pa6c9a11ba1)"
           style="fill: none; stroke-dasharray: 1.5,2.475; stroke-dashoffset: 0; stroke: #000000; stroke-width: 1.5"
           id="path94" />
      </g>
      <g
         id="patch_3">
        <path
           d="M 32.6 256.8175  L 32.6 7.8425  "
           style="fill: none; stroke: #000000; stroke-width: 0.8; stroke-linejoin: miter; stroke-linecap: square"
           id="path95" />
      </g>
      <g
         id="patch_4">
        <path
           d="M 281.575 256.8175  L 281.575 7.8425  "
           style="fill: none; stroke: #000000; stroke-width: 0.8; stroke-linejoin: miter; stroke-linecap: square"
           id="path96" />
      </g>
      <g
         id="patch_5">
        <path
           d="M 32.6 256.8175  L 281.575 256.8175  "
           style="fill: none; stroke: #000000; stroke-width: 0.8; stroke-linejoin: miter; stroke-linecap: square"
           id="path97" />
      </g>
      <g
         id="patch_6">
        <path
           d="M 32.6 7.8425  L 281.575 7.8425  "
           style="fill: none; stroke: #000000; stroke-width: 0.8; stroke-linejoin: miter; stroke-linecap: square"
           id="path98" />
      </g>
      <g
         id="legend_1">
        <g
           id="line2d_29">
          <path
             d="M 174.475 17.011406  L 181.475 17.011406  L 188.475 17.011406  "
             style="fill: none; stroke: #e25508; stroke-width: 1.5; stroke-linecap: square"
             id="path99" />
        </g>
        <g
           id="text_15">
          <!-- ($\varepsilon, \delta$)-DP -->
          <g
             transform="translate(194.075 19.461406) scale(0.07 -0.07)"
             id="g106">
            <defs
               id="defs99">
              <path
                 id="DejaVuSans-28"
                 d="M 1984 4856  Q 1566 4138 1362 3434  Q 1159 2731 1159 2009  Q 1159 1288 1364 580  Q 1569 -128 1984 -844  L 1484 -844  Q 1016 -109 783 600  Q 550 1309 550 2009  Q 550 2706 781 3412  Q 1013 4119 1484 4856  L 1984 4856  z "
                 transform="scale(0.015625)" />
              <path
                 id="DejaVuSans-Oblique-3b5"
                 d="M 1263 1888  Q 925 1963 778 2166  Q 669 2309 669 2503  Q 669 3034 1175 3344  Q 1575 3588 2188 3588  Q 2425 3588 2684 3550  Q 2944 3513 3234 3438  L 3134 2916  Q 2847 3006 2606 3047  Q 2359 3088 2138 3088  Q 1766 3088 1522 2944  Q 1228 2772 1228 2522  Q 1228 2356 1381 2241  Q 1563 2103 1925 2103  L 2409 2103  L 2319 1628  L 1856 1628  Q 1425 1628 1172 1469  Q 828 1253 828 916  Q 828 703 1013 563  Q 1244 388 1716 388  Q 2006 388 2284 444  Q 2563 503 2806 619  L 2700 84  Q 2403 -3 2131 -47  Q 1859 -91 1609 -91  Q 866 -91 516 194  Q 250 413 250 781  Q 250 1278 600 1584  Q 859 1813 1263 1888  z "
                 transform="scale(0.015625)" />
              <path
                 id="DejaVuSans-2c"
                 d="M 750 794  L 1409 794  L 1409 256  L 897 -744  L 494 -744  L 750 256  L 750 794  z "
                 transform="scale(0.015625)" />
              <path
                 id="DejaVuSans-Oblique-3b4"
                 d="M 3472 4053  Q 3197 4272 2450 4272  Q 1659 4272 1588 3906  Q 1531 3619 2328 3469  Q 2953 3353 3253 3003  Q 3616 2581 3447 1716  Q 3284 888 2763 400  Q 2238 -91 1488 -91  Q 741 -91 406 400  Q 72 888 241 1747  Q 363 2384 891 2900  Q 1097 3100 1353 3213  Q 913 3459 1000 3900  Q 1166 4750 2544 4750  Q 3234 4750 3566 4531  L 3472 4053  z M 1753 3056  Q 1525 2966 1306 2738  Q 969 2384 847 1747  Q 722 1113 919 756  Q 1119 397 1584 397  Q 2044 397 2381 759  Q 2722 1122 2838 1716  Q 2956 2338 2731 2638  Q 2491 2959 2103 2994  Q 1906 3013 1753 3056  z "
                 transform="scale(0.015625)" />
              <path
                 id="DejaVuSans-29"
                 d="M 513 4856  L 1013 4856  Q 1481 4119 1714 3412  Q 1947 2706 1947 2009  Q 1947 1309 1714 600  Q 1481 -109 1013 -844  L 513 -844  Q 928 -128 1133 580  Q 1338 1288 1338 2009  Q 1338 2731 1133 3434  Q 928 4138 513 4856  z "
                 transform="scale(0.015625)" />
              <path
                 id="DejaVuSans-2d"
                 d="M 313 2009  L 1997 2009  L 1997 1497  L 313 1497  L 313 2009  z "
                 transform="scale(0.015625)" />
              <path
                 id="DejaVuSans-44"
                 d="M 1259 4147  L 1259 519  L 2022 519  Q 2988 519 3436 956  Q 3884 1394 3884 2338  Q 3884 3275 3436 3711  Q 2988 4147 2022 4147  L 1259 4147  z M 628 4666  L 1925 4666  Q 3281 4666 3915 4102  Q 4550 3538 4550 2338  Q 4550 1131 3912 565  Q 3275 0 1925 0  L 628 0  L 628 4666  z "
                 transform="scale(0.015625)" />
              <path
                 id="DejaVuSans-50"
                 d="M 1259 4147  L 1259 2394  L 2053 2394  Q 2494 2394 2734 2622  Q 2975 2850 2975 3272  Q 2975 3691 2734 3919  Q 2494 4147 2053 4147  L 1259 4147  z M 628 4666  L 2053 4666  Q 2838 4666 3239 4311  Q 3641 3956 3641 3272  Q 3641 2581 3239 2228  Q 2838 1875 2053 1875  L 1259 1875  L 1259 0  L 628 0  L 628 4666  z "
                 transform="scale(0.015625)" />
            </defs>
            <use
               xlink:href="#DejaVuSans-28"
               transform="translate(0 0.125)"
               id="use99" />
            <use
               xlink:href="#DejaVuSans-Oblique-3b5"
               transform="translate(39.013672 0.125)"
               id="use100" />
            <use
               xlink:href="#DejaVuSans-2c"
               transform="translate(93.066406 0.125)"
               id="use101" />
            <use
               xlink:href="#DejaVuSans-Oblique-3b4"
               transform="translate(144.335938 0.125)"
               id="use102" />
            <use
               xlink:href="#DejaVuSans-29"
               transform="translate(205.517578 0.125)"
               id="use103" />
            <use
               xlink:href="#DejaVuSans-2d"
               transform="translate(244.53125 0.125)"
               id="use104" />
            <use
               xlink:href="#DejaVuSans-44"
               transform="translate(280.615234 0.125)"
               id="use105" />
            <use
               xlink:href="#DejaVuSans-50"
               transform="translate(357.617188 0.125)"
               id="use106" />
          </g>
        </g>
        <g
           id="patch_7">
          <path
             d="M 174.475 29.737188  L 188.475 29.737188  L 188.475 24.837188  L 174.475 24.837188  z "
             style="fill: #b7d4ea; fill-opacity: 0.35; stroke: #b7d4ea; stroke-opacity: 0.35; stroke-linejoin: miter"
             id="path106" />
        </g>
        <g
           id="text_16">
          <!-- ($\varepsilon, \delta, \Delta$)-DP valid region -->
          <g
             transform="translate(194.075 29.737188) scale(0.07 -0.07)"
             id="g129">
            <defs
               id="defs106">
              <path
                 id="DejaVuSans-394"
                 d="M 2188 4044  L 906 525  L 3472 525  L 2188 4044  z M 50 0  L 1831 4666  L 2547 4666  L 4325 0  L 50 0  z "
                 transform="scale(0.015625)" />
              <path
                 id="DejaVuSans-76"
                 d="M 191 3500  L 800 3500  L 1894 563  L 2988 3500  L 3597 3500  L 2284 0  L 1503 0  L 191 3500  z "
                 transform="scale(0.015625)" />
              <path
                 id="DejaVuSans-61"
                 d="M 2194 1759  Q 1497 1759 1228 1600  Q 959 1441 959 1056  Q 959 750 1161 570  Q 1363 391 1709 391  Q 2188 391 2477 730  Q 2766 1069 2766 1631  L 2766 1759  L 2194 1759  z M 3341 1997  L 3341 0  L 2766 0  L 2766 531  Q 2569 213 2275 61  Q 1981 -91 1556 -91  Q 1019 -91 701 211  Q 384 513 384 1019  Q 384 1609 779 1909  Q 1175 2209 1959 2209  L 2766 2209  L 2766 2266  Q 2766 2663 2505 2880  Q 2244 3097 1772 3097  Q 1472 3097 1187 3025  Q 903 2953 641 2809  L 641 3341  Q 956 3463 1253 3523  Q 1550 3584 1831 3584  Q 2591 3584 2966 3190  Q 3341 2797 3341 1997  z "
                 transform="scale(0.015625)" />
              <path
                 id="DejaVuSans-6c"
                 d="M 603 4863  L 1178 4863  L 1178 0  L 603 0  L 603 4863  z "
                 transform="scale(0.015625)" />
              <path
                 id="DejaVuSans-69"
                 d="M 603 3500  L 1178 3500  L 1178 0  L 603 0  L 603 3500  z M 603 4863  L 1178 4863  L 1178 4134  L 603 4134  L 603 4863  z "
                 transform="scale(0.015625)" />
              <path
                 id="DejaVuSans-64"
                 d="M 2906 2969  L 2906 4863  L 3481 4863  L 3481 0  L 2906 0  L 2906 525  Q 2725 213 2448 61  Q 2172 -91 1784 -91  Q 1150 -91 751 415  Q 353 922 353 1747  Q 353 2572 751 3078  Q 1150 3584 1784 3584  Q 2172 3584 2448 3432  Q 2725 3281 2906 2969  z M 947 1747  Q 947 1113 1208 752  Q 1469 391 1925 391  Q 2381 391 2643 752  Q 2906 1113 2906 1747  Q 2906 2381 2643 2742  Q 2381 3103 1925 3103  Q 1469 3103 1208 2742  Q 947 2381 947 1747  z "
                 transform="scale(0.015625)" />
              <path
                 id="DejaVuSans-67"
                 d="M 2906 1791  Q 2906 2416 2648 2759  Q 2391 3103 1925 3103  Q 1463 3103 1205 2759  Q 947 2416 947 1791  Q 947 1169 1205 825  Q 1463 481 1925 481  Q 2391 481 2648 825  Q 2906 1169 2906 1791  z M 3481 434  Q 3481 -459 3084 -895  Q 2688 -1331 1869 -1331  Q 1566 -1331 1297 -1286  Q 1028 -1241 775 -1147  L 775 -588  Q 1028 -725 1275 -790  Q 1522 -856 1778 -856  Q 2344 -856 2625 -561  Q 2906 -266 2906 331  L 2906 616  Q 2728 306 2450 153  Q 2172 0 1784 0  Q 1141 0 747 490  Q 353 981 353 1791  Q 353 2603 747 3093  Q 1141 3584 1784 3584  Q 2172 3584 2450 3431  Q 2728 3278 2906 2969  L 2906 3500  L 3481 3500  L 3481 434  z "
                 transform="scale(0.015625)" />
              <path
                 id="DejaVuSans-6e"
                 d="M 3513 2113  L 3513 0  L 2938 0  L 2938 2094  Q 2938 2591 2744 2837  Q 2550 3084 2163 3084  Q 1697 3084 1428 2787  Q 1159 2491 1159 1978  L 1159 0  L 581 0  L 581 3500  L 1159 3500  L 1159 2956  Q 1366 3272 1645 3428  Q 1925 3584 2291 3584  Q 2894 3584 3203 3211  Q 3513 2838 3513 2113  z "
                 transform="scale(0.015625)" />
            </defs>
            <use
               xlink:href="#DejaVuSans-28"
               transform="matrix(1,0,0,1.1804511,0,3.73461)"
               id="use107"
               style="stroke-width:0.920399" />
            <use
               xlink:href="#DejaVuSans-Oblique-3b5"
               transform="translate(39.013672 0.015625)"
               id="use108" />
            <use
               xlink:href="#DejaVuSans-2c"
               transform="translate(93.066406 0.015625)"
               id="use109" />
            <use
               xlink:href="#DejaVuSans-Oblique-3b4"
               transform="translate(144.335938 0.015625)"
               id="use110" />
            <use
               xlink:href="#DejaVuSans-2c"
               transform="translate(205.517578 0.015625)"
               id="use111" />
            <use
               xlink:href="#DejaVuSans-394"
               transform="translate(256.787109 0.015625)"
               id="use112" />
            <use
               xlink:href="#DejaVuSans-29"
               transform="matrix(1,0,0,1.1804511,325.19531,3.73461)"
               id="use113"
               style="stroke-width:0.920399" />
            <use
               xlink:href="#DejaVuSans-2d"
               transform="translate(364.208984 0.015625)"
               id="use114" />
            <use
               xlink:href="#DejaVuSans-44"
               transform="translate(400.292969 0.015625)"
               id="use115" />
            <use
               xlink:href="#DejaVuSans-50"
               transform="translate(477.294922 0.015625)"
               id="use116" />
            <use
               xlink:href="#DejaVuSans-20"
               transform="translate(537.597656 0.015625)"
               id="use117" />
            <use
               xlink:href="#DejaVuSans-76"
               transform="translate(569.384766 0.015625)"
               id="use118" />
            <use
               xlink:href="#DejaVuSans-61"
               transform="translate(628.564453 0.015625)"
               id="use119" />
            <use
               xlink:href="#DejaVuSans-6c"
               transform="translate(689.84375 0.015625)"
               id="use120" />
            <use
               xlink:href="#DejaVuSans-69"
               transform="translate(717.626953 0.015625)"
               id="use121" />
            <use
               xlink:href="#DejaVuSans-69"
               transform="matrix(0.4215707,0,0,0.4215707,84.267448,-17.23534)"
               id="use121-7"
               style="stroke-width:2.37208;stroke-linecap:butt;stroke-linejoin:round" />
            <use
               xlink:href="#DejaVuSans-69"
               transform="matrix(0.4215707,0,0,0.4215707,197.42436,-17.23534)"
               id="use121-7-0"
               style="stroke-width:2.37208;stroke-linecap:butt;stroke-linejoin:round" />
            <use
               xlink:href="#DejaVuSans-64"
               transform="translate(745.410156 0.015625)"
               id="use122" />
            <use
               xlink:href="#DejaVuSans-20"
               transform="translate(808.886719 0.015625)"
               id="use123" />
            <use
               xlink:href="#DejaVuSans-72"
               transform="translate(840.673828 0.015625)"
               id="use124" />
            <use
               xlink:href="#DejaVuSans-65"
               transform="translate(881.787109 0.015625)"
               id="use125" />
            <use
               xlink:href="#DejaVuSans-67"
               transform="translate(943.310547 0.015625)"
               id="use126" />
            <use
               xlink:href="#DejaVuSans-69"
               transform="translate(1006.787109 0.015625)"
               id="use127" />
            <use
               xlink:href="#DejaVuSans-6f"
               transform="translate(1034.570312 0.015625)"
               id="use128" />
            <use
               xlink:href="#DejaVuSans-6e"
               transform="translate(1095.751953 0.015625)"
               id="use129" />
            <use
               xlink:href="#DejaVuSans-69"
               transform="matrix(0.4215707,0,0,0.4215707,84.267448,124.81736)"
               id="use138"
               style="stroke-width:2.37208;stroke-linecap:butt;stroke-linejoin:round" />
            <use
               xlink:href="#DejaVuSans-69"
               transform="matrix(0.4215707,0,0,0.4215707,197.42436,124.81736)"
               id="use139"
               style="stroke-width:2.37208;stroke-linecap:butt;stroke-linejoin:round" />
            <path
               style="fill:#ffffff;fill-opacity:1;stroke:#000000;stroke-width:6.2;stroke-linecap:butt;stroke-miterlimit:2.5;stroke-dasharray:none;stroke-opacity:1"
               d="M -3.371676,-64.763479 H 75.23079"
               id="path139" />
            <path
               style="fill:#ffffff;fill-opacity:1;stroke:#000000;stroke-width:6.2;stroke-linecap:butt;stroke-miterlimit:2.5;stroke-dasharray:none;stroke-opacity:1"
               d="M -3.371676,-64.763479 H 75.23079"
               id="path140" />
            <path
               style="fill:#ffffff;fill-opacity:1;stroke:#000000;stroke-width:6.2;stroke-linecap:butt;stroke-miterlimit:2.5;stroke-dasharray:none;stroke-opacity:1"
               d="m 250.90266,81.39529 h 78.60247"
               id="path141" />
          </g>
        </g>
        <g
           id="line2d_30">
          <path
             d="M 174.475 37.576094  L 181.475 37.576094  L 188.475 37.576094  "
             style="fill: none; stroke-dasharray: 3.7,1.6; stroke-dashoffset: 0; stroke: #1764ab"
             id="path129" />
        </g>
        <g
           id="text_17">
          <!-- $\Delta$ bounds -->
          <g
             transform="translate(194.075 40.026094) scale(0.07 -0.07)"
             id="g137">
            <defs
               id="defs129">
              <path
                 id="DejaVuSans-62"
                 d="M 3116 1747  Q 3116 2381 2855 2742  Q 2594 3103 2138 3103  Q 1681 3103 1420 2742  Q 1159 2381 1159 1747  Q 1159 1113 1420 752  Q 1681 391 2138 391  Q 2594 391 2855 752  Q 3116 1113 3116 1747  z M 1159 2969  Q 1341 3281 1617 3432  Q 1894 3584 2278 3584  Q 2916 3584 3314 3078  Q 3713 2572 3713 1747  Q 3713 922 3314 415  Q 2916 -91 2278 -91  Q 1894 -91 1617 61  Q 1341 213 1159 525  L 1159 0  L 581 0  L 581 4863  L 1159 4863  L 1159 2969  z "
                 transform="scale(0.015625)" />
              <path
                 id="DejaVuSans-75"
                 d="M 544 1381  L 544 3500  L 1119 3500  L 1119 1403  Q 1119 906 1312 657  Q 1506 409 1894 409  Q 2359 409 2629 706  Q 2900 1003 2900 1516  L 2900 3500  L 3475 3500  L 3475 0  L 2900 0  L 2900 538  Q 2691 219 2414 64  Q 2138 -91 1772 -91  Q 1169 -91 856 284  Q 544 659 544 1381  z M 1991 3584  L 1991 3584  z "
                 transform="scale(0.015625)" />
              <path
                 id="DejaVuSans-73"
                 d="M 2834 3397  L 2834 2853  Q 2591 2978 2328 3040  Q 2066 3103 1784 3103  Q 1356 3103 1142 2972  Q 928 2841 928 2578  Q 928 2378 1081 2264  Q 1234 2150 1697 2047  L 1894 2003  Q 2506 1872 2764 1633  Q 3022 1394 3022 966  Q 3022 478 2636 193  Q 2250 -91 1575 -91  Q 1294 -91 989 -36  Q 684 19 347 128  L 347 722  Q 666 556 975 473  Q 1284 391 1588 391  Q 1994 391 2212 530  Q 2431 669 2431 922  Q 2431 1156 2273 1281  Q 2116 1406 1581 1522  L 1381 1569  Q 847 1681 609 1914  Q 372 2147 372 2553  Q 372 3047 722 3315  Q 1072 3584 1716 3584  Q 2034 3584 2315 3537  Q 2597 3491 2834 3397  z "
                 transform="scale(0.015625)" />
            </defs>
            <use
               xlink:href="#DejaVuSans-394"
               transform="translate(0 0.015625)"
               id="use130" />
            <use
               xlink:href="#DejaVuSans-20"
               transform="translate(68.408203 0.015625)"
               id="use131" />
            <use
               xlink:href="#DejaVuSans-62"
               transform="translate(100.195312 0.015625)"
               id="use132" />
            <use
               xlink:href="#DejaVuSans-6f"
               transform="translate(163.671875 0.015625)"
               id="use133" />
            <use
               xlink:href="#DejaVuSans-75"
               transform="translate(224.853516 0.015625)"
               id="use134" />
            <use
               xlink:href="#DejaVuSans-6e"
               transform="translate(288.232422 0.015625)"
               id="use135" />
            <use
               xlink:href="#DejaVuSans-64"
               transform="translate(351.611328 0.015625)"
               id="use136" />
            <use
               xlink:href="#DejaVuSans-73"
               transform="translate(415.087891 0.015625)"
               id="use137" />
          </g>
        </g>
      </g>
    </g>
  </g>
  <defs
     id="defs137">
    <clipPath
       id="pa6c9a11ba1">
      <rect
         x="32.6"
         y="7.8425"
         width="248.975"
         height="248.975"
         id="rect137" />
    </clipPath>
  </defs>
</svg>
