<?xml version="1.0" encoding="UTF-8" standalone="no"?>
<svg
   width="426.086591pt"
   height="283.3425pt"
   viewBox="0 0 426.086591 283.3425"
   version="1.1"
   id="svg179"
   sodipodi:docname="epsilon_delta_curve(1).svg"
   inkscape:version="1.3.2 (091e20e, 2023-11-25, custom)"
   xmlns:inkscape="http://www.inkscape.org/namespaces/inkscape"
   xmlns:sodipodi="http://sodipodi.sourceforge.net/DTD/sodipodi-0.dtd"
   xmlns:xlink="http://www.w3.org/1999/xlink"
   xmlns="http://www.w3.org/2000/svg"
   xmlns:svg="http://www.w3.org/2000/svg"
   xmlns:rdf="http://www.w3.org/1999/02/22-rdf-syntax-ns#"
   xmlns:cc="http://creativecommons.org/ns#"
   xmlns:dc="http://purl.org/dc/elements/1.1/">
  <sodipodi:namedview
     id="namedview179"
     pagecolor="#ffffff"
     bordercolor="#999999"
     borderopacity="1"
     inkscape:showpageshadow="0"
     inkscape:pageopacity="0"
     inkscape:pagecheckerboard="0"
     inkscape:deskcolor="#d1d1d1"
     inkscape:document-units="pt"
     inkscape:zoom="1.0031906"
     inkscape:cx="213.31938"
     inkscape:cy="212.82097"
     inkscape:window-width="1920"
     inkscape:window-height="1009"
     inkscape:window-x="1912"
     inkscape:window-y="-8"
     inkscape:window-maximized="1"
     inkscape:current-layer="g34" />
  <metadata
     id="metadata1">
    <rdf:RDF>
      <cc:Work>
        <dc:type
           rdf:resource="http://purl.org/dc/dcmitype/StillImage" />
        <dc:date>2025-08-25T11:43:31.608050</dc:date>
        <dc:format>image/svg+xml</dc:format>
        <dc:creator>
          <cc:Agent>
            <dc:title>Matplotlib v3.10.3, https://matplotlib.org/</dc:title>
          </cc:Agent>
        </dc:creator>
      </cc:Work>
    </rdf:RDF>
  </metadata>
  <defs
     id="defs1">
    <style
       type="text/css"
       id="style1">*{stroke-linejoin: round; stroke-linecap: butt}</style>
  </defs>
  <g
     id="figure_1">
    <g
       id="patch_1">
      <path
         d="M 0 283.3425  L 426.086591 283.3425  L 426.086591 0  L 0 0  z "
         style="fill: #ffffff"
         id="path1" />
    </g>
    <g
       id="axes_1">
      <g
         id="patch_2">
        <path
           d="M 48.28 249.64  L 418.886591 249.64  L 418.886591 7.2  L 48.28 7.2  z "
           style="fill: #ffffff"
           id="path2" />
      </g>
      <g
         id="matplotlib.axis_1">
        <g
           id="xtick_1">
          <g
             id="line2d_1">
            <defs
               id="defs2">
              <path
                 id="m8e4d5b3bc8"
                 d="M 0 0  L 0 3.5  "
                 style="stroke: #000000; stroke-width: 0.6" />
            </defs>
            <g
               id="g2">
              <use
                 xlink:href="#m8e4d5b3bc8"
                 x="63.627616"
                 y="249.64"
                 style="stroke: #000000; stroke-width: 0.6"
                 id="use2" />
            </g>
          </g>
          <g
             id="text_1">
            <!-- 0 -->
            <g
               transform="translate(61.082616 262.71875) scale(0.08 -0.08)"
               id="g3">
              <defs
                 id="defs3">
                <path
                   id="DejaVuSans-30"
                   d="M 2034 4250  Q 1547 4250 1301 3770  Q 1056 3291 1056 2328  Q 1056 1369 1301 889  Q 1547 409 2034 409  Q 2525 409 2770 889  Q 3016 1369 3016 2328  Q 3016 3291 2770 3770  Q 2525 4250 2034 4250  z M 2034 4750  Q 2819 4750 3233 4129  Q 3647 3509 3647 2328  Q 3647 1150 3233 529  Q 2819 -91 2034 -91  Q 1250 -91 836 529  Q 422 1150 422 2328  Q 422 3509 836 4129  Q 1250 4750 2034 4750  z "
                   transform="scale(0.015625)" />
              </defs>
              <use
                 xlink:href="#DejaVuSans-30"
                 id="use3" />
            </g>
          </g>
        </g>
        <g
           id="xtick_2">
          <g
             id="line2d_2">
            <g
               id="g4">
              <use
                 xlink:href="#m8e4d5b3bc8"
                 x="111.307986"
                 y="249.64"
                 style="stroke: #000000; stroke-width: 0.6"
                 id="use4" />
            </g>
          </g>
          <g
             id="text_2">
            <!-- 5 -->
            <g
               transform="translate(108.762986 262.71875) scale(0.08 -0.08)"
               id="g5">
              <defs
                 id="defs4">
                <path
                   id="DejaVuSans-35"
                   d="M 691 4666  L 3169 4666  L 3169 4134  L 1269 4134  L 1269 2991  Q 1406 3038 1543 3061  Q 1681 3084 1819 3084  Q 2600 3084 3056 2656  Q 3513 2228 3513 1497  Q 3513 744 3044 326  Q 2575 -91 1722 -91  Q 1428 -91 1123 -41  Q 819 9 494 109  L 494 744  Q 775 591 1075 516  Q 1375 441 1709 441  Q 2250 441 2565 725  Q 2881 1009 2881 1497  Q 2881 1984 2565 2268  Q 2250 2553 1709 2553  Q 1456 2553 1204 2497  Q 953 2441 691 2322  L 691 4666  z "
                   transform="scale(0.015625)" />
              </defs>
              <use
                 xlink:href="#DejaVuSans-35"
                 id="use5" />
            </g>
          </g>
        </g>
        <g
           id="xtick_3">
          <g
             id="line2d_3">
            <g
               id="g6">
              <use
                 xlink:href="#m8e4d5b3bc8"
                 x="158.988357"
                 y="249.64"
                 style="stroke: #000000; stroke-width: 0.6"
                 id="use6" />
            </g>
          </g>
          <g
             id="text_3">
            <!-- 10 -->
            <g
               transform="translate(153.898357 262.71875) scale(0.08 -0.08)"
               id="g8">
              <defs
                 id="defs6">
                <path
                   id="DejaVuSans-31"
                   d="M 794 531  L 1825 531  L 1825 4091  L 703 3866  L 703 4441  L 1819 4666  L 2450 4666  L 2450 531  L 3481 531  L 3481 0  L 794 0  L 794 531  z "
                   transform="scale(0.015625)" />
              </defs>
              <use
                 xlink:href="#DejaVuSans-31"
                 id="use7" />
              <use
                 xlink:href="#DejaVuSans-30"
                 transform="translate(63.623047 0)"
                 id="use8" />
            </g>
          </g>
        </g>
        <g
           id="xtick_4">
          <g
             id="line2d_4">
            <g
               id="g9">
              <use
                 xlink:href="#m8e4d5b3bc8"
                 x="206.668727"
                 y="249.64"
                 style="stroke: #000000; stroke-width: 0.6"
                 id="use9" />
            </g>
          </g>
          <g
             id="text_4">
            <!-- 15 -->
            <g
               transform="translate(201.578727 262.71875) scale(0.08 -0.08)"
               id="g11">
              <use
                 xlink:href="#DejaVuSans-31"
                 id="use10" />
              <use
                 xlink:href="#DejaVuSans-35"
                 transform="translate(63.623047 0)"
                 id="use11" />
            </g>
          </g>
        </g>
        <g
           id="xtick_5">
          <g
             id="line2d_5">
            <g
               id="g12">
              <use
                 xlink:href="#m8e4d5b3bc8"
                 x="254.349098"
                 y="249.64"
                 style="stroke: #000000; stroke-width: 0.6"
                 id="use12" />
            </g>
          </g>
          <g
             id="text_5">
            <!-- 20 -->
            <g
               transform="translate(249.259098 262.71875) scale(0.08 -0.08)"
               id="g14">
              <defs
                 id="defs12">
                <path
                   id="DejaVuSans-32"
                   d="M 1228 531  L 3431 531  L 3431 0  L 469 0  L 469 531  Q 828 903 1448 1529  Q 2069 2156 2228 2338  Q 2531 2678 2651 2914  Q 2772 3150 2772 3378  Q 2772 3750 2511 3984  Q 2250 4219 1831 4219  Q 1534 4219 1204 4116  Q 875 4013 500 3803  L 500 4441  Q 881 4594 1212 4672  Q 1544 4750 1819 4750  Q 2544 4750 2975 4387  Q 3406 4025 3406 3419  Q 3406 3131 3298 2873  Q 3191 2616 2906 2266  Q 2828 2175 2409 1742  Q 1991 1309 1228 531  z "
                   transform="scale(0.015625)" />
              </defs>
              <use
                 xlink:href="#DejaVuSans-32"
                 id="use13" />
              <use
                 xlink:href="#DejaVuSans-30"
                 transform="translate(63.623047 0)"
                 id="use14" />
            </g>
          </g>
        </g>
        <g
           id="xtick_6">
          <g
             id="line2d_6">
            <g
               id="g15">
              <use
                 xlink:href="#m8e4d5b3bc8"
                 x="302.029468"
                 y="249.64"
                 style="stroke: #000000; stroke-width: 0.6"
                 id="use15" />
            </g>
          </g>
          <g
             id="text_6">
            <!-- 25 -->
            <g
               transform="translate(296.939468 262.71875) scale(0.08 -0.08)"
               id="g17">
              <use
                 xlink:href="#DejaVuSans-32"
                 id="use16" />
              <use
                 xlink:href="#DejaVuSans-35"
                 transform="translate(63.623047 0)"
                 id="use17" />
            </g>
          </g>
        </g>
        <g
           id="xtick_7">
          <g
             id="line2d_7">
            <g
               id="g18">
              <use
                 xlink:href="#m8e4d5b3bc8"
                 x="349.709838"
                 y="249.64"
                 style="stroke: #000000; stroke-width: 0.6"
                 id="use18" />
            </g>
          </g>
          <g
             id="text_7">
            <!-- 30 -->
            <g
               transform="translate(344.619838 262.71875) scale(0.08 -0.08)"
               id="g20">
              <defs
                 id="defs18">
                <path
                   id="DejaVuSans-33"
                   d="M 2597 2516  Q 3050 2419 3304 2112  Q 3559 1806 3559 1356  Q 3559 666 3084 287  Q 2609 -91 1734 -91  Q 1441 -91 1130 -33  Q 819 25 488 141  L 488 750  Q 750 597 1062 519  Q 1375 441 1716 441  Q 2309 441 2620 675  Q 2931 909 2931 1356  Q 2931 1769 2642 2001  Q 2353 2234 1838 2234  L 1294 2234  L 1294 2753  L 1863 2753  Q 2328 2753 2575 2939  Q 2822 3125 2822 3475  Q 2822 3834 2567 4026  Q 2313 4219 1838 4219  Q 1578 4219 1281 4162  Q 984 4106 628 3988  L 628 4550  Q 988 4650 1302 4700  Q 1616 4750 1894 4750  Q 2613 4750 3031 4423  Q 3450 4097 3450 3541  Q 3450 3153 3228 2886  Q 3006 2619 2597 2516  z "
                   transform="scale(0.015625)" />
              </defs>
              <use
                 xlink:href="#DejaVuSans-33"
                 id="use19" />
              <use
                 xlink:href="#DejaVuSans-30"
                 transform="translate(63.623047 0)"
                 id="use20" />
            </g>
          </g>
        </g>
        <g
           id="xtick_8">
          <g
             id="line2d_8">
            <g
               id="g21">
              <use
                 xlink:href="#m8e4d5b3bc8"
                 x="397.390209"
                 y="249.64"
                 style="stroke: #000000; stroke-width: 0.6"
                 id="use21" />
            </g>
          </g>
          <g
             id="text_8">
            <!-- 35 -->
            <g
               transform="translate(392.300209 262.71875) scale(0.08 -0.08)"
               id="g23">
              <use
                 xlink:href="#DejaVuSans-33"
                 id="use22" />
              <use
                 xlink:href="#DejaVuSans-35"
                 transform="translate(63.623047 0)"
                 id="use23" />
            </g>
          </g>
        </g>
        <g
           id="text_9">
          <!-- Epsilon ($\epsilon$) -->
          <g
             transform="translate(212.663295 274.4625) scale(0.08 -0.08)"
             id="g34">
            <defs
               id="defs23">
              <path
                 id="DejaVuSans-45"
                 d="M 628 4666  L 3578 4666  L 3578 4134  L 1259 4134  L 1259 2753  L 3481 2753  L 3481 2222  L 1259 2222  L 1259 531  L 3634 531  L 3634 0  L 628 0  L 628 4666  z "
                 transform="scale(0.015625)" />
              <path
                 id="DejaVuSans-70"
                 d="M 1159 525  L 1159 -1331  L 581 -1331  L 581 3500  L 1159 3500  L 1159 2969  Q 1341 3281 1617 3432  Q 1894 3584 2278 3584  Q 2916 3584 3314 3078  Q 3713 2572 3713 1747  Q 3713 922 3314 415  Q 2916 -91 2278 -91  Q 1894 -91 1617 61  Q 1341 213 1159 525  z M 3116 1747  Q 3116 2381 2855 2742  Q 2594 3103 2138 3103  Q 1681 3103 1420 2742  Q 1159 2381 1159 1747  Q 1159 1113 1420 752  Q 1681 391 2138 391  Q 2594 391 2855 752  Q 3116 1113 3116 1747  z "
                 transform="scale(0.015625)" />
              <path
                 id="DejaVuSans-73"
                 d="M 2834 3397  L 2834 2853  Q 2591 2978 2328 3040  Q 2066 3103 1784 3103  Q 1356 3103 1142 2972  Q 928 2841 928 2578  Q 928 2378 1081 2264  Q 1234 2150 1697 2047  L 1894 2003  Q 2506 1872 2764 1633  Q 3022 1394 3022 966  Q 3022 478 2636 193  Q 2250 -91 1575 -91  Q 1294 -91 989 -36  Q 684 19 347 128  L 347 722  Q 666 556 975 473  Q 1284 391 1588 391  Q 1994 391 2212 530  Q 2431 669 2431 922  Q 2431 1156 2273 1281  Q 2116 1406 1581 1522  L 1381 1569  Q 847 1681 609 1914  Q 372 2147 372 2553  Q 372 3047 722 3315  Q 1072 3584 1716 3584  Q 2034 3584 2315 3537  Q 2597 3491 2834 3397  z "
                 transform="scale(0.015625)" />
              <path
                 id="DejaVuSans-69"
                 d="M 603 3500  L 1178 3500  L 1178 0  L 603 0  L 603 3500  z M 603 4863  L 1178 4863  L 1178 4134  L 603 4134  L 603 4863  z "
                 transform="scale(0.015625)" />
              <path
                 id="DejaVuSans-6c"
                 d="M 603 4863  L 1178 4863  L 1178 0  L 603 0  L 603 4863  z "
                 transform="scale(0.015625)" />
              <path
                 id="DejaVuSans-6f"
                 d="M 1959 3097  Q 1497 3097 1228 2736  Q 959 2375 959 1747  Q 959 1119 1226 758  Q 1494 397 1959 397  Q 2419 397 2687 759  Q 2956 1122 2956 1747  Q 2956 2369 2687 2733  Q 2419 3097 1959 3097  z M 1959 3584  Q 2709 3584 3137 3096  Q 3566 2609 3566 1747  Q 3566 888 3137 398  Q 2709 -91 1959 -91  Q 1206 -91 779 398  Q 353 888 353 1747  Q 353 2609 779 3096  Q 1206 3584 1959 3584  z "
                 transform="scale(0.015625)" />
              <path
                 id="DejaVuSans-6e"
                 d="M 3513 2113  L 3513 0  L 2938 0  L 2938 2094  Q 2938 2591 2744 2837  Q 2550 3084 2163 3084  Q 1697 3084 1428 2787  Q 1159 2491 1159 1978  L 1159 0  L 581 0  L 581 3500  L 1159 3500  L 1159 2956  Q 1366 3272 1645 3428  Q 1925 3584 2291 3584  Q 2894 3584 3203 3211  Q 3513 2838 3513 2113  z "
                 transform="scale(0.015625)" />
              <path
                 id="DejaVuSans-20"
                 transform="scale(0.015625)" />
              <path
                 id="DejaVuSans-28"
                 d="M 1984 4856  Q 1566 4138 1362 3434  Q 1159 2731 1159 2009  Q 1159 1288 1364 580  Q 1569 -128 1984 -844  L 1484 -844  Q 1016 -109 783 600  Q 550 1309 550 2009  Q 550 2706 781 3412  Q 1013 4119 1484 4856  L 1984 4856  z "
                 transform="scale(0.015625)" />
              <path
                 id="DejaVuSans-Oblique-3b5"
                 d="M 1263 1888  Q 925 1963 778 2166  Q 669 2309 669 2503  Q 669 3034 1175 3344  Q 1575 3588 2188 3588  Q 2425 3588 2684 3550  Q 2944 3513 3234 3438  L 3134 2916  Q 2847 3006 2606 3047  Q 2359 3088 2138 3088  Q 1766 3088 1522 2944  Q 1228 2772 1228 2522  Q 1228 2356 1381 2241  Q 1563 2103 1925 2103  L 2409 2103  L 2319 1628  L 1856 1628  Q 1425 1628 1172 1469  Q 828 1253 828 916  Q 828 703 1013 563  Q 1244 388 1716 388  Q 2006 388 2284 444  Q 2563 503 2806 619  L 2700 84  Q 2403 -3 2131 -47  Q 1859 -91 1609 -91  Q 866 -91 516 194  Q 250 413 250 781  Q 250 1278 600 1584  Q 859 1813 1263 1888  z "
                 transform="scale(0.015625)" />
              <path
                 id="DejaVuSans-29"
                 d="M 513 4856  L 1013 4856  Q 1481 4119 1714 3412  Q 1947 2706 1947 2009  Q 1947 1309 1714 600  Q 1481 -109 1013 -844  L 513 -844  Q 928 -128 1133 580  Q 1338 1288 1338 2009  Q 1338 2731 1133 3434  Q 928 4138 513 4856  z "
                 transform="scale(0.015625)" />
            </defs>
            <use
               xlink:href="#DejaVuSans-20"
               transform="translate(358.886719 0.015625)"
               id="use31" />
            <use
               xlink:href="#DejaVuSans-Oblique-3b5"
               transform="translate(429.6875 0.015625)"
               id="use33" />
          </g>
        </g>
      </g>
      <g
         id="matplotlib.axis_2">
        <g
           id="ytick_1">
          <g
             id="line2d_9">
            <defs
               id="defs34">
              <path
                 id="m273f21e4cf"
                 d="M 0 0  L -3.5 0  "
                 style="stroke: #000000; stroke-width: 0.6" />
            </defs>
            <g
               id="g35">
              <use
                 xlink:href="#m273f21e4cf"
                 x="48.28"
                 y="221.666154"
                 style="stroke: #000000; stroke-width: 0.6"
                 id="use35" />
            </g>
          </g>
          <g
             id="text_10">
            <!-- $\mathdefault{10^{-13}}$ -->
            <g
               transform="translate(18.96 224.705529) scale(0.08 -0.08)"
               id="g40">
              <defs
                 id="defs35">
                <path
                   id="DejaVuSans-2212"
                   d="M 678 2272  L 4684 2272  L 4684 1741  L 678 1741  L 678 2272  z "
                   transform="scale(0.015625)" />
              </defs>
              <use
                 xlink:href="#DejaVuSans-31"
                 transform="translate(0 0.765625)"
                 id="use36" />
              <use
                 xlink:href="#DejaVuSans-30"
                 transform="translate(63.623047 0.765625)"
                 id="use37" />
              <use
                 xlink:href="#DejaVuSans-2212"
                 transform="translate(128.203125 39.046875) scale(0.7)"
                 id="use38" />
              <use
                 xlink:href="#DejaVuSans-31"
                 transform="translate(186.855469 39.046875) scale(0.7)"
                 id="use39" />
              <use
                 xlink:href="#DejaVuSans-33"
                 transform="translate(231.391602 39.046875) scale(0.7)"
                 id="use40" />
            </g>
          </g>
        </g>
        <g
           id="ytick_2">
          <g
             id="line2d_10">
            <g
               id="g41">
              <use
                 xlink:href="#m273f21e4cf"
                 x="48.28"
                 y="187.758462"
                 style="stroke: #000000; stroke-width: 0.6"
                 id="use41" />
            </g>
          </g>
          <g
             id="text_11">
            <!-- $\mathdefault{10^{-11}}$ -->
            <g
               transform="translate(18.96 190.797837) scale(0.08 -0.08)"
               id="g46">
              <use
                 xlink:href="#DejaVuSans-31"
                 transform="translate(0 0.684375)"
                 id="use42" />
              <use
                 xlink:href="#DejaVuSans-30"
                 transform="translate(63.623047 0.684375)"
                 id="use43" />
              <use
                 xlink:href="#DejaVuSans-2212"
                 transform="translate(128.203125 38.965625) scale(0.7)"
                 id="use44" />
              <use
                 xlink:href="#DejaVuSans-31"
                 transform="translate(186.855469 38.965625) scale(0.7)"
                 id="use45" />
              <use
                 xlink:href="#DejaVuSans-31"
                 transform="translate(231.391602 38.965625) scale(0.7)"
                 id="use46" />
            </g>
          </g>
        </g>
        <g
           id="ytick_3">
          <g
             id="line2d_11">
            <g
               id="g47">
              <use
                 xlink:href="#m273f21e4cf"
                 x="48.28"
                 y="153.850769"
                 style="stroke: #000000; stroke-width: 0.6"
                 id="use47" />
            </g>
          </g>
          <g
             id="text_12">
            <!-- $\mathdefault{10^{-9}}$ -->
            <g
               transform="translate(22.48 156.890144) scale(0.08 -0.08)"
               id="g51">
              <defs
                 id="defs47">
                <path
                   id="DejaVuSans-39"
                   d="M 703 97  L 703 672  Q 941 559 1184 500  Q 1428 441 1663 441  Q 2288 441 2617 861  Q 2947 1281 2994 2138  Q 2813 1869 2534 1725  Q 2256 1581 1919 1581  Q 1219 1581 811 2004  Q 403 2428 403 3163  Q 403 3881 828 4315  Q 1253 4750 1959 4750  Q 2769 4750 3195 4129  Q 3622 3509 3622 2328  Q 3622 1225 3098 567  Q 2575 -91 1691 -91  Q 1453 -91 1209 -44  Q 966 3 703 97  z M 1959 2075  Q 2384 2075 2632 2365  Q 2881 2656 2881 3163  Q 2881 3666 2632 3958  Q 2384 4250 1959 4250  Q 1534 4250 1286 3958  Q 1038 3666 1038 3163  Q 1038 2656 1286 2365  Q 1534 2075 1959 2075  z "
                   transform="scale(0.015625)" />
              </defs>
              <use
                 xlink:href="#DejaVuSans-31"
                 transform="translate(0 0.765625)"
                 id="use48" />
              <use
                 xlink:href="#DejaVuSans-30"
                 transform="translate(63.623047 0.765625)"
                 id="use49" />
              <use
                 xlink:href="#DejaVuSans-2212"
                 transform="translate(128.203125 39.046875) scale(0.7)"
                 id="use50" />
              <use
                 xlink:href="#DejaVuSans-39"
                 transform="translate(186.855469 39.046875) scale(0.7)"
                 id="use51" />
            </g>
          </g>
        </g>
        <g
           id="ytick_4">
          <g
             id="line2d_12">
            <g
               id="g52">
              <use
                 xlink:href="#m273f21e4cf"
                 x="48.28"
                 y="119.943077"
                 style="stroke: #000000; stroke-width: 0.6"
                 id="use52" />
            </g>
          </g>
          <g
             id="text_13">
            <!-- $\mathdefault{10^{-7}}$ -->
            <g
               transform="translate(22.48 122.982452) scale(0.08 -0.08)"
               id="g56">
              <defs
                 id="defs52">
                <path
                   id="DejaVuSans-37"
                   d="M 525 4666  L 3525 4666  L 3525 4397  L 1831 0  L 1172 0  L 2766 4134  L 525 4134  L 525 4666  z "
                   transform="scale(0.015625)" />
              </defs>
              <use
                 xlink:href="#DejaVuSans-31"
                 transform="translate(0 0.684375)"
                 id="use53" />
              <use
                 xlink:href="#DejaVuSans-30"
                 transform="translate(63.623047 0.684375)"
                 id="use54" />
              <use
                 xlink:href="#DejaVuSans-2212"
                 transform="translate(128.203125 38.965625) scale(0.7)"
                 id="use55" />
              <use
                 xlink:href="#DejaVuSans-37"
                 transform="translate(186.855469 38.965625) scale(0.7)"
                 id="use56" />
            </g>
          </g>
        </g>
        <g
           id="ytick_5">
          <g
             id="line2d_13">
            <g
               id="g57">
              <use
                 xlink:href="#m273f21e4cf"
                 x="48.28"
                 y="86.035385"
                 style="stroke: #000000; stroke-width: 0.6"
                 id="use57" />
            </g>
          </g>
          <g
             id="text_14">
            <!-- $\mathdefault{10^{-5}}$ -->
            <g
               transform="translate(22.48 89.07476) scale(0.08 -0.08)"
               id="g61">
              <use
                 xlink:href="#DejaVuSans-31"
                 transform="translate(0 0.684375)"
                 id="use58" />
              <use
                 xlink:href="#DejaVuSans-30"
                 transform="translate(63.623047 0.684375)"
                 id="use59" />
              <use
                 xlink:href="#DejaVuSans-2212"
                 transform="translate(128.203125 38.965625) scale(0.7)"
                 id="use60" />
              <use
                 xlink:href="#DejaVuSans-35"
                 transform="translate(186.855469 38.965625) scale(0.7)"
                 id="use61" />
            </g>
          </g>
        </g>
        <g
           id="ytick_6">
          <g
             id="line2d_14">
            <g
               id="g62">
              <use
                 xlink:href="#m273f21e4cf"
                 x="48.28"
                 y="52.127692"
                 style="stroke: #000000; stroke-width: 0.6"
                 id="use62" />
            </g>
          </g>
          <g
             id="text_15">
            <!-- $\mathdefault{10^{-3}}$ -->
            <g
               transform="translate(22.48 55.167067) scale(0.08 -0.08)"
               id="g66">
              <use
                 xlink:href="#DejaVuSans-31"
                 transform="translate(0 0.765625)"
                 id="use63" />
              <use
                 xlink:href="#DejaVuSans-30"
                 transform="translate(63.623047 0.765625)"
                 id="use64" />
              <use
                 xlink:href="#DejaVuSans-2212"
                 transform="translate(128.203125 39.046875) scale(0.7)"
                 id="use65" />
              <use
                 xlink:href="#DejaVuSans-33"
                 transform="translate(186.855469 39.046875) scale(0.7)"
                 id="use66" />
            </g>
          </g>
        </g>
        <g
           id="ytick_7">
          <g
             id="line2d_15">
            <g
               id="g67">
              <use
                 xlink:href="#m273f21e4cf"
                 x="48.28"
                 y="18.22"
                 style="stroke: #000000; stroke-width: 0.6"
                 id="use67" />
            </g>
          </g>
          <g
             id="text_16">
            <!-- $\mathdefault{10^{-1}}$ -->
            <g
               transform="translate(22.48 21.259375) scale(0.08 -0.08)"
               id="g71">
              <use
                 xlink:href="#DejaVuSans-31"
                 transform="translate(0 0.684375)"
                 id="use68" />
              <use
                 xlink:href="#DejaVuSans-30"
                 transform="translate(63.623047 0.684375)"
                 id="use69" />
              <use
                 xlink:href="#DejaVuSans-2212"
                 transform="translate(128.203125 38.965625) scale(0.7)"
                 id="use70" />
              <use
                 xlink:href="#DejaVuSans-31"
                 transform="translate(186.855469 38.965625) scale(0.7)"
                 id="use71" />
            </g>
          </g>
        </g>
        <g
           id="text_17">
          <!-- Delta ($\delta$, log scale) -->
          <g
             transform="translate(13.28 166.18) rotate(-90) scale(0.08 -0.08)"
             id="g91">
            <defs
               id="defs71">
              <path
                 id="DejaVuSans-44"
                 d="M 1259 4147  L 1259 519  L 2022 519  Q 2988 519 3436 956  Q 3884 1394 3884 2338  Q 3884 3275 3436 3711  Q 2988 4147 2022 4147  L 1259 4147  z M 628 4666  L 1925 4666  Q 3281 4666 3915 4102  Q 4550 3538 4550 2338  Q 4550 1131 3912 565  Q 3275 0 1925 0  L 628 0  L 628 4666  z "
                 transform="scale(0.015625)" />
              <path
                 id="DejaVuSans-65"
                 d="M 3597 1894  L 3597 1613  L 953 1613  Q 991 1019 1311 708  Q 1631 397 2203 397  Q 2534 397 2845 478  Q 3156 559 3463 722  L 3463 178  Q 3153 47 2828 -22  Q 2503 -91 2169 -91  Q 1331 -91 842 396  Q 353 884 353 1716  Q 353 2575 817 3079  Q 1281 3584 2069 3584  Q 2775 3584 3186 3129  Q 3597 2675 3597 1894  z M 3022 2063  Q 3016 2534 2758 2815  Q 2500 3097 2075 3097  Q 1594 3097 1305 2825  Q 1016 2553 972 2059  L 3022 2063  z "
                 transform="scale(0.015625)" />
              <path
                 id="DejaVuSans-74"
                 d="M 1172 4494  L 1172 3500  L 2356 3500  L 2356 3053  L 1172 3053  L 1172 1153  Q 1172 725 1289 603  Q 1406 481 1766 481  L 2356 481  L 2356 0  L 1766 0  Q 1100 0 847 248  Q 594 497 594 1153  L 594 3053  L 172 3053  L 172 3500  L 594 3500  L 594 4494  L 1172 4494  z "
                 transform="scale(0.015625)" />
              <path
                 id="DejaVuSans-61"
                 d="M 2194 1759  Q 1497 1759 1228 1600  Q 959 1441 959 1056  Q 959 750 1161 570  Q 1363 391 1709 391  Q 2188 391 2477 730  Q 2766 1069 2766 1631  L 2766 1759  L 2194 1759  z M 3341 1997  L 3341 0  L 2766 0  L 2766 531  Q 2569 213 2275 61  Q 1981 -91 1556 -91  Q 1019 -91 701 211  Q 384 513 384 1019  Q 384 1609 779 1909  Q 1175 2209 1959 2209  L 2766 2209  L 2766 2266  Q 2766 2663 2505 2880  Q 2244 3097 1772 3097  Q 1472 3097 1187 3025  Q 903 2953 641 2809  L 641 3341  Q 956 3463 1253 3523  Q 1550 3584 1831 3584  Q 2591 3584 2966 3190  Q 3341 2797 3341 1997  z "
                 transform="scale(0.015625)" />
              <path
                 id="DejaVuSans-Oblique-3b4"
                 d="M 3472 4053  Q 3197 4272 2450 4272  Q 1659 4272 1588 3906  Q 1531 3619 2328 3469  Q 2953 3353 3253 3003  Q 3616 2581 3447 1716  Q 3284 888 2763 400  Q 2238 -91 1488 -91  Q 741 -91 406 400  Q 72 888 241 1747  Q 363 2384 891 2900  Q 1097 3100 1353 3213  Q 913 3459 1000 3900  Q 1166 4750 2544 4750  Q 3234 4750 3566 4531  L 3472 4053  z M 1753 3056  Q 1525 2966 1306 2738  Q 969 2384 847 1747  Q 722 1113 919 756  Q 1119 397 1584 397  Q 2044 397 2381 759  Q 2722 1122 2838 1716  Q 2956 2338 2731 2638  Q 2491 2959 2103 2994  Q 1906 3013 1753 3056  z "
                 transform="scale(0.015625)" />
              <path
                 id="DejaVuSans-2c"
                 d="M 750 794  L 1409 794  L 1409 256  L 897 -744  L 494 -744  L 750 256  L 750 794  z "
                 transform="scale(0.015625)" />
              <path
                 id="DejaVuSans-67"
                 d="M 2906 1791  Q 2906 2416 2648 2759  Q 2391 3103 1925 3103  Q 1463 3103 1205 2759  Q 947 2416 947 1791  Q 947 1169 1205 825  Q 1463 481 1925 481  Q 2391 481 2648 825  Q 2906 1169 2906 1791  z M 3481 434  Q 3481 -459 3084 -895  Q 2688 -1331 1869 -1331  Q 1566 -1331 1297 -1286  Q 1028 -1241 775 -1147  L 775 -588  Q 1028 -725 1275 -790  Q 1522 -856 1778 -856  Q 2344 -856 2625 -561  Q 2906 -266 2906 331  L 2906 616  Q 2728 306 2450 153  Q 2172 0 1784 0  Q 1141 0 747 490  Q 353 981 353 1791  Q 353 2603 747 3093  Q 1141 3584 1784 3584  Q 2172 3584 2450 3431  Q 2728 3278 2906 2969  L 2906 3500  L 3481 3500  L 3481 434  z "
                 transform="scale(0.015625)" />
              <path
                 id="DejaVuSans-63"
                 d="M 3122 3366  L 3122 2828  Q 2878 2963 2633 3030  Q 2388 3097 2138 3097  Q 1578 3097 1268 2742  Q 959 2388 959 1747  Q 959 1106 1268 751  Q 1578 397 2138 397  Q 2388 397 2633 464  Q 2878 531 3122 666  L 3122 134  Q 2881 22 2623 -34  Q 2366 -91 2075 -91  Q 1284 -91 818 406  Q 353 903 353 1747  Q 353 2603 823 3093  Q 1294 3584 2113 3584  Q 2378 3584 2631 3529  Q 2884 3475 3122 3366  z "
                 transform="scale(0.015625)" />
            </defs>
            <use
               xlink:href="#DejaVuSans-20"
               transform="translate(266.796875 0.015625)"
               id="use77" />
            <use
               xlink:href="#DejaVuSans-Oblique-3b4"
               transform="translate(337.597656 0.015625)"
               id="use79" />
            <use
               xlink:href="#DejaVuSans-20"
               transform="translate(430.566406 0.015625)"
               id="use81" />
            <use
               xlink:href="#DejaVuSans-20"
               transform="translate(614.794922 0.015625)"
               id="use85" />
          </g>
        </g>
      </g>
      <g
         id="line2d_16">
        <path
           d="M 152.828771 238.62  L 151.115391 234.122041  L 149.402012 229.624082  L 147.688632 225.126122  L 145.975252 220.628163  L 144.261872 216.130204  L 142.548492 211.632245  L 140.835112 207.134286  L 139.121732 202.636327  L 137.408352 198.138367  L 135.694973 193.640408  L 133.981593 189.142449  L 132.268213 184.64449  L 130.554833 180.146531  L 128.841453 175.648571  L 127.128073 171.150612  L 125.414693 166.652653  L 123.701314 162.154694  L 121.971328 157.656735  L 120.206028 153.158776  L 118.440727 148.660816  L 116.675427 144.162857  L 114.910126 139.664898  L 113.144826 135.166939  L 111.379525 130.66898  L 109.614225 126.17102  L 107.848924 121.673061  L 106.083624 117.175102  L 104.318323 112.677143  L 102.553023 108.179184  L 100.787722 103.681224  L 99.022422 99.183265  L 97.243804 94.685306  L 95.423338 90.187347  L 93.602872 85.689388  L 91.782406 81.191429  L 89.96194 76.693469  L 88.141474 72.19551  L 86.321008 67.697551  L 84.500542 63.199592  L 82.648392 58.701633  L 80.769201 54.203673  L 78.89001 49.705714  L 77.010819 45.207755  L 75.118834 40.709796  L 73.177003 36.211837  L 71.235173 31.713878  L 69.247185 27.215918  L 67.225312 22.717959  L 65.125754 18.22  "
           clip-path="url(#p4007e2b802)"
           style="fill: none; stroke: #fd8c3b; stroke-opacity: 0.9; stroke-width: 1.2; stroke-linecap: square"
           id="path91" />
      </g>
      <g
         id="line2d_17">
        <path
           d="M 152.461287 238.62  L 150.796861 234.122041  L 149.132434 229.624082  L 147.468008 225.126122  L 145.803582 220.628163  L 144.139156 216.130204  L 142.47473 211.632245  L 140.810304 207.134286  L 139.145878 202.636327  L 137.481451 198.138367  L 135.817025 193.640408  L 134.152599 189.142449  L 132.488173 184.64449  L 130.813127 180.146531  L 129.099747 175.648571  L 127.386367 171.150612  L 125.672987 166.652653  L 123.959607 162.154694  L 122.246228 157.656735  L 120.532848 153.158776  L 118.819468 148.660816  L 117.106088 144.162857  L 115.392708 139.664898  L 113.679328 135.166939  L 111.965948 130.66898  L 110.252568 126.17102  L 108.539189 121.673061  L 106.825809 117.175102  L 105.070126 112.677143  L 103.304826 108.179184  L 101.539525 103.681224  L 99.774225 99.183265  L 98.008924 94.685306  L 96.243624 90.187347  L 94.478323 85.689388  L 92.713023 81.191429  L 90.928823 76.693469  L 89.108357 72.19551  L 87.287891 67.697551  L 85.467425 63.199592  L 83.646959 58.701633  L 81.812938 54.203673  L 79.933747 49.705714  L 78.054556 45.207755  L 76.171395 40.709796  L 74.229564 36.211837  L 72.284735 31.713878  L 70.275944 27.215918  L 68.215543 22.717959  L 66.05584 18.22  "
           clip-path="url(#p4007e2b802)"
           style="fill: none; stroke: #e95e0d; stroke-opacity: 0.9; stroke-width: 1.2; stroke-linecap: square"
           id="path92" />
      </g>
      <g
         id="line2d_18">
        <path
           d="M 151.873848 238.62  L 150.299391 234.122041  L 148.724934 229.624082  L 147.150477 225.126122  L 145.57602 220.628163  L 144.001563 216.130204  L 142.394272 211.632245  L 140.77608 207.134286  L 139.157888 202.636327  L 137.539696 198.138367  L 135.921504 193.640408  L 134.303312 189.142449  L 132.68512 184.64449  L 131.066927 180.146531  L 129.448735 175.648571  L 127.830543 171.150612  L 126.212351 166.652653  L 124.594159 162.154694  L 122.975967 157.656735  L 121.357775 153.158776  L 119.734869 148.660816  L 118.070443 144.162857  L 116.406016 139.664898  L 114.74159 135.166939  L 113.077164 130.66898  L 111.412738 126.17102  L 109.748312 121.673061  L 108.083886 117.175102  L 106.419459 112.677143  L 104.755033 108.179184  L 103.053517 103.681224  L 101.340137 99.183265  L 99.626757 94.685306  L 97.913377 90.187347  L 96.199998 85.689388  L 94.486618 81.191429  L 92.738837 76.693469  L 90.973536 72.19551  L 89.208236 67.697551  L 87.442935 63.199592  L 85.644896 58.701633  L 83.82443 54.203673  L 82.003964 49.705714  L 80.135896 45.207755  L 78.256705 40.709796  L 76.323691 36.211837  L 74.351364 31.713878  L 72.312526 27.215918  L 70.181393 22.717959  L 67.879711 18.22  "
           clip-path="url(#p4007e2b802)"
           style="fill: none; stroke: #b63c02; stroke-opacity: 0.9; stroke-width: 1.2; stroke-linecap: square"
           id="path93" />
      </g>
      <g
         id="line2d_19">
        <path
           d="M 150.854879 238.62  L 149.398506 234.122041  L 147.942133 229.624082  L 146.48576 225.126122  L 145.029387 220.628163  L 143.573014 216.130204  L 142.116642 211.632245  L 140.660269 207.134286  L 139.203896 202.636327  L 137.747523 198.138367  L 136.265788 193.640408  L 134.772072 189.142449  L 133.278356 184.64449  L 131.784641 180.146531  L 130.290925 175.648571  L 128.797209 171.150612  L 127.303493 166.652653  L 125.809777 162.154694  L 124.316062 157.656735  L 122.822346 153.158776  L 121.290384 148.660816  L 119.75736 144.162857  L 118.224336 139.664898  L 116.691312 135.166939  L 115.158288 130.66898  L 113.625264 126.17102  L 112.089637 121.673061  L 110.51518 117.175102  L 108.940723 112.677143  L 107.366265 108.179184  L 105.791808 103.681224  L 104.215386 99.183265  L 102.597194 94.685306  L 100.979002 90.187347  L 99.36081 85.689388  L 97.727492 81.191429  L 96.063066 76.693469  L 94.39864 72.19551  L 92.708932 67.697551  L 90.995553 63.199592  L 89.264084 58.701633  L 87.498783 54.203673  L 85.698016 49.705714  L 83.861362 45.207755  L 81.972178 40.709796  L 80.014752 36.211837  L 77.973571 31.713878  L 75.815806 27.215918  L 73.489023 22.717959  L 70.898276 18.22  "
           clip-path="url(#p4007e2b802)"
           style="fill: none; stroke: #7f2704; stroke-opacity: 0.9; stroke-width: 1.2; stroke-linecap: square"
           id="path94" />
      </g>
      <g
         id="line2d_20">
        <path
           d="M 402.040837 238.62  L 397.559689 234.122041  L 393.078542 229.624082  L 388.597395 225.126122  L 384.116247 220.628163  L 379.6351 216.130204  L 375.153953 211.632245  L 370.672805 207.134286  L 366.191658 202.636327  L 361.710511 198.138367  L 357.229363 193.640408  L 352.748216 189.142449  L 348.007718 184.64449  L 343.153142 180.146531  L 338.298566 175.648571  L 333.443989 171.150612  L 328.589413 166.652653  L 323.734837 162.154694  L 318.88026 157.656735  L 314.025684 153.158776  L 309.171108 148.660816  L 304.316532 144.162857  L 299.461955 139.664898  L 294.607379 135.166939  L 289.573183 130.66898  L 284.277282 126.17102  L 278.981381 121.673061  L 273.685479 117.175102  L 268.389578 112.677143  L 263.093676 108.179184  L 257.797775 103.681224  L 252.501874 99.183265  L 247.205972 94.685306  L 241.455274 90.187347  L 235.629782 85.689388  L 229.804291 81.191429  L 223.978799 76.693469  L 218.153307 72.19551  L 212.327816 67.697551  L 205.96334 63.199592  L 199.490571 58.701633  L 193.017803 54.203673  L 186.545035 49.705714  L 179.638087 45.207755  L 172.356222 40.709796  L 165.074358 36.211837  L 157.327654 31.713878  L 149.005523 27.215918  L 140.389892 22.717959  L 130.680739 18.22  "
           clip-path="url(#p4007e2b802)"
           style="fill: none; stroke: #6aaed6; stroke-opacity: 0.9; stroke-width: 1.2; stroke-linecap: square"
           id="path95" />
      </g>
      <g
         id="line2d_21">
        <path
           d="M 400.473758 238.62  L 396.312692 234.122041  L 392.151627 229.624082  L 387.990562 225.126122  L 383.829496 220.628163  L 379.503543 216.130204  L 375.022395 211.632245  L 370.541248 207.134286  L 366.0601 202.636327  L 361.578953 198.138367  L 357.097806 193.640408  L 352.616658 189.142449  L 348.135511 184.64449  L 343.654364 180.146531  L 339.173216 175.648571  L 334.692069 171.150612  L 330.210922 166.652653  L 325.729774 162.154694  L 321.071195 157.656735  L 316.216619 153.158776  L 311.362042 148.660816  L 306.507466 144.162857  L 301.65289 139.664898  L 296.798313 135.166939  L 291.943737 130.66898  L 287.089161 126.17102  L 282.234584 121.673061  L 277.363074 117.175102  L 272.067172 112.677143  L 266.771271 108.179184  L 261.47537 103.681224  L 256.179468 99.183265  L 250.883567 94.685306  L 245.587665 90.187347  L 240.221433 85.689388  L 234.395941 81.191429  L 228.570449 76.693469  L 222.744958 72.19551  L 216.919466 67.697551  L 211.073349 63.199592  L 204.600581 58.701633  L 198.127813 54.203673  L 191.655044 49.705714  L 184.991034 45.207755  L 177.709169 40.709796  L 170.427305 36.211837  L 162.730804 31.713878  L 154.408673 27.215918  L 145.707962 22.717959  L 135.99881 18.22  "
           clip-path="url(#p4007e2b802)"
           style="fill: none; stroke: #3787c0; stroke-opacity: 0.9; stroke-width: 1.2; stroke-linecap: square"
           id="path96" />
      </g>
      <g
         id="line2d_22">
        <path
           d="M 398.749584 238.62  L 394.865923 234.122041  L 390.840842 229.624082  L 386.679777 225.126122  L 382.518711 220.628163  L 378.357646 216.130204  L 374.196581 211.632245  L 370.035515 207.134286  L 365.87445 202.636327  L 361.713384 198.138367  L 357.552319 193.640408  L 353.391254 189.142449  L 349.230188 184.64449  L 345.069123 180.146531  L 340.790205 175.648571  L 336.309058 171.150612  L 331.82791 166.652653  L 327.346763 162.154694  L 322.865616 157.656735  L 318.384468 153.158776  L 313.903321 148.660816  L 309.422174 144.162857  L 304.941026 139.664898  L 300.415466 135.166939  L 295.56089 130.66898  L 290.706313 126.17102  L 285.851737 121.673061  L 280.997161 117.175102  L 276.142584 112.677143  L 271.288008 108.179184  L 266.426406 103.681224  L 261.130504 99.183265  L 255.834603 94.685306  L 250.538701 90.187347  L 245.2428 85.689388  L 239.946899 81.191429  L 234.372836 76.693469  L 228.547344 72.19551  L 222.721853 67.697551  L 216.896361 63.199592  L 210.90229 58.701633  L 204.429521 54.203673  L 197.956753 49.705714  L 191.483984 45.207755  L 184.251776 40.709796  L 176.969911 36.211837  L 169.32366 31.713878  L 161.001529 27.215918  L 152.209938 22.717959  L 142.500785 18.22  "
           clip-path="url(#p4007e2b802)"
           style="fill: none; stroke: #105ba4; stroke-opacity: 0.9; stroke-width: 1.2; stroke-linecap: square"
           id="path97" />
      </g>
      <g
         id="line2d_23">
        <path
           d="M 395.992245 238.62  L 392.351313 234.122041  L 388.710381 229.624082  L 384.948089 225.126122  L 381.064428 220.628163  L 377.180767 216.130204  L 373.297106 211.632245  L 369.413445 207.134286  L 365.529784 202.636327  L 361.646123 198.138367  L 357.762462 193.640408  L 353.878801 189.142449  L 349.99514 184.64449  L 345.97555 180.146531  L 341.814485 175.648571  L 337.653419 171.150612  L 333.492354 166.652653  L 329.331289 162.154694  L 325.170223 157.656735  L 321.009158 153.158776  L 316.848092 148.660816  L 312.560362 144.162857  L 308.079215 139.664898  L 303.598067 135.166939  L 299.11692 130.66898  L 294.635773 126.17102  L 290.154625 121.673061  L 285.673478 117.175102  L 280.884996 112.677143  L 276.03042 108.179184  L 271.175843 103.681224  L 266.321267 99.183265  L 261.466691 94.685306  L 256.404737 90.187347  L 251.108836 85.689388  L 245.812934 81.191429  L 240.517033 76.693469  L 235.166557 72.19551  L 229.341066 67.697551  L 223.515574 63.199592  L 217.690083 58.701633  L 211.514709 54.203673  L 205.041941 49.705714  L 198.569172 45.207755  L 191.57914 40.709796  L 184.297275 36.211837  L 176.718055 31.713878  L 168.395924 27.215918  L 159.533824 22.717959  L 149.824671 18.22  "
           clip-path="url(#p4007e2b802)"
           style="fill: none; stroke: #08306b; stroke-opacity: 0.9; stroke-width: 1.2; stroke-linecap: square"
           id="path98" />
      </g>
      <g
         id="line2d_24">
        <path
           d="M 48.28 204.712308  L 418.886591 204.712308  "
           clip-path="url(#p4007e2b802)"
           style="fill: none; stroke-dasharray: 4.44,1.92; stroke-dashoffset: 0; stroke: #ff0000; stroke-width: 1.2"
           id="path99" />
      </g>
      <g
         id="line2d_25">
        <path
           d="M 139.916209 249.64  L 139.916209 7.2  "
           clip-path="url(#p4007e2b802)"
           style="fill: none; stroke-dasharray: 1.2,1.98; stroke-dashoffset: 0; stroke: #ff0000; stroke-width: 1.2"
           id="path100" />
      </g>
      <g
         id="line2d_26">
        <path
           d="M 368.781986 249.64  L 368.781986 7.2  "
           clip-path="url(#p4007e2b802)"
           style="fill: none; stroke-dasharray: 1.2,1.98; stroke-dashoffset: 0; stroke: #ff0000; stroke-width: 1.2"
           id="path101" />
      </g>
      <g
         id="patch_3">
        <path
           d="M 48.28 249.64  L 48.28 7.2  "
           style="fill: none; stroke: #000000; stroke-width: 0.6; stroke-linejoin: miter; stroke-linecap: square"
           id="path102" />
      </g>
      <g
         id="patch_4">
        <path
           d="M 418.886591 249.64  L 418.886591 7.2  "
           style="fill: none; stroke: #000000; stroke-width: 0.6; stroke-linejoin: miter; stroke-linecap: square"
           id="path103" />
      </g>
      <g
         id="patch_5">
        <path
           d="M 48.28 249.64  L 418.886591 249.64  "
           style="fill: none; stroke: #000000; stroke-width: 0.6; stroke-linejoin: miter; stroke-linecap: square"
           id="path104" />
      </g>
      <g
         id="patch_6">
        <path
           d="M 48.28 7.2  L 418.886591 7.2  "
           style="fill: none; stroke: #000000; stroke-width: 0.6; stroke-linejoin: miter; stroke-linecap: square"
           id="path105" />
      </g>
      <g
         id="legend_1">
        <g
           id="patch_7">
          <path
             d="M 269.926591 84.0875  L 413.286591 84.0875  Q 414.886591 84.0875 414.886591 82.4875  L 414.886591 12.8  Q 414.886591 11.2 413.286591 11.2  L 269.926591 11.2  Q 268.326591 11.2 268.326591 12.8  L 268.326591 82.4875  Q 268.326591 84.0875 269.926591 84.0875  z "
             style="fill: #ffffff; opacity: 0.8; stroke: #cccccc; stroke-linejoin: miter"
             id="path106" />
        </g>
        <g
           id="line2d_27">
          <path
             d="M 271.526591 17.67875  L 279.526591 17.67875  L 287.526591 17.67875  "
             style="fill: none; stroke: #fd8c3b; stroke-opacity: 0.9; stroke-width: 1.2; stroke-linecap: square"
             id="path107" />
        </g>
        <g
           id="text_18">
          <!-- $\mathbf{20\%}$/80% -->
          <g
             transform="translate(293.926591 20.47875) scale(0.08 -0.08)"
             id="g113">
            <defs
               id="defs107">
              <path
                 id="DejaVuSans-Bold-32"
                 d="M 1844 884  L 3897 884  L 3897 0  L 506 0  L 506 884  L 2209 2388  Q 2438 2594 2547 2791  Q 2656 2988 2656 3200  Q 2656 3528 2436 3728  Q 2216 3928 1850 3928  Q 1569 3928 1234 3808  Q 900 3688 519 3450  L 519 4475  Q 925 4609 1322 4679  Q 1719 4750 2100 4750  Q 2938 4750 3402 4381  Q 3866 4013 3866 3353  Q 3866 2972 3669 2642  Q 3472 2313 2841 1759  L 1844 884  z "
                 transform="scale(0.015625)" />
              <path
                 id="DejaVuSans-Bold-30"
                 d="M 2944 2338  Q 2944 3213 2780 3570  Q 2616 3928 2228 3928  Q 1841 3928 1675 3570  Q 1509 3213 1509 2338  Q 1509 1453 1675 1090  Q 1841 728 2228 728  Q 2613 728 2778 1090  Q 2944 1453 2944 2338  z M 4147 2328  Q 4147 1169 3647 539  Q 3147 -91 2228 -91  Q 1306 -91 806 539  Q 306 1169 306 2328  Q 306 3491 806 4120  Q 1306 4750 2228 4750  Q 3147 4750 3647 4120  Q 4147 3491 4147 2328  z "
                 transform="scale(0.015625)" />
              <path
                 id="DejaVuSans-Bold-25"
                 d="M 4959 1925  Q 4738 1925 4616 1733  Q 4494 1541 4494 1184  Q 4494 825 4614 633  Q 4734 441 4959 441  Q 5184 441 5303 633  Q 5422 825 5422 1184  Q 5422 1541 5301 1733  Q 5181 1925 4959 1925  z M 4959 2450  Q 5541 2450 5875 2112  Q 6209 1775 6209 1184  Q 6209 594 5875 251  Q 5541 -91 4959 -91  Q 4378 -91 4042 251  Q 3706 594 3706 1184  Q 3706 1772 4042 2111  Q 4378 2450 4959 2450  z M 2094 -91  L 1403 -91  L 4319 4750  L 5013 4750  L 2094 -91  z M 1453 4750  Q 2034 4750 2367 4411  Q 2700 4072 2700 3481  Q 2700 2891 2367 2550  Q 2034 2209 1453 2209  Q 872 2209 539 2550  Q 206 2891 206 3481  Q 206 4072 539 4411  Q 872 4750 1453 4750  z M 1453 4225  Q 1228 4225 1106 4031  Q 984 3838 984 3481  Q 984 3122 1106 2926  Q 1228 2731 1453 2731  Q 1678 2731 1798 2926  Q 1919 3122 1919 3481  Q 1919 3838 1797 4031  Q 1675 4225 1453 4225  z "
                 transform="scale(0.015625)" />
              <path
                 id="DejaVuSans-2f"
                 d="M 1625 4666  L 2156 4666  L 531 -594  L 0 -594  L 1625 4666  z "
                 transform="scale(0.015625)" />
              <path
                 id="DejaVuSans-38"
                 d="M 2034 2216  Q 1584 2216 1326 1975  Q 1069 1734 1069 1313  Q 1069 891 1326 650  Q 1584 409 2034 409  Q 2484 409 2743 651  Q 3003 894 3003 1313  Q 3003 1734 2745 1975  Q 2488 2216 2034 2216  z M 1403 2484  Q 997 2584 770 2862  Q 544 3141 544 3541  Q 544 4100 942 4425  Q 1341 4750 2034 4750  Q 2731 4750 3128 4425  Q 3525 4100 3525 3541  Q 3525 3141 3298 2862  Q 3072 2584 2669 2484  Q 3125 2378 3379 2068  Q 3634 1759 3634 1313  Q 3634 634 3220 271  Q 2806 -91 2034 -91  Q 1263 -91 848 271  Q 434 634 434 1313  Q 434 1759 690 2068  Q 947 2378 1403 2484  z M 1172 3481  Q 1172 3119 1398 2916  Q 1625 2713 2034 2713  Q 2441 2713 2670 2916  Q 2900 3119 2900 3481  Q 2900 3844 2670 4047  Q 2441 4250 2034 4250  Q 1625 4250 1398 4047  Q 1172 3844 1172 3481  z "
                 transform="scale(0.015625)" />
              <path
                 id="DejaVuSans-25"
                 d="M 4653 2053  Q 4381 2053 4226 1822  Q 4072 1591 4072 1178  Q 4072 772 4226 539  Q 4381 306 4653 306  Q 4919 306 5073 539  Q 5228 772 5228 1178  Q 5228 1588 5073 1820  Q 4919 2053 4653 2053  z M 4653 2450  Q 5147 2450 5437 2106  Q 5728 1763 5728 1178  Q 5728 594 5436 251  Q 5144 -91 4653 -91  Q 4153 -91 3862 251  Q 3572 594 3572 1178  Q 3572 1766 3864 2108  Q 4156 2450 4653 2450  z M 1428 4353  Q 1159 4353 1004 4120  Q 850 3888 850 3481  Q 850 3069 1003 2837  Q 1156 2606 1428 2606  Q 1700 2606 1854 2837  Q 2009 3069 2009 3481  Q 2009 3884 1853 4118  Q 1697 4353 1428 4353  z M 4250 4750  L 4750 4750  L 1831 -91  L 1331 -91  L 4250 4750  z M 1428 4750  Q 1922 4750 2215 4408  Q 2509 4066 2509 3481  Q 2509 2891 2217 2550  Q 1925 2209 1428 2209  Q 931 2209 642 2551  Q 353 2894 353 3481  Q 353 4063 643 4406  Q 934 4750 1428 4750  z "
                 transform="scale(0.015625)" />
            </defs>
            <use
               xlink:href="#DejaVuSans-Bold-32"
               transform="translate(0 0.78125)"
               id="use107" />
            <use
               xlink:href="#DejaVuSans-Bold-30"
               transform="translate(69.580078 0.78125)"
               id="use108" />
            <use
               xlink:href="#DejaVuSans-Bold-25"
               transform="translate(139.160156 0.78125)"
               id="use109" />
            <use
               xlink:href="#DejaVuSans-2f"
               transform="translate(239.355469 0.78125)"
               id="use110" />
            <use
               xlink:href="#DejaVuSans-38"
               transform="translate(268.046875 0.78125)"
               id="use111" />
            <use
               xlink:href="#DejaVuSans-30"
               transform="translate(331.669922 0.78125)"
               id="use112" />
            <use
               xlink:href="#DejaVuSans-25"
               transform="translate(395.292969 0.78125)"
               id="use113" />
          </g>
        </g>
        <g
           id="line2d_28">
          <path
             d="M 271.526591 29.42125  L 279.526591 29.42125  L 287.526591 29.42125  "
             style="fill: none; stroke: #e95e0d; stroke-opacity: 0.9; stroke-width: 1.2; stroke-linecap: square"
             id="path113" />
        </g>
        <g
           id="text_19">
          <!-- $\mathbf{40\%}$/60% -->
          <g
             transform="translate(293.926591 32.22125) scale(0.08 -0.08)"
             id="g120">
            <defs
               id="defs113">
              <path
                 id="DejaVuSans-Bold-34"
                 d="M 2356 3675  L 1038 1722  L 2356 1722  L 2356 3675  z M 2156 4666  L 3494 4666  L 3494 1722  L 4159 1722  L 4159 850  L 3494 850  L 3494 0  L 2356 0  L 2356 850  L 288 850  L 288 1881  L 2156 4666  z "
                 transform="scale(0.015625)" />
              <path
                 id="DejaVuSans-36"
                 d="M 2113 2584  Q 1688 2584 1439 2293  Q 1191 2003 1191 1497  Q 1191 994 1439 701  Q 1688 409 2113 409  Q 2538 409 2786 701  Q 3034 994 3034 1497  Q 3034 2003 2786 2293  Q 2538 2584 2113 2584  z M 3366 4563  L 3366 3988  Q 3128 4100 2886 4159  Q 2644 4219 2406 4219  Q 1781 4219 1451 3797  Q 1122 3375 1075 2522  Q 1259 2794 1537 2939  Q 1816 3084 2150 3084  Q 2853 3084 3261 2657  Q 3669 2231 3669 1497  Q 3669 778 3244 343  Q 2819 -91 2113 -91  Q 1303 -91 875 529  Q 447 1150 447 2328  Q 447 3434 972 4092  Q 1497 4750 2381 4750  Q 2619 4750 2861 4703  Q 3103 4656 3366 4563  z "
                 transform="scale(0.015625)" />
            </defs>
            <use
               xlink:href="#DejaVuSans-Bold-34"
               transform="translate(0 0.78125)"
               id="use114" />
            <use
               xlink:href="#DejaVuSans-Bold-30"
               transform="translate(69.580078 0.78125)"
               id="use115" />
            <use
               xlink:href="#DejaVuSans-Bold-25"
               transform="translate(139.160156 0.78125)"
               id="use116" />
            <use
               xlink:href="#DejaVuSans-2f"
               transform="translate(239.355469 0.78125)"
               id="use117" />
            <use
               xlink:href="#DejaVuSans-36"
               transform="translate(273.046875 0.78125)"
               id="use118" />
            <use
               xlink:href="#DejaVuSans-30"
               transform="translate(336.669922 0.78125)"
               id="use119" />
            <use
               xlink:href="#DejaVuSans-25"
               transform="translate(400.292969 0.78125)"
               id="use120" />
          </g>
        </g>
        <g
           id="line2d_29">
          <path
             d="M 271.526591 41.16375  L 279.526591 41.16375  L 287.526591 41.16375  "
             style="fill: none; stroke: #b63c02; stroke-opacity: 0.9; stroke-width: 1.2; stroke-linecap: square"
             id="path120" />
        </g>
        <g
           id="text_20">
          <!-- $\mathbf{60\%}$/40% -->
          <g
             transform="translate(293.926591 43.96375) scale(0.08 -0.08)"
             id="g127">
            <defs
               id="defs120">
              <path
                 id="DejaVuSans-Bold-36"
                 d="M 2316 2303  Q 2000 2303 1842 2098  Q 1684 1894 1684 1484  Q 1684 1075 1842 870  Q 2000 666 2316 666  Q 2634 666 2792 870  Q 2950 1075 2950 1484  Q 2950 1894 2792 2098  Q 2634 2303 2316 2303  z M 3803 4544  L 3803 3681  Q 3506 3822 3243 3889  Q 2981 3956 2731 3956  Q 2194 3956 1894 3657  Q 1594 3359 1544 2772  Q 1750 2925 1990 3001  Q 2231 3078 2516 3078  Q 3231 3078 3670 2659  Q 4109 2241 4109 1563  Q 4109 813 3618 361  Q 3128 -91 2303 -91  Q 1394 -91 895 523  Q 397 1138 397 2266  Q 397 3422 980 4083  Q 1563 4744 2578 4744  Q 2900 4744 3203 4694  Q 3506 4644 3803 4544  z "
                 transform="scale(0.015625)" />
              <path
                 id="DejaVuSans-34"
                 d="M 2419 4116  L 825 1625  L 2419 1625  L 2419 4116  z M 2253 4666  L 3047 4666  L 3047 1625  L 3713 1625  L 3713 1100  L 3047 1100  L 3047 0  L 2419 0  L 2419 1100  L 313 1100  L 313 1709  L 2253 4666  z "
                 transform="scale(0.015625)" />
            </defs>
            <use
               xlink:href="#DejaVuSans-Bold-36"
               transform="translate(0 0.78125)"
               id="use121" />
            <use
               xlink:href="#DejaVuSans-Bold-30"
               transform="translate(69.580078 0.78125)"
               id="use122" />
            <use
               xlink:href="#DejaVuSans-Bold-25"
               transform="translate(139.160156 0.78125)"
               id="use123" />
            <use
               xlink:href="#DejaVuSans-2f"
               transform="translate(239.355469 0.78125)"
               id="use124" />
            <use
               xlink:href="#DejaVuSans-34"
               transform="translate(273.046875 0.78125)"
               id="use125" />
            <use
               xlink:href="#DejaVuSans-30"
               transform="translate(336.669922 0.78125)"
               id="use126" />
            <use
               xlink:href="#DejaVuSans-25"
               transform="translate(400.292969 0.78125)"
               id="use127" />
          </g>
        </g>
        <g
           id="line2d_30">
          <path
             d="M 271.526591 52.90625  L 279.526591 52.90625  L 287.526591 52.90625  "
             style="fill: none; stroke: #7f2704; stroke-opacity: 0.9; stroke-width: 1.2; stroke-linecap: square"
             id="path127" />
        </g>
        <g
           id="text_21">
          <!-- $\mathbf{80\%}$/20% -->
          <g
             transform="translate(293.926591 55.70625) scale(0.08 -0.08)"
             id="g134">
            <defs
               id="defs127">
              <path
                 id="DejaVuSans-Bold-38"
                 d="M 2228 2088  Q 1891 2088 1709 1903  Q 1528 1719 1528 1375  Q 1528 1031 1709 848  Q 1891 666 2228 666  Q 2563 666 2741 848  Q 2919 1031 2919 1375  Q 2919 1722 2741 1905  Q 2563 2088 2228 2088  z M 1350 2484  Q 925 2613 709 2878  Q 494 3144 494 3541  Q 494 4131 934 4440  Q 1375 4750 2228 4750  Q 3075 4750 3515 4442  Q 3956 4134 3956 3541  Q 3956 3144 3739 2878  Q 3522 2613 3097 2484  Q 3572 2353 3814 2058  Q 4056 1763 4056 1313  Q 4056 619 3595 264  Q 3134 -91 2228 -91  Q 1319 -91 855 264  Q 391 619 391 1313  Q 391 1763 633 2058  Q 875 2353 1350 2484  z M 1631 3419  Q 1631 3141 1786 2991  Q 1941 2841 2228 2841  Q 2509 2841 2662 2991  Q 2816 3141 2816 3419  Q 2816 3697 2662 3845  Q 2509 3994 2228 3994  Q 1941 3994 1786 3844  Q 1631 3694 1631 3419  z "
                 transform="scale(0.015625)" />
            </defs>
            <use
               xlink:href="#DejaVuSans-Bold-38"
               transform="translate(0 0.78125)"
               id="use128" />
            <use
               xlink:href="#DejaVuSans-Bold-30"
               transform="translate(69.580078 0.78125)"
               id="use129" />
            <use
               xlink:href="#DejaVuSans-Bold-25"
               transform="translate(139.160156 0.78125)"
               id="use130" />
            <use
               xlink:href="#DejaVuSans-2f"
               transform="translate(239.355469 0.78125)"
               id="use131" />
            <use
               xlink:href="#DejaVuSans-32"
               transform="translate(269.421875 0.78125)"
               id="use132" />
            <use
               xlink:href="#DejaVuSans-30"
               transform="translate(333.044922 0.78125)"
               id="use133" />
            <use
               xlink:href="#DejaVuSans-25"
               transform="translate(396.667969 0.78125)"
               id="use134" />
          </g>
        </g>
        <g
           id="line2d_31">
          <path
             d="M 271.526591 64.64875  L 279.526591 64.64875  L 287.526591 64.64875  "
             style="fill: none; stroke-dasharray: 4.44,1.92; stroke-dashoffset: 0; stroke: #ff0000; stroke-width: 1.2"
             id="path134" />
        </g>
        <g
           id="text_22">
          <!-- Target $\delta$ -->
          <g
             transform="translate(293.926591 67.44875) scale(0.08 -0.08)"
             id="g142">
            <defs
               id="defs134">
              <path
                 id="DejaVuSans-54"
                 d="M -19 4666  L 3928 4666  L 3928 4134  L 2272 4134  L 2272 0  L 1638 0  L 1638 4134  L -19 4134  L -19 4666  z "
                 transform="scale(0.015625)" />
              <path
                 id="DejaVuSans-72"
                 d="M 2631 2963  Q 2534 3019 2420 3045  Q 2306 3072 2169 3072  Q 1681 3072 1420 2755  Q 1159 2438 1159 1844  L 1159 0  L 581 0  L 581 3500  L 1159 3500  L 1159 2956  Q 1341 3275 1631 3429  Q 1922 3584 2338 3584  Q 2397 3584 2469 3576  Q 2541 3569 2628 3553  L 2631 2963  z "
                 transform="scale(0.015625)" />
            </defs>
            <use
               xlink:href="#DejaVuSans-54"
               transform="translate(0 0.78125)"
               id="use135" />
            <use
               xlink:href="#DejaVuSans-61"
               transform="translate(61.083984 0.78125)"
               id="use136" />
            <use
               xlink:href="#DejaVuSans-72"
               transform="translate(122.363281 0.78125)"
               id="use137" />
            <use
               xlink:href="#DejaVuSans-67"
               transform="translate(163.476562 0.78125)"
               id="use138" />
            <use
               xlink:href="#DejaVuSans-65"
               transform="translate(226.953125 0.78125)"
               id="use139" />
            <use
               xlink:href="#DejaVuSans-74"
               transform="translate(288.476562 0.78125)"
               id="use140" />
            <use
               xlink:href="#DejaVuSans-20"
               transform="translate(327.685547 0.78125)"
               id="use141" />
            <use
               xlink:href="#DejaVuSans-Oblique-3b4"
               transform="translate(359.472656 0.78125)"
               id="use142" />
          </g>
        </g>
        <g
           id="line2d_32">
          <path
             d="M 271.526591 76.4075  L 279.526591 76.4075  L 287.526591 76.4075  "
             style="fill: none; stroke-dasharray: 1.2,1.98; stroke-dashoffset: 0; stroke: #ff0000; stroke-width: 1.2"
             id="path142" />
        </g>
        <g
           id="text_23">
          <!-- Target $\epsilon$ -->
          <g
             transform="translate(293.926591 79.2075) scale(0.08 -0.08)"
             id="g150">
            <use
               xlink:href="#DejaVuSans-54"
               transform="translate(0 0.09375)"
               id="use143" />
            <use
               xlink:href="#DejaVuSans-61"
               transform="translate(61.083984 0.09375)"
               id="use144" />
            <use
               xlink:href="#DejaVuSans-72"
               transform="translate(122.363281 0.09375)"
               id="use145" />
            <use
               xlink:href="#DejaVuSans-67"
               transform="translate(163.476562 0.09375)"
               id="use146" />
            <use
               xlink:href="#DejaVuSans-65"
               transform="translate(226.953125 0.09375)"
               id="use147" />
            <use
               xlink:href="#DejaVuSans-74"
               transform="translate(288.476562 0.09375)"
               id="use148" />
            <use
               xlink:href="#DejaVuSans-20"
               transform="translate(327.685547 0.09375)"
               id="use149" />
            <use
               xlink:href="#DejaVuSans-Oblique-3b5"
               transform="translate(359.472656 0.09375)"
               id="use150" />
          </g>
        </g>
        <g
           id="line2d_33">
          <path
             d="M 349.606591 17.67875  L 357.606591 17.67875  L 365.606591 17.67875  "
             style="fill: none; stroke: #6aaed6; stroke-opacity: 0.9; stroke-width: 1.2; stroke-linecap: square"
             id="path150" />
        </g>
        <g
           id="text_24">
          <!-- 20%/$\mathbf{80\%}$ -->
          <g
             transform="translate(372.006591 20.47875) scale(0.08 -0.08)"
             id="g157">
            <use
               xlink:href="#DejaVuSans-32"
               transform="translate(0 0.78125)"
               id="use151" />
            <use
               xlink:href="#DejaVuSans-30"
               transform="translate(63.623047 0.78125)"
               id="use152" />
            <use
               xlink:href="#DejaVuSans-25"
               transform="translate(127.246094 0.78125)"
               id="use153" />
            <use
               xlink:href="#DejaVuSans-2f"
               transform="translate(222.265625 0.78125)"
               id="use154" />
            <use
               xlink:href="#DejaVuSans-Bold-38"
               transform="translate(255.957031 0.78125)"
               id="use155" />
            <use
               xlink:href="#DejaVuSans-Bold-30"
               transform="translate(325.537109 0.78125)"
               id="use156" />
            <use
               xlink:href="#DejaVuSans-Bold-25"
               transform="translate(395.117188 0.78125)"
               id="use157" />
          </g>
        </g>
        <g
           id="line2d_34">
          <path
             d="M 349.606591 29.42125  L 357.606591 29.42125  L 365.606591 29.42125  "
             style="fill: none; stroke: #3787c0; stroke-opacity: 0.9; stroke-width: 1.2; stroke-linecap: square"
             id="path157" />
        </g>
        <g
           id="text_25">
          <!-- 40%/$\mathbf{60\%}$ -->
          <g
             transform="translate(372.006591 32.22125) scale(0.08 -0.08)"
             id="g164">
            <use
               xlink:href="#DejaVuSans-34"
               transform="translate(0 0.78125)"
               id="use158" />
            <use
               xlink:href="#DejaVuSans-30"
               transform="translate(63.623047 0.78125)"
               id="use159" />
            <use
               xlink:href="#DejaVuSans-25"
               transform="translate(127.246094 0.78125)"
               id="use160" />
            <use
               xlink:href="#DejaVuSans-2f"
               transform="translate(222.265625 0.78125)"
               id="use161" />
            <use
               xlink:href="#DejaVuSans-Bold-36"
               transform="translate(255.957031 0.78125)"
               id="use162" />
            <use
               xlink:href="#DejaVuSans-Bold-30"
               transform="translate(325.537109 0.78125)"
               id="use163" />
            <use
               xlink:href="#DejaVuSans-Bold-25"
               transform="translate(395.117188 0.78125)"
               id="use164" />
          </g>
        </g>
        <g
           id="line2d_35">
          <path
             d="M 349.606591 41.16375  L 357.606591 41.16375  L 365.606591 41.16375  "
             style="fill: none; stroke: #105ba4; stroke-opacity: 0.9; stroke-width: 1.2; stroke-linecap: square"
             id="path164" />
        </g>
        <g
           id="text_26">
          <!-- 60%/$\mathbf{40\%}$ -->
          <g
             transform="translate(372.006591 43.96375) scale(0.08 -0.08)"
             id="g171">
            <use
               xlink:href="#DejaVuSans-36"
               transform="translate(0 0.78125)"
               id="use165" />
            <use
               xlink:href="#DejaVuSans-30"
               transform="translate(63.623047 0.78125)"
               id="use166" />
            <use
               xlink:href="#DejaVuSans-25"
               transform="translate(127.246094 0.78125)"
               id="use167" />
            <use
               xlink:href="#DejaVuSans-2f"
               transform="translate(222.265625 0.78125)"
               id="use168" />
            <use
               xlink:href="#DejaVuSans-Bold-34"
               transform="translate(255.957031 0.78125)"
               id="use169" />
            <use
               xlink:href="#DejaVuSans-Bold-30"
               transform="translate(325.537109 0.78125)"
               id="use170" />
            <use
               xlink:href="#DejaVuSans-Bold-25"
               transform="translate(395.117188 0.78125)"
               id="use171" />
          </g>
        </g>
        <g
           id="line2d_36">
          <path
             d="M 349.606591 52.90625  L 357.606591 52.90625  L 365.606591 52.90625  "
             style="fill: none; stroke: #08306b; stroke-opacity: 0.9; stroke-width: 1.2; stroke-linecap: square"
             id="path171" />
        </g>
        <g
           id="text_27">
          <!-- 80%/$\mathbf{20\%}$ -->
          <g
             transform="translate(372.006591 55.70625) scale(0.08 -0.08)"
             id="g178">
            <use
               xlink:href="#DejaVuSans-38"
               transform="translate(0 0.78125)"
               id="use172" />
            <use
               xlink:href="#DejaVuSans-30"
               transform="translate(63.623047 0.78125)"
               id="use173" />
            <use
               xlink:href="#DejaVuSans-25"
               transform="translate(127.246094 0.78125)"
               id="use174" />
            <use
               xlink:href="#DejaVuSans-2f"
               transform="translate(222.265625 0.78125)"
               id="use175" />
            <use
               xlink:href="#DejaVuSans-Bold-32"
               transform="translate(255.957031 0.78125)"
               id="use176" />
            <use
               xlink:href="#DejaVuSans-Bold-30"
               transform="translate(325.537109 0.78125)"
               id="use177" />
            <use
               xlink:href="#DejaVuSans-Bold-25"
               transform="translate(395.117188 0.78125)"
               id="use178" />
          </g>
        </g>
        <g
           id="line2d_37">
          <path
             d="M 349.606591 64.64875  L 357.606591 64.64875  L 365.606591 64.64875  "
             style="fill: none; stroke: #000000; stroke-opacity: 0; stroke-width: 1.2; stroke-linecap: square"
             id="path178" />
        </g>
        <g
           id="line2d_38">
          <path
             d="M 349.606591 76.39125  L 357.606591 76.39125  L 365.606591 76.39125  "
             style="fill: none; stroke: #000000; stroke-opacity: 0; stroke-width: 1.2; stroke-linecap: square"
             id="path179" />
        </g>
      </g>
    </g>
  </g>
  <defs
     id="defs179">
    <clipPath
       id="p4007e2b802">
      <rect
         x="48.28"
         y="7.2"
         width="370.606591"
         height="242.44"
         id="rect179" />
    </clipPath>
  </defs>
</svg>
