<?xml version="1.0" encoding="utf-8" standalone="no"?>
<!DOCTYPE svg PUBLIC "-//W3C//DTD SVG 1.1//EN"
  "http://www.w3.org/Graphics/SVG/1.1/DTD/svg11.dtd">
<svg xmlns:xlink="http://www.w3.org/1999/xlink" width="426.8225pt" height="570.851113pt" viewBox="0 0 426.8225 570.851113" xmlns="http://www.w3.org/2000/svg" version="1.1">
 <metadata>
  <rdf:RDF xmlns:dc="http://purl.org/dc/elements/1.1/" xmlns:cc="http://creativecommons.org/ns#" xmlns:rdf="http://www.w3.org/1999/02/22-rdf-syntax-ns#">
   <cc:Work>
    <dc:type rdf:resource="http://purl.org/dc/dcmitype/StillImage"/>
    <dc:date>2025-09-24T17:08:46.745393</dc:date>
    <dc:format>image/svg+xml</dc:format>
    <dc:creator>
     <cc:Agent>
      <dc:title>Matplotlib v3.10.3, https://matplotlib.org/</dc:title>
     </cc:Agent>
    </dc:creator>
   </cc:Work>
  </rdf:RDF>
 </metadata>
 <defs>
  <style type="text/css">*{stroke-linejoin: round; stroke-linecap: butt}</style>
 </defs>
 <g id="figure_1">
  <g id="patch_1">
   <path d="M 0 570.851113 
L 426.8225 570.851113 
L 426.8225 0 
L 0 0 
z
" style="fill: #ffffff"/>
  </g>
  <g id="axes_1">
   <g id="patch_2">
    <path d="M 38.7625 239.953823 
L 204.2975 239.953823 
L 204.2975 19.28 
L 38.7625 19.28 
z
" style="fill: #ffffff"/>
   </g>
   <g id="matplotlib.axis_1">
    <g id="xtick_1">
     <g id="line2d_1">
      <path d="M 46.286818 239.953823 
L 46.286818 19.28 
" clip-path="url(#p8002e2042a)" style="fill: none; stroke: #b0b0b0; stroke-width: 0.8; stroke-linecap: square"/>
     </g>
     <g id="line2d_2">
      <defs>
       <path id="mfd97124b67" d="M 0 0 
L 0 3.5 
" style="stroke: #000000; stroke-width: 0.6"/>
      </defs>
      <g>
       <use xlink:href="#mfd97124b67" x="46.286818" y="239.953823" style="stroke: #000000; stroke-width: 0.6"/>
      </g>
     </g>
     <g id="text_1">
      <!-- 0.0 -->
      <g transform="translate(39.925568 253.032573) scale(0.08 -0.08)">
       <defs>
        <path id="DejaVuSans-30" d="M 2034 4250 
Q 1547 4250 1301 3770 
Q 1056 3291 1056 2328 
Q 1056 1369 1301 889 
Q 1547 409 2034 409 
Q 2525 409 2770 889 
Q 3016 1369 3016 2328 
Q 3016 3291 2770 3770 
Q 2525 4250 2034 4250 
z
M 2034 4750 
Q 2819 4750 3233 4129 
Q 3647 3509 3647 2328 
Q 3647 1150 3233 529 
Q 2819 -91 2034 -91 
Q 1250 -91 836 529 
Q 422 1150 422 2328 
Q 422 3509 836 4129 
Q 1250 4750 2034 4750 
z
" transform="scale(0.015625)"/>
        <path id="DejaVuSans-2e" d="M 684 794 
L 1344 794 
L 1344 0 
L 684 0 
L 684 794 
z
" transform="scale(0.015625)"/>
       </defs>
       <use xlink:href="#DejaVuSans-30"/>
       <use xlink:href="#DejaVuSans-2e" transform="translate(63.623047 0)"/>
       <use xlink:href="#DejaVuSans-30" transform="translate(95.410156 0)"/>
      </g>
     </g>
    </g>
    <g id="xtick_2">
     <g id="line2d_3">
      <path d="M 76.384091 239.953823 
L 76.384091 19.28 
" clip-path="url(#p8002e2042a)" style="fill: none; stroke: #b0b0b0; stroke-width: 0.8; stroke-linecap: square"/>
     </g>
     <g id="line2d_4">
      <g>
       <use xlink:href="#mfd97124b67" x="76.384091" y="239.953823" style="stroke: #000000; stroke-width: 0.6"/>
      </g>
     </g>
     <g id="text_2">
      <!-- 0.2 -->
      <g transform="translate(70.022841 253.032573) scale(0.08 -0.08)">
       <defs>
        <path id="DejaVuSans-32" d="M 1228 531 
L 3431 531 
L 3431 0 
L 469 0 
L 469 531 
Q 828 903 1448 1529 
Q 2069 2156 2228 2338 
Q 2531 2678 2651 2914 
Q 2772 3150 2772 3378 
Q 2772 3750 2511 3984 
Q 2250 4219 1831 4219 
Q 1534 4219 1204 4116 
Q 875 4013 500 3803 
L 500 4441 
Q 881 4594 1212 4672 
Q 1544 4750 1819 4750 
Q 2544 4750 2975 4387 
Q 3406 4025 3406 3419 
Q 3406 3131 3298 2873 
Q 3191 2616 2906 2266 
Q 2828 2175 2409 1742 
Q 1991 1309 1228 531 
z
" transform="scale(0.015625)"/>
       </defs>
       <use xlink:href="#DejaVuSans-30"/>
       <use xlink:href="#DejaVuSans-2e" transform="translate(63.623047 0)"/>
       <use xlink:href="#DejaVuSans-32" transform="translate(95.410156 0)"/>
      </g>
     </g>
    </g>
    <g id="xtick_3">
     <g id="line2d_5">
      <path d="M 106.481364 239.953823 
L 106.481364 19.28 
" clip-path="url(#p8002e2042a)" style="fill: none; stroke: #b0b0b0; stroke-width: 0.8; stroke-linecap: square"/>
     </g>
     <g id="line2d_6">
      <g>
       <use xlink:href="#mfd97124b67" x="106.481364" y="239.953823" style="stroke: #000000; stroke-width: 0.6"/>
      </g>
     </g>
     <g id="text_3">
      <!-- 0.4 -->
      <g transform="translate(100.120114 253.032573) scale(0.08 -0.08)">
       <defs>
        <path id="DejaVuSans-34" d="M 2419 4116 
L 825 1625 
L 2419 1625 
L 2419 4116 
z
M 2253 4666 
L 3047 4666 
L 3047 1625 
L 3713 1625 
L 3713 1100 
L 3047 1100 
L 3047 0 
L 2419 0 
L 2419 1100 
L 313 1100 
L 313 1709 
L 2253 4666 
z
" transform="scale(0.015625)"/>
       </defs>
       <use xlink:href="#DejaVuSans-30"/>
       <use xlink:href="#DejaVuSans-2e" transform="translate(63.623047 0)"/>
       <use xlink:href="#DejaVuSans-34" transform="translate(95.410156 0)"/>
      </g>
     </g>
    </g>
    <g id="xtick_4">
     <g id="line2d_7">
      <path d="M 136.578636 239.953823 
L 136.578636 19.28 
" clip-path="url(#p8002e2042a)" style="fill: none; stroke: #b0b0b0; stroke-width: 0.8; stroke-linecap: square"/>
     </g>
     <g id="line2d_8">
      <g>
       <use xlink:href="#mfd97124b67" x="136.578636" y="239.953823" style="stroke: #000000; stroke-width: 0.6"/>
      </g>
     </g>
     <g id="text_4">
      <!-- 0.6 -->
      <g transform="translate(130.217386 253.032573) scale(0.08 -0.08)">
       <defs>
        <path id="DejaVuSans-36" d="M 2113 2584 
Q 1688 2584 1439 2293 
Q 1191 2003 1191 1497 
Q 1191 994 1439 701 
Q 1688 409 2113 409 
Q 2538 409 2786 701 
Q 3034 994 3034 1497 
Q 3034 2003 2786 2293 
Q 2538 2584 2113 2584 
z
M 3366 4563 
L 3366 3988 
Q 3128 4100 2886 4159 
Q 2644 4219 2406 4219 
Q 1781 4219 1451 3797 
Q 1122 3375 1075 2522 
Q 1259 2794 1537 2939 
Q 1816 3084 2150 3084 
Q 2853 3084 3261 2657 
Q 3669 2231 3669 1497 
Q 3669 778 3244 343 
Q 2819 -91 2113 -91 
Q 1303 -91 875 529 
Q 447 1150 447 2328 
Q 447 3434 972 4092 
Q 1497 4750 2381 4750 
Q 2619 4750 2861 4703 
Q 3103 4656 3366 4563 
z
" transform="scale(0.015625)"/>
       </defs>
       <use xlink:href="#DejaVuSans-30"/>
       <use xlink:href="#DejaVuSans-2e" transform="translate(63.623047 0)"/>
       <use xlink:href="#DejaVuSans-36" transform="translate(95.410156 0)"/>
      </g>
     </g>
    </g>
    <g id="xtick_5">
     <g id="line2d_9">
      <path d="M 166.675909 239.953823 
L 166.675909 19.28 
" clip-path="url(#p8002e2042a)" style="fill: none; stroke: #b0b0b0; stroke-width: 0.8; stroke-linecap: square"/>
     </g>
     <g id="line2d_10">
      <g>
       <use xlink:href="#mfd97124b67" x="166.675909" y="239.953823" style="stroke: #000000; stroke-width: 0.6"/>
      </g>
     </g>
     <g id="text_5">
      <!-- 0.8 -->
      <g transform="translate(160.314659 253.032573) scale(0.08 -0.08)">
       <defs>
        <path id="DejaVuSans-38" d="M 2034 2216 
Q 1584 2216 1326 1975 
Q 1069 1734 1069 1313 
Q 1069 891 1326 650 
Q 1584 409 2034 409 
Q 2484 409 2743 651 
Q 3003 894 3003 1313 
Q 3003 1734 2745 1975 
Q 2488 2216 2034 2216 
z
M 1403 2484 
Q 997 2584 770 2862 
Q 544 3141 544 3541 
Q 544 4100 942 4425 
Q 1341 4750 2034 4750 
Q 2731 4750 3128 4425 
Q 3525 4100 3525 3541 
Q 3525 3141 3298 2862 
Q 3072 2584 2669 2484 
Q 3125 2378 3379 2068 
Q 3634 1759 3634 1313 
Q 3634 634 3220 271 
Q 2806 -91 2034 -91 
Q 1263 -91 848 271 
Q 434 634 434 1313 
Q 434 1759 690 2068 
Q 947 2378 1403 2484 
z
M 1172 3481 
Q 1172 3119 1398 2916 
Q 1625 2713 2034 2713 
Q 2441 2713 2670 2916 
Q 2900 3119 2900 3481 
Q 2900 3844 2670 4047 
Q 2441 4250 2034 4250 
Q 1625 4250 1398 4047 
Q 1172 3844 1172 3481 
z
" transform="scale(0.015625)"/>
       </defs>
       <use xlink:href="#DejaVuSans-30"/>
       <use xlink:href="#DejaVuSans-2e" transform="translate(63.623047 0)"/>
       <use xlink:href="#DejaVuSans-38" transform="translate(95.410156 0)"/>
      </g>
     </g>
    </g>
    <g id="xtick_6">
     <g id="line2d_11">
      <path d="M 196.773182 239.953823 
L 196.773182 19.28 
" clip-path="url(#p8002e2042a)" style="fill: none; stroke: #b0b0b0; stroke-width: 0.8; stroke-linecap: square"/>
     </g>
     <g id="line2d_12">
      <g>
       <use xlink:href="#mfd97124b67" x="196.773182" y="239.953823" style="stroke: #000000; stroke-width: 0.6"/>
      </g>
     </g>
     <g id="text_6">
      <!-- 1.0 -->
      <g transform="translate(190.411932 253.032573) scale(0.08 -0.08)">
       <defs>
        <path id="DejaVuSans-31" d="M 794 531 
L 1825 531 
L 1825 4091 
L 703 3866 
L 703 4441 
L 1819 4666 
L 2450 4666 
L 2450 531 
L 3481 531 
L 3481 0 
L 794 0 
L 794 531 
z
" transform="scale(0.015625)"/>
       </defs>
       <use xlink:href="#DejaVuSans-31"/>
       <use xlink:href="#DejaVuSans-2e" transform="translate(63.623047 0)"/>
       <use xlink:href="#DejaVuSans-30" transform="translate(95.410156 0)"/>
      </g>
     </g>
    </g>
    <g id="text_7">
     <!-- Type I error $\alpha$ -->
     <g transform="translate(94.21 264.758823) scale(0.08 -0.08)">
      <defs>
       <path id="DejaVuSans-54" d="M -19 4666 
L 3928 4666 
L 3928 4134 
L 2272 4134 
L 2272 0 
L 1638 0 
L 1638 4134 
L -19 4134 
L -19 4666 
z
" transform="scale(0.015625)"/>
       <path id="DejaVuSans-79" d="M 2059 -325 
Q 1816 -950 1584 -1140 
Q 1353 -1331 966 -1331 
L 506 -1331 
L 506 -850 
L 844 -850 
Q 1081 -850 1212 -737 
Q 1344 -625 1503 -206 
L 1606 56 
L 191 3500 
L 800 3500 
L 1894 763 
L 2988 3500 
L 3597 3500 
L 2059 -325 
z
" transform="scale(0.015625)"/>
       <path id="DejaVuSans-70" d="M 1159 525 
L 1159 -1331 
L 581 -1331 
L 581 3500 
L 1159 3500 
L 1159 2969 
Q 1341 3281 1617 3432 
Q 1894 3584 2278 3584 
Q 2916 3584 3314 3078 
Q 3713 2572 3713 1747 
Q 3713 922 3314 415 
Q 2916 -91 2278 -91 
Q 1894 -91 1617 61 
Q 1341 213 1159 525 
z
M 3116 1747 
Q 3116 2381 2855 2742 
Q 2594 3103 2138 3103 
Q 1681 3103 1420 2742 
Q 1159 2381 1159 1747 
Q 1159 1113 1420 752 
Q 1681 391 2138 391 
Q 2594 391 2855 752 
Q 3116 1113 3116 1747 
z
" transform="scale(0.015625)"/>
       <path id="DejaVuSans-65" d="M 3597 1894 
L 3597 1613 
L 953 1613 
Q 991 1019 1311 708 
Q 1631 397 2203 397 
Q 2534 397 2845 478 
Q 3156 559 3463 722 
L 3463 178 
Q 3153 47 2828 -22 
Q 2503 -91 2169 -91 
Q 1331 -91 842 396 
Q 353 884 353 1716 
Q 353 2575 817 3079 
Q 1281 3584 2069 3584 
Q 2775 3584 3186 3129 
Q 3597 2675 3597 1894 
z
M 3022 2063 
Q 3016 2534 2758 2815 
Q 2500 3097 2075 3097 
Q 1594 3097 1305 2825 
Q 1016 2553 972 2059 
L 3022 2063 
z
" transform="scale(0.015625)"/>
       <path id="DejaVuSans-20" transform="scale(0.015625)"/>
       <path id="DejaVuSans-49" d="M 628 4666 
L 1259 4666 
L 1259 0 
L 628 0 
L 628 4666 
z
" transform="scale(0.015625)"/>
       <path id="DejaVuSans-72" d="M 2631 2963 
Q 2534 3019 2420 3045 
Q 2306 3072 2169 3072 
Q 1681 3072 1420 2755 
Q 1159 2438 1159 1844 
L 1159 0 
L 581 0 
L 581 3500 
L 1159 3500 
L 1159 2956 
Q 1341 3275 1631 3429 
Q 1922 3584 2338 3584 
Q 2397 3584 2469 3576 
Q 2541 3569 2628 3553 
L 2631 2963 
z
" transform="scale(0.015625)"/>
       <path id="DejaVuSans-6f" d="M 1959 3097 
Q 1497 3097 1228 2736 
Q 959 2375 959 1747 
Q 959 1119 1226 758 
Q 1494 397 1959 397 
Q 2419 397 2687 759 
Q 2956 1122 2956 1747 
Q 2956 2369 2687 2733 
Q 2419 3097 1959 3097 
z
M 1959 3584 
Q 2709 3584 3137 3096 
Q 3566 2609 3566 1747 
Q 3566 888 3137 398 
Q 2709 -91 1959 -91 
Q 1206 -91 779 398 
Q 353 888 353 1747 
Q 353 2609 779 3096 
Q 1206 3584 1959 3584 
z
" transform="scale(0.015625)"/>
       <path id="DejaVuSans-Oblique-3b1" d="M 2619 1628 
L 2622 2350 
Q 2625 3088 2069 3091 
Q 1653 3094 1394 2747 
Q 1069 2319 959 1747 
Q 825 1059 994 731 
Q 1169 397 1547 397 
Q 1966 397 2319 1063 
L 2619 1628 
z
M 2166 3578 
Q 3141 3594 3128 2584 
Q 3128 2584 3616 3500 
L 4128 3500 
L 3119 1603 
L 3109 919 
Q 3109 766 3194 638 
Q 3291 488 3391 488 
L 3669 488 
L 3575 0 
L 3228 0 
Q 2934 0 2722 263 
Q 2622 394 2619 669 
Q 2416 334 2066 50 
Q 1900 -81 1453 -78 
Q 722 -72 456 397 
Q 184 884 353 1747 
Q 534 2675 1009 3097 
Q 1544 3569 2166 3578 
z
" transform="scale(0.015625)"/>
      </defs>
      <use xlink:href="#DejaVuSans-54" transform="translate(0 0.09375)"/>
      <use xlink:href="#DejaVuSans-79" transform="translate(61.083984 0.09375)"/>
      <use xlink:href="#DejaVuSans-70" transform="translate(120.263672 0.09375)"/>
      <use xlink:href="#DejaVuSans-65" transform="translate(183.740234 0.09375)"/>
      <use xlink:href="#DejaVuSans-20" transform="translate(245.263672 0.09375)"/>
      <use xlink:href="#DejaVuSans-49" transform="translate(277.050781 0.09375)"/>
      <use xlink:href="#DejaVuSans-20" transform="translate(306.542969 0.09375)"/>
      <use xlink:href="#DejaVuSans-65" transform="translate(338.330078 0.09375)"/>
      <use xlink:href="#DejaVuSans-72" transform="translate(399.853516 0.09375)"/>
      <use xlink:href="#DejaVuSans-72" transform="translate(440.966797 0.09375)"/>
      <use xlink:href="#DejaVuSans-6f" transform="translate(482.080078 0.09375)"/>
      <use xlink:href="#DejaVuSans-72" transform="translate(543.261719 0.09375)"/>
      <use xlink:href="#DejaVuSans-20" transform="translate(584.375 0.09375)"/>
      <use xlink:href="#DejaVuSans-Oblique-3b1" transform="translate(616.162109 0.09375)"/>
     </g>
    </g>
   </g>
   <g id="matplotlib.axis_2">
    <g id="ytick_1">
     <g id="line2d_13">
      <path d="M 38.7625 229.923195 
L 204.2975 229.923195 
" clip-path="url(#p8002e2042a)" style="fill: none; stroke: #b0b0b0; stroke-width: 0.8; stroke-linecap: square"/>
     </g>
     <g id="line2d_14">
      <defs>
       <path id="mfed4e24e89" d="M 0 0 
L -3.5 0 
" style="stroke: #000000; stroke-width: 0.6"/>
      </defs>
      <g>
       <use xlink:href="#mfed4e24e89" x="38.7625" y="229.923195" style="stroke: #000000; stroke-width: 0.6"/>
      </g>
     </g>
     <g id="text_8">
      <!-- 0.0 -->
      <g transform="translate(19.04 232.96257) scale(0.08 -0.08)">
       <use xlink:href="#DejaVuSans-30"/>
       <use xlink:href="#DejaVuSans-2e" transform="translate(63.623047 0)"/>
       <use xlink:href="#DejaVuSans-30" transform="translate(95.410156 0)"/>
      </g>
     </g>
    </g>
    <g id="ytick_2">
     <g id="line2d_15">
      <path d="M 38.7625 189.800682 
L 204.2975 189.800682 
" clip-path="url(#p8002e2042a)" style="fill: none; stroke: #b0b0b0; stroke-width: 0.8; stroke-linecap: square"/>
     </g>
     <g id="line2d_16">
      <g>
       <use xlink:href="#mfed4e24e89" x="38.7625" y="189.800682" style="stroke: #000000; stroke-width: 0.6"/>
      </g>
     </g>
     <g id="text_9">
      <!-- 0.2 -->
      <g transform="translate(19.04 192.840057) scale(0.08 -0.08)">
       <use xlink:href="#DejaVuSans-30"/>
       <use xlink:href="#DejaVuSans-2e" transform="translate(63.623047 0)"/>
       <use xlink:href="#DejaVuSans-32" transform="translate(95.410156 0)"/>
      </g>
     </g>
    </g>
    <g id="ytick_3">
     <g id="line2d_17">
      <path d="M 38.7625 149.678168 
L 204.2975 149.678168 
" clip-path="url(#p8002e2042a)" style="fill: none; stroke: #b0b0b0; stroke-width: 0.8; stroke-linecap: square"/>
     </g>
     <g id="line2d_18">
      <g>
       <use xlink:href="#mfed4e24e89" x="38.7625" y="149.678168" style="stroke: #000000; stroke-width: 0.6"/>
      </g>
     </g>
     <g id="text_10">
      <!-- 0.4 -->
      <g transform="translate(19.04 152.717543) scale(0.08 -0.08)">
       <use xlink:href="#DejaVuSans-30"/>
       <use xlink:href="#DejaVuSans-2e" transform="translate(63.623047 0)"/>
       <use xlink:href="#DejaVuSans-34" transform="translate(95.410156 0)"/>
      </g>
     </g>
    </g>
    <g id="ytick_4">
     <g id="line2d_19">
      <path d="M 38.7625 109.555655 
L 204.2975 109.555655 
" clip-path="url(#p8002e2042a)" style="fill: none; stroke: #b0b0b0; stroke-width: 0.8; stroke-linecap: square"/>
     </g>
     <g id="line2d_20">
      <g>
       <use xlink:href="#mfed4e24e89" x="38.7625" y="109.555655" style="stroke: #000000; stroke-width: 0.6"/>
      </g>
     </g>
     <g id="text_11">
      <!-- 0.6 -->
      <g transform="translate(19.04 112.59503) scale(0.08 -0.08)">
       <use xlink:href="#DejaVuSans-30"/>
       <use xlink:href="#DejaVuSans-2e" transform="translate(63.623047 0)"/>
       <use xlink:href="#DejaVuSans-36" transform="translate(95.410156 0)"/>
      </g>
     </g>
    </g>
    <g id="ytick_5">
     <g id="line2d_21">
      <path d="M 38.7625 69.433142 
L 204.2975 69.433142 
" clip-path="url(#p8002e2042a)" style="fill: none; stroke: #b0b0b0; stroke-width: 0.8; stroke-linecap: square"/>
     </g>
     <g id="line2d_22">
      <g>
       <use xlink:href="#mfed4e24e89" x="38.7625" y="69.433142" style="stroke: #000000; stroke-width: 0.6"/>
      </g>
     </g>
     <g id="text_12">
      <!-- 0.8 -->
      <g transform="translate(19.04 72.472517) scale(0.08 -0.08)">
       <use xlink:href="#DejaVuSans-30"/>
       <use xlink:href="#DejaVuSans-2e" transform="translate(63.623047 0)"/>
       <use xlink:href="#DejaVuSans-38" transform="translate(95.410156 0)"/>
      </g>
     </g>
    </g>
    <g id="ytick_6">
     <g id="line2d_23">
      <path d="M 38.7625 29.310628 
L 204.2975 29.310628 
" clip-path="url(#p8002e2042a)" style="fill: none; stroke: #b0b0b0; stroke-width: 0.8; stroke-linecap: square"/>
     </g>
     <g id="line2d_24">
      <g>
       <use xlink:href="#mfed4e24e89" x="38.7625" y="29.310628" style="stroke: #000000; stroke-width: 0.6"/>
      </g>
     </g>
     <g id="text_13">
      <!-- 1.0 -->
      <g transform="translate(19.04 32.350003) scale(0.08 -0.08)">
       <use xlink:href="#DejaVuSans-31"/>
       <use xlink:href="#DejaVuSans-2e" transform="translate(63.623047 0)"/>
       <use xlink:href="#DejaVuSans-30" transform="translate(95.410156 0)"/>
      </g>
     </g>
    </g>
    <g id="text_14">
     <!-- Type II error $\beta$ -->
     <g transform="translate(13.36 158.016912) rotate(-90) scale(0.08 -0.08)">
      <defs>
       <path id="DejaVuSans-Oblique-3b2" d="M 872 216 
L 572 -1331 
L -6 -1331 
L 928 3478 
Q 1206 4903 2538 4903 
Q 3888 4903 3659 3700 
Q 3503 2844 2894 2531 
Q 3713 2250 3553 1416 
Q 3272 -69 1759 -66 
Q 1097 -63 872 216 
z
M 1019 966 
Q 1259 422 1875 425 
Q 2775 425 2966 1406 
Q 3138 2288 1675 2219 
L 1778 2750 
Q 2909 2731 3106 3750 
Q 3241 4438 2509 4434 
Q 1691 4434 1503 3459 
L 1019 966 
z
" transform="scale(0.015625)"/>
      </defs>
      <use xlink:href="#DejaVuSans-54" transform="translate(0 0.390625)"/>
      <use xlink:href="#DejaVuSans-79" transform="translate(61.083984 0.390625)"/>
      <use xlink:href="#DejaVuSans-70" transform="translate(120.263672 0.390625)"/>
      <use xlink:href="#DejaVuSans-65" transform="translate(183.740234 0.390625)"/>
      <use xlink:href="#DejaVuSans-20" transform="translate(245.263672 0.390625)"/>
      <use xlink:href="#DejaVuSans-49" transform="translate(277.050781 0.390625)"/>
      <use xlink:href="#DejaVuSans-49" transform="translate(306.542969 0.390625)"/>
      <use xlink:href="#DejaVuSans-20" transform="translate(336.035156 0.390625)"/>
      <use xlink:href="#DejaVuSans-65" transform="translate(367.822266 0.390625)"/>
      <use xlink:href="#DejaVuSans-72" transform="translate(429.345703 0.390625)"/>
      <use xlink:href="#DejaVuSans-72" transform="translate(470.458984 0.390625)"/>
      <use xlink:href="#DejaVuSans-6f" transform="translate(511.572266 0.390625)"/>
      <use xlink:href="#DejaVuSans-72" transform="translate(572.753906 0.390625)"/>
      <use xlink:href="#DejaVuSans-20" transform="translate(613.867188 0.390625)"/>
      <use xlink:href="#DejaVuSans-Oblique-3b2" transform="translate(645.654297 0.390625)"/>
     </g>
    </g>
   </g>
   <g id="line2d_25">
    <path d="M 46.286818 29.310628 
L 46.52762 30.354717 
L 47.340328 32.765312 
L 48.860392 36.530894 
L 51.117914 41.505778 
L 54.142992 47.617091 
L 57.935628 54.761114 
L 62.45067 62.778843 
L 67.582768 71.439228 
L 73.362023 80.759191 
L 79.848633 90.791575 
L 86.801799 101.135789 
L 94.37202 111.99308 
L 102.393745 123.100249 
L 111.769983 135.6775 
L 128.897044 158.347144 
L 137.159572 168.844259 
L 145.015746 178.480882 
L 152.706368 187.574651 
L 160.020737 195.890149 
L 167.094303 203.592827 
L 173.400312 210.142699 
L 179.224717 215.882406 
L 184.417016 220.692776 
L 188.811657 224.471165 
L 192.36349 227.246149 
L 194.967165 229.020187 
L 196.53238 229.850949 
L 196.773182 229.923195 
L 196.773182 229.923195 
" clip-path="url(#p8002e2042a)" style="fill: none; stroke: #fd8c3b; stroke-width: 2; stroke-linecap: square"/>
   </g>
   <g id="line2d_26">
    <path d="M 114.373658 139.151918 
L 114.373658 120.07683 
" clip-path="url(#p8002e2042a)" style="fill: none; stroke-dasharray: 1,1.65; stroke-dashoffset: 0; stroke: #fd8c3b"/>
   </g>
   <g id="line2d_27">
    <path d="M 46.286818 29.310628 
L 46.52762 30.654944 
L 47.280128 33.490165 
L 48.60454 37.56917 
L 50.485808 42.623503 
L 52.923931 48.525922 
L 55.888808 55.117613 
L 59.395491 62.365342 
L 63.428929 70.179576 
L 67.959022 78.456813 
L 72.970719 87.133561 
L 78.41887 96.10352 
L 84.183074 105.158157 
L 90.383732 114.472497 
L 96.900444 123.848052 
L 103.642907 133.153498 
L 114.238207 147.304694 
L 123.524144 159.486774 
L 130.387008 168.087808 
L 137.370274 176.479752 
L 144.037486 184.151884 
L 150.614398 191.389102 
L 156.980608 198.071285 
L 163.030765 204.112631 
L 168.87022 209.638664 
L 174.318371 214.499762 
L 179.405319 218.751109 
L 184.040762 222.345189 
L 188.179551 225.280528 
L 191.701284 227.513972 
L 194.48556 229.029094 
L 196.351778 229.816245 
L 196.773182 229.923195 
L 196.773182 229.923195 
" clip-path="url(#p8002e2042a)" style="fill: none; stroke: #e95e0d; stroke-width: 2; stroke-linecap: square"/>
   </g>
   <g id="line2d_28">
    <path d="M 111.243228 143.316081 
L 111.243228 115.903671 
" clip-path="url(#p8002e2042a)" style="fill: none; stroke-dasharray: 1,1.65; stroke-dashoffset: 0; stroke: #e95e0d"/>
   </g>
   <g id="line2d_29">
    <path d="M 46.286818 29.310628 
L 46.52762 31.17019 
L 47.219927 34.676679 
L 48.363738 39.289975 
L 49.944003 44.725424 
L 51.945671 50.804994 
L 54.368744 57.439222 
L 57.16807 64.446012 
L 60.34365 71.786664 
L 63.880433 79.392175 
L 67.673069 87.026999 
L 71.841958 94.91883 
L 76.2968 102.873793 
L 80.962344 110.758333 
L 85.91384 118.69688 
L 91.121189 126.629501 
L 96.49409 134.418567 
L 102.213144 142.313994 
L 113.184697 156.916065 
L 119.114452 164.474782 
L 124.938857 171.544937 
L 130.928813 178.462618 
L 136.783318 184.886747 
L 142.667924 191.013836 
L 148.507378 196.769299 
L 154.241482 202.105512 
L 159.764884 206.946052 
L 165.182935 211.401044 
L 170.375234 215.386617 
L 175.356831 218.933764 
L 180.097625 222.03675 
L 184.492266 224.648152 
L 188.435403 226.739044 
L 191.896936 228.331393 
L 194.726363 229.399805 
L 196.637731 229.906575 
L 196.773182 229.923195 
L 196.773182 229.923195 
" clip-path="url(#p8002e2042a)" style="fill: none; stroke: #b63c02; stroke-width: 2; stroke-linecap: square"/>
   </g>
   <g id="line2d_30">
    <path d="M 107.104439 148.848371 
L 107.104439 110.386274 
" clip-path="url(#p8002e2042a)" style="fill: none; stroke-dasharray: 1,1.65; stroke-dashoffset: 0; stroke: #b63c02"/>
   </g>
   <g id="line2d_31">
    <path d="M 46.286818 29.310628 
L 46.51257 31.889784 
L 47.129626 36.279519 
L 48.122935 41.709779 
L 49.462398 47.784211 
L 51.132964 54.323147 
L 53.119582 61.196979 
L 55.392154 68.262585 
L 57.980778 75.575689 
L 60.810205 82.902046 
L 63.910534 90.311535 
L 67.266715 97.75173 
L 70.818549 105.088805 
L 74.611184 112.415362 
L 78.569371 119.587202 
L 82.828561 126.838759 
L 87.283403 133.973665 
L 91.888747 140.924092 
L 96.629541 147.676765 
L 102.092742 155.045019 
L 109.467312 164.701498 
L 114.56931 170.96015 
L 119.776659 176.988179 
L 124.999058 182.688846 
L 130.176306 188.015957 
L 135.443856 193.118654 
L 140.756556 197.95245 
L 146.069256 202.481447 
L 151.321755 206.666116 
L 156.453853 210.477324 
L 161.555851 213.995674 
L 166.642799 217.233694 
L 171.624396 220.138762 
L 176.440441 222.688687 
L 181.060834 224.882919 
L 185.380225 226.692033 
L 189.383562 228.132468 
L 192.935396 229.179517 
L 195.764822 229.794652 
L 196.773182 229.923195 
L 196.773182 229.923195 
" clip-path="url(#p8002e2042a)" style="fill: none; stroke: #7f2704; stroke-width: 2; stroke-linecap: square"/>
   </g>
   <g id="line2d_32">
    <path d="M 102.273344 155.286019 
L 102.273344 103.945967 
" clip-path="url(#p8002e2042a)" style="fill: none; stroke-dasharray: 1,1.65; stroke-dashoffset: 0; stroke: #7f2704"/>
   </g>
   <g id="line2d_33">
    <path d="M 46.286818 29.310628 
L 196.773182 229.923195 
" clip-path="url(#p8002e2042a)" style="fill: none; stroke-dasharray: 1.2,1.98; stroke-dashoffset: 0; stroke: #000000; stroke-width: 1.2"/>
   </g>
   <g id="patch_3">
    <path d="M 38.7625 239.953823 
L 38.7625 19.28 
" style="fill: none; stroke: #000000; stroke-width: 0.6; stroke-linejoin: miter; stroke-linecap: square"/>
   </g>
   <g id="patch_4">
    <path d="M 204.2975 239.953823 
L 204.2975 19.28 
" style="fill: none; stroke: #000000; stroke-width: 0.6; stroke-linejoin: miter; stroke-linecap: square"/>
   </g>
   <g id="patch_5">
    <path d="M 38.7625 239.953823 
L 204.2975 239.953823 
" style="fill: none; stroke: #000000; stroke-width: 0.6; stroke-linejoin: miter; stroke-linecap: square"/>
   </g>
   <g id="patch_6">
    <path d="M 38.7625 19.28 
L 204.2975 19.28 
" style="fill: none; stroke: #000000; stroke-width: 0.6; stroke-linejoin: miter; stroke-linecap: square"/>
   </g>
   <g id="text_15">
    <!-- Budget ($\epsilon$) = 8.0 -->
    <g transform="translate(88.33 13.28) scale(0.08 -0.08)">
     <defs>
      <path id="DejaVuSans-42" d="M 1259 2228 
L 1259 519 
L 2272 519 
Q 2781 519 3026 730 
Q 3272 941 3272 1375 
Q 3272 1813 3026 2020 
Q 2781 2228 2272 2228 
L 1259 2228 
z
M 1259 4147 
L 1259 2741 
L 2194 2741 
Q 2656 2741 2882 2914 
Q 3109 3088 3109 3444 
Q 3109 3797 2882 3972 
Q 2656 4147 2194 4147 
L 1259 4147 
z
M 628 4666 
L 2241 4666 
Q 2963 4666 3353 4366 
Q 3744 4066 3744 3513 
Q 3744 3084 3544 2831 
Q 3344 2578 2956 2516 
Q 3422 2416 3680 2098 
Q 3938 1781 3938 1306 
Q 3938 681 3513 340 
Q 3088 0 2303 0 
L 628 0 
L 628 4666 
z
" transform="scale(0.015625)"/>
      <path id="DejaVuSans-75" d="M 544 1381 
L 544 3500 
L 1119 3500 
L 1119 1403 
Q 1119 906 1312 657 
Q 1506 409 1894 409 
Q 2359 409 2629 706 
Q 2900 1003 2900 1516 
L 2900 3500 
L 3475 3500 
L 3475 0 
L 2900 0 
L 2900 538 
Q 2691 219 2414 64 
Q 2138 -91 1772 -91 
Q 1169 -91 856 284 
Q 544 659 544 1381 
z
M 1991 3584 
L 1991 3584 
z
" transform="scale(0.015625)"/>
      <path id="DejaVuSans-64" d="M 2906 2969 
L 2906 4863 
L 3481 4863 
L 3481 0 
L 2906 0 
L 2906 525 
Q 2725 213 2448 61 
Q 2172 -91 1784 -91 
Q 1150 -91 751 415 
Q 353 922 353 1747 
Q 353 2572 751 3078 
Q 1150 3584 1784 3584 
Q 2172 3584 2448 3432 
Q 2725 3281 2906 2969 
z
M 947 1747 
Q 947 1113 1208 752 
Q 1469 391 1925 391 
Q 2381 391 2643 752 
Q 2906 1113 2906 1747 
Q 2906 2381 2643 2742 
Q 2381 3103 1925 3103 
Q 1469 3103 1208 2742 
Q 947 2381 947 1747 
z
" transform="scale(0.015625)"/>
      <path id="DejaVuSans-67" d="M 2906 1791 
Q 2906 2416 2648 2759 
Q 2391 3103 1925 3103 
Q 1463 3103 1205 2759 
Q 947 2416 947 1791 
Q 947 1169 1205 825 
Q 1463 481 1925 481 
Q 2391 481 2648 825 
Q 2906 1169 2906 1791 
z
M 3481 434 
Q 3481 -459 3084 -895 
Q 2688 -1331 1869 -1331 
Q 1566 -1331 1297 -1286 
Q 1028 -1241 775 -1147 
L 775 -588 
Q 1028 -725 1275 -790 
Q 1522 -856 1778 -856 
Q 2344 -856 2625 -561 
Q 2906 -266 2906 331 
L 2906 616 
Q 2728 306 2450 153 
Q 2172 0 1784 0 
Q 1141 0 747 490 
Q 353 981 353 1791 
Q 353 2603 747 3093 
Q 1141 3584 1784 3584 
Q 2172 3584 2450 3431 
Q 2728 3278 2906 2969 
L 2906 3500 
L 3481 3500 
L 3481 434 
z
" transform="scale(0.015625)"/>
      <path id="DejaVuSans-74" d="M 1172 4494 
L 1172 3500 
L 2356 3500 
L 2356 3053 
L 1172 3053 
L 1172 1153 
Q 1172 725 1289 603 
Q 1406 481 1766 481 
L 2356 481 
L 2356 0 
L 1766 0 
Q 1100 0 847 248 
Q 594 497 594 1153 
L 594 3053 
L 172 3053 
L 172 3500 
L 594 3500 
L 594 4494 
L 1172 4494 
z
" transform="scale(0.015625)"/>
      <path id="DejaVuSans-28" d="M 1984 4856 
Q 1566 4138 1362 3434 
Q 1159 2731 1159 2009 
Q 1159 1288 1364 580 
Q 1569 -128 1984 -844 
L 1484 -844 
Q 1016 -109 783 600 
Q 550 1309 550 2009 
Q 550 2706 781 3412 
Q 1013 4119 1484 4856 
L 1984 4856 
z
" transform="scale(0.015625)"/>
      <path id="DejaVuSans-Oblique-3b5" d="M 1263 1888 
Q 925 1963 778 2166 
Q 669 2309 669 2503 
Q 669 3034 1175 3344 
Q 1575 3588 2188 3588 
Q 2425 3588 2684 3550 
Q 2944 3513 3234 3438 
L 3134 2916 
Q 2847 3006 2606 3047 
Q 2359 3088 2138 3088 
Q 1766 3088 1522 2944 
Q 1228 2772 1228 2522 
Q 1228 2356 1381 2241 
Q 1563 2103 1925 2103 
L 2409 2103 
L 2319 1628 
L 1856 1628 
Q 1425 1628 1172 1469 
Q 828 1253 828 916 
Q 828 703 1013 563 
Q 1244 388 1716 388 
Q 2006 388 2284 444 
Q 2563 503 2806 619 
L 2700 84 
Q 2403 -3 2131 -47 
Q 1859 -91 1609 -91 
Q 866 -91 516 194 
Q 250 413 250 781 
Q 250 1278 600 1584 
Q 859 1813 1263 1888 
z
" transform="scale(0.015625)"/>
      <path id="DejaVuSans-29" d="M 513 4856 
L 1013 4856 
Q 1481 4119 1714 3412 
Q 1947 2706 1947 2009 
Q 1947 1309 1714 600 
Q 1481 -109 1013 -844 
L 513 -844 
Q 928 -128 1133 580 
Q 1338 1288 1338 2009 
Q 1338 2731 1133 3434 
Q 928 4138 513 4856 
z
" transform="scale(0.015625)"/>
      <path id="DejaVuSans-3d" d="M 678 2906 
L 4684 2906 
L 4684 2381 
L 678 2381 
L 678 2906 
z
M 678 1631 
L 4684 1631 
L 4684 1100 
L 678 1100 
L 678 1631 
z
" transform="scale(0.015625)"/>
     </defs>
     <use xlink:href="#DejaVuSans-42" transform="translate(0 0.015625)"/>
     <use xlink:href="#DejaVuSans-75" transform="translate(68.603516 0.015625)"/>
     <use xlink:href="#DejaVuSans-64" transform="translate(131.982422 0.015625)"/>
     <use xlink:href="#DejaVuSans-67" transform="translate(195.458984 0.015625)"/>
     <use xlink:href="#DejaVuSans-65" transform="translate(258.935547 0.015625)"/>
     <use xlink:href="#DejaVuSans-74" transform="translate(320.458984 0.015625)"/>
     <use xlink:href="#DejaVuSans-20" transform="translate(359.667969 0.015625)"/>
     <use xlink:href="#DejaVuSans-28" transform="translate(391.455078 0.015625)"/>
     <use xlink:href="#DejaVuSans-Oblique-3b5" transform="translate(430.46875 0.015625)"/>
     <use xlink:href="#DejaVuSans-29" transform="translate(484.521484 0.015625)"/>
     <use xlink:href="#DejaVuSans-20" transform="translate(523.535156 0.015625)"/>
     <use xlink:href="#DejaVuSans-3d" transform="translate(555.322266 0.015625)"/>
     <use xlink:href="#DejaVuSans-20" transform="translate(639.111328 0.015625)"/>
     <use xlink:href="#DejaVuSans-38" transform="translate(670.898438 0.015625)"/>
     <use xlink:href="#DejaVuSans-2e" transform="translate(734.521484 0.015625)"/>
     <use xlink:href="#DejaVuSans-30" transform="translate(766.308594 0.015625)"/>
    </g>
   </g>
   <g id="legend_1">
    <g id="patch_7">
     <path d="M 133.4175 72.65 
L 198.6975 72.65 
Q 200.2975 72.65 200.2975 71.05 
L 200.2975 24.88 
Q 200.2975 23.28 198.6975 23.28 
L 133.4175 23.28 
Q 131.8175 23.28 131.8175 24.88 
L 131.8175 71.05 
Q 131.8175 72.65 133.4175 72.65 
z
" style="fill: #ffffff; opacity: 0.8; stroke: #cccccc; stroke-linejoin: miter"/>
    </g>
    <g id="line2d_34">
     <path d="M 135.0175 29.75875 
L 143.0175 29.75875 
L 151.0175 29.75875 
" style="fill: none; stroke: #fd8c3b; stroke-width: 2; stroke-linecap: square"/>
    </g>
    <g id="text_16">
     <!-- $\mathbf{20\%}$/80% -->
     <g transform="translate(157.4175 32.55875) scale(0.08 -0.08)">
      <defs>
       <path id="DejaVuSans-Bold-32" d="M 1844 884 
L 3897 884 
L 3897 0 
L 506 0 
L 506 884 
L 2209 2388 
Q 2438 2594 2547 2791 
Q 2656 2988 2656 3200 
Q 2656 3528 2436 3728 
Q 2216 3928 1850 3928 
Q 1569 3928 1234 3808 
Q 900 3688 519 3450 
L 519 4475 
Q 925 4609 1322 4679 
Q 1719 4750 2100 4750 
Q 2938 4750 3402 4381 
Q 3866 4013 3866 3353 
Q 3866 2972 3669 2642 
Q 3472 2313 2841 1759 
L 1844 884 
z
" transform="scale(0.015625)"/>
       <path id="DejaVuSans-Bold-30" d="M 2944 2338 
Q 2944 3213 2780 3570 
Q 2616 3928 2228 3928 
Q 1841 3928 1675 3570 
Q 1509 3213 1509 2338 
Q 1509 1453 1675 1090 
Q 1841 728 2228 728 
Q 2613 728 2778 1090 
Q 2944 1453 2944 2338 
z
M 4147 2328 
Q 4147 1169 3647 539 
Q 3147 -91 2228 -91 
Q 1306 -91 806 539 
Q 306 1169 306 2328 
Q 306 3491 806 4120 
Q 1306 4750 2228 4750 
Q 3147 4750 3647 4120 
Q 4147 3491 4147 2328 
z
" transform="scale(0.015625)"/>
       <path id="DejaVuSans-Bold-25" d="M 4959 1925 
Q 4738 1925 4616 1733 
Q 4494 1541 4494 1184 
Q 4494 825 4614 633 
Q 4734 441 4959 441 
Q 5184 441 5303 633 
Q 5422 825 5422 1184 
Q 5422 1541 5301 1733 
Q 5181 1925 4959 1925 
z
M 4959 2450 
Q 5541 2450 5875 2112 
Q 6209 1775 6209 1184 
Q 6209 594 5875 251 
Q 5541 -91 4959 -91 
Q 4378 -91 4042 251 
Q 3706 594 3706 1184 
Q 3706 1772 4042 2111 
Q 4378 2450 4959 2450 
z
M 2094 -91 
L 1403 -91 
L 4319 4750 
L 5013 4750 
L 2094 -91 
z
M 1453 4750 
Q 2034 4750 2367 4411 
Q 2700 4072 2700 3481 
Q 2700 2891 2367 2550 
Q 2034 2209 1453 2209 
Q 872 2209 539 2550 
Q 206 2891 206 3481 
Q 206 4072 539 4411 
Q 872 4750 1453 4750 
z
M 1453 4225 
Q 1228 4225 1106 4031 
Q 984 3838 984 3481 
Q 984 3122 1106 2926 
Q 1228 2731 1453 2731 
Q 1678 2731 1798 2926 
Q 1919 3122 1919 3481 
Q 1919 3838 1797 4031 
Q 1675 4225 1453 4225 
z
" transform="scale(0.015625)"/>
       <path id="DejaVuSans-2f" d="M 1625 4666 
L 2156 4666 
L 531 -594 
L 0 -594 
L 1625 4666 
z
" transform="scale(0.015625)"/>
       <path id="DejaVuSans-25" d="M 4653 2053 
Q 4381 2053 4226 1822 
Q 4072 1591 4072 1178 
Q 4072 772 4226 539 
Q 4381 306 4653 306 
Q 4919 306 5073 539 
Q 5228 772 5228 1178 
Q 5228 1588 5073 1820 
Q 4919 2053 4653 2053 
z
M 4653 2450 
Q 5147 2450 5437 2106 
Q 5728 1763 5728 1178 
Q 5728 594 5436 251 
Q 5144 -91 4653 -91 
Q 4153 -91 3862 251 
Q 3572 594 3572 1178 
Q 3572 1766 3864 2108 
Q 4156 2450 4653 2450 
z
M 1428 4353 
Q 1159 4353 1004 4120 
Q 850 3888 850 3481 
Q 850 3069 1003 2837 
Q 1156 2606 1428 2606 
Q 1700 2606 1854 2837 
Q 2009 3069 2009 3481 
Q 2009 3884 1853 4118 
Q 1697 4353 1428 4353 
z
M 4250 4750 
L 4750 4750 
L 1831 -91 
L 1331 -91 
L 4250 4750 
z
M 1428 4750 
Q 1922 4750 2215 4408 
Q 2509 4066 2509 3481 
Q 2509 2891 2217 2550 
Q 1925 2209 1428 2209 
Q 931 2209 642 2551 
Q 353 2894 353 3481 
Q 353 4063 643 4406 
Q 934 4750 1428 4750 
z
" transform="scale(0.015625)"/>
      </defs>
      <use xlink:href="#DejaVuSans-Bold-32" transform="translate(0 0.78125)"/>
      <use xlink:href="#DejaVuSans-Bold-30" transform="translate(69.580078 0.78125)"/>
      <use xlink:href="#DejaVuSans-Bold-25" transform="translate(139.160156 0.78125)"/>
      <use xlink:href="#DejaVuSans-2f" transform="translate(239.355469 0.78125)"/>
      <use xlink:href="#DejaVuSans-38" transform="translate(268.046875 0.78125)"/>
      <use xlink:href="#DejaVuSans-30" transform="translate(331.669922 0.78125)"/>
      <use xlink:href="#DejaVuSans-25" transform="translate(395.292969 0.78125)"/>
     </g>
    </g>
    <g id="line2d_35">
     <path d="M 135.0175 41.50125 
L 143.0175 41.50125 
L 151.0175 41.50125 
" style="fill: none; stroke: #e95e0d; stroke-width: 2; stroke-linecap: square"/>
    </g>
    <g id="text_17">
     <!-- $\mathbf{40\%}$/60% -->
     <g transform="translate(157.4175 44.30125) scale(0.08 -0.08)">
      <defs>
       <path id="DejaVuSans-Bold-34" d="M 2356 3675 
L 1038 1722 
L 2356 1722 
L 2356 3675 
z
M 2156 4666 
L 3494 4666 
L 3494 1722 
L 4159 1722 
L 4159 850 
L 3494 850 
L 3494 0 
L 2356 0 
L 2356 850 
L 288 850 
L 288 1881 
L 2156 4666 
z
" transform="scale(0.015625)"/>
      </defs>
      <use xlink:href="#DejaVuSans-Bold-34" transform="translate(0 0.78125)"/>
      <use xlink:href="#DejaVuSans-Bold-30" transform="translate(69.580078 0.78125)"/>
      <use xlink:href="#DejaVuSans-Bold-25" transform="translate(139.160156 0.78125)"/>
      <use xlink:href="#DejaVuSans-2f" transform="translate(239.355469 0.78125)"/>
      <use xlink:href="#DejaVuSans-36" transform="translate(273.046875 0.78125)"/>
      <use xlink:href="#DejaVuSans-30" transform="translate(336.669922 0.78125)"/>
      <use xlink:href="#DejaVuSans-25" transform="translate(400.292969 0.78125)"/>
     </g>
    </g>
    <g id="line2d_36">
     <path d="M 135.0175 53.24375 
L 143.0175 53.24375 
L 151.0175 53.24375 
" style="fill: none; stroke: #b63c02; stroke-width: 2; stroke-linecap: square"/>
    </g>
    <g id="text_18">
     <!-- $\mathbf{60\%}$/40% -->
     <g transform="translate(157.4175 56.04375) scale(0.08 -0.08)">
      <defs>
       <path id="DejaVuSans-Bold-36" d="M 2316 2303 
Q 2000 2303 1842 2098 
Q 1684 1894 1684 1484 
Q 1684 1075 1842 870 
Q 2000 666 2316 666 
Q 2634 666 2792 870 
Q 2950 1075 2950 1484 
Q 2950 1894 2792 2098 
Q 2634 2303 2316 2303 
z
M 3803 4544 
L 3803 3681 
Q 3506 3822 3243 3889 
Q 2981 3956 2731 3956 
Q 2194 3956 1894 3657 
Q 1594 3359 1544 2772 
Q 1750 2925 1990 3001 
Q 2231 3078 2516 3078 
Q 3231 3078 3670 2659 
Q 4109 2241 4109 1563 
Q 4109 813 3618 361 
Q 3128 -91 2303 -91 
Q 1394 -91 895 523 
Q 397 1138 397 2266 
Q 397 3422 980 4083 
Q 1563 4744 2578 4744 
Q 2900 4744 3203 4694 
Q 3506 4644 3803 4544 
z
" transform="scale(0.015625)"/>
      </defs>
      <use xlink:href="#DejaVuSans-Bold-36" transform="translate(0 0.78125)"/>
      <use xlink:href="#DejaVuSans-Bold-30" transform="translate(69.580078 0.78125)"/>
      <use xlink:href="#DejaVuSans-Bold-25" transform="translate(139.160156 0.78125)"/>
      <use xlink:href="#DejaVuSans-2f" transform="translate(239.355469 0.78125)"/>
      <use xlink:href="#DejaVuSans-34" transform="translate(273.046875 0.78125)"/>
      <use xlink:href="#DejaVuSans-30" transform="translate(336.669922 0.78125)"/>
      <use xlink:href="#DejaVuSans-25" transform="translate(400.292969 0.78125)"/>
     </g>
    </g>
    <g id="line2d_37">
     <path d="M 135.0175 64.98625 
L 143.0175 64.98625 
L 151.0175 64.98625 
" style="fill: none; stroke: #7f2704; stroke-width: 2; stroke-linecap: square"/>
    </g>
    <g id="text_19">
     <!-- $\mathbf{80\%}$/20% -->
     <g transform="translate(157.4175 67.78625) scale(0.08 -0.08)">
      <defs>
       <path id="DejaVuSans-Bold-38" d="M 2228 2088 
Q 1891 2088 1709 1903 
Q 1528 1719 1528 1375 
Q 1528 1031 1709 848 
Q 1891 666 2228 666 
Q 2563 666 2741 848 
Q 2919 1031 2919 1375 
Q 2919 1722 2741 1905 
Q 2563 2088 2228 2088 
z
M 1350 2484 
Q 925 2613 709 2878 
Q 494 3144 494 3541 
Q 494 4131 934 4440 
Q 1375 4750 2228 4750 
Q 3075 4750 3515 4442 
Q 3956 4134 3956 3541 
Q 3956 3144 3739 2878 
Q 3522 2613 3097 2484 
Q 3572 2353 3814 2058 
Q 4056 1763 4056 1313 
Q 4056 619 3595 264 
Q 3134 -91 2228 -91 
Q 1319 -91 855 264 
Q 391 619 391 1313 
Q 391 1763 633 2058 
Q 875 2353 1350 2484 
z
M 1631 3419 
Q 1631 3141 1786 2991 
Q 1941 2841 2228 2841 
Q 2509 2841 2662 2991 
Q 2816 3141 2816 3419 
Q 2816 3697 2662 3845 
Q 2509 3994 2228 3994 
Q 1941 3994 1786 3844 
Q 1631 3694 1631 3419 
z
" transform="scale(0.015625)"/>
      </defs>
      <use xlink:href="#DejaVuSans-Bold-38" transform="translate(0 0.78125)"/>
      <use xlink:href="#DejaVuSans-Bold-30" transform="translate(69.580078 0.78125)"/>
      <use xlink:href="#DejaVuSans-Bold-25" transform="translate(139.160156 0.78125)"/>
      <use xlink:href="#DejaVuSans-2f" transform="translate(239.355469 0.78125)"/>
      <use xlink:href="#DejaVuSans-32" transform="translate(269.421875 0.78125)"/>
      <use xlink:href="#DejaVuSans-30" transform="translate(333.044922 0.78125)"/>
      <use xlink:href="#DejaVuSans-25" transform="translate(396.667969 0.78125)"/>
     </g>
    </g>
   </g>
  </g>
  <g id="axes_2">
   <g id="patch_8">
    <path d="M 254.0875 239.953823 
L 419.6225 239.953823 
L 419.6225 19.28 
L 254.0875 19.28 
z
" style="fill: #ffffff"/>
   </g>
   <g id="patch_9">
    <path d="M 261.611818 330.283205 
L 283.10987 330.283205 
L 283.10987 221.564338 
L 261.611818 221.564338 
z
" clip-path="url(#pb568fb3d1c)" style="fill: #fd8c3b"/>
   </g>
   <g id="patch_10">
    <path d="M 304.607922 330.283205 
L 326.105974 330.283205 
L 326.105974 174.045592 
L 304.607922 174.045592 
z
" clip-path="url(#pb568fb3d1c)" style="fill: #e95e0d"/>
   </g>
   <g id="patch_11">
    <path d="M 347.604026 330.283205 
L 369.102078 330.283205 
L 369.102078 111.067668 
L 347.604026 111.067668 
z
" clip-path="url(#pb568fb3d1c)" style="fill: #b63c02"/>
   </g>
   <g id="patch_12">
    <path d="M 390.60013 330.283205 
L 412.098182 330.283205 
L 412.098182 37.669485 
L 390.60013 37.669485 
z
" clip-path="url(#pb568fb3d1c)" style="fill: #7f2704"/>
   </g>
   <g id="matplotlib.axis_3">
    <g id="xtick_7">
     <g id="line2d_38">
      <g>
       <use xlink:href="#mfd97124b67" x="272.360844" y="239.953823" style="stroke: #000000; stroke-width: 0.6"/>
      </g>
     </g>
     <g id="text_20">
      <!-- $\mathbf{20\%}$/80% -->
      <g transform="translate(274.568344 286.233823) rotate(-90) scale(0.08 -0.08)">
       <use xlink:href="#DejaVuSans-Bold-32" transform="translate(0 0.78125)"/>
       <use xlink:href="#DejaVuSans-Bold-30" transform="translate(69.580078 0.78125)"/>
       <use xlink:href="#DejaVuSans-Bold-25" transform="translate(139.160156 0.78125)"/>
       <use xlink:href="#DejaVuSans-2f" transform="translate(239.355469 0.78125)"/>
       <use xlink:href="#DejaVuSans-38" transform="translate(268.046875 0.78125)"/>
       <use xlink:href="#DejaVuSans-30" transform="translate(331.669922 0.78125)"/>
       <use xlink:href="#DejaVuSans-25" transform="translate(395.292969 0.78125)"/>
      </g>
     </g>
    </g>
    <g id="xtick_8">
     <g id="line2d_39">
      <g>
       <use xlink:href="#mfd97124b67" x="315.356948" y="239.953823" style="stroke: #000000; stroke-width: 0.6"/>
      </g>
     </g>
     <g id="text_21">
      <!-- $\mathbf{40\%}$/60% -->
      <g transform="translate(317.564448 286.633823) rotate(-90) scale(0.08 -0.08)">
       <use xlink:href="#DejaVuSans-Bold-34" transform="translate(0 0.78125)"/>
       <use xlink:href="#DejaVuSans-Bold-30" transform="translate(69.580078 0.78125)"/>
       <use xlink:href="#DejaVuSans-Bold-25" transform="translate(139.160156 0.78125)"/>
       <use xlink:href="#DejaVuSans-2f" transform="translate(239.355469 0.78125)"/>
       <use xlink:href="#DejaVuSans-36" transform="translate(273.046875 0.78125)"/>
       <use xlink:href="#DejaVuSans-30" transform="translate(336.669922 0.78125)"/>
       <use xlink:href="#DejaVuSans-25" transform="translate(400.292969 0.78125)"/>
      </g>
     </g>
    </g>
    <g id="xtick_9">
     <g id="line2d_40">
      <g>
       <use xlink:href="#mfd97124b67" x="358.353052" y="239.953823" style="stroke: #000000; stroke-width: 0.6"/>
      </g>
     </g>
     <g id="text_22">
      <!-- $\mathbf{60\%}$/40% -->
      <g transform="translate(360.560552 286.633823) rotate(-90) scale(0.08 -0.08)">
       <use xlink:href="#DejaVuSans-Bold-36" transform="translate(0 0.78125)"/>
       <use xlink:href="#DejaVuSans-Bold-30" transform="translate(69.580078 0.78125)"/>
       <use xlink:href="#DejaVuSans-Bold-25" transform="translate(139.160156 0.78125)"/>
       <use xlink:href="#DejaVuSans-2f" transform="translate(239.355469 0.78125)"/>
       <use xlink:href="#DejaVuSans-34" transform="translate(273.046875 0.78125)"/>
       <use xlink:href="#DejaVuSans-30" transform="translate(336.669922 0.78125)"/>
       <use xlink:href="#DejaVuSans-25" transform="translate(400.292969 0.78125)"/>
      </g>
     </g>
    </g>
    <g id="xtick_10">
     <g id="line2d_41">
      <g>
       <use xlink:href="#mfd97124b67" x="401.349156" y="239.953823" style="stroke: #000000; stroke-width: 0.6"/>
      </g>
     </g>
     <g id="text_23">
      <!-- $\mathbf{80\%}$/20% -->
      <g transform="translate(403.556656 286.313823) rotate(-90) scale(0.08 -0.08)">
       <use xlink:href="#DejaVuSans-Bold-38" transform="translate(0 0.78125)"/>
       <use xlink:href="#DejaVuSans-Bold-30" transform="translate(69.580078 0.78125)"/>
       <use xlink:href="#DejaVuSans-Bold-25" transform="translate(139.160156 0.78125)"/>
       <use xlink:href="#DejaVuSans-2f" transform="translate(239.355469 0.78125)"/>
       <use xlink:href="#DejaVuSans-32" transform="translate(269.421875 0.78125)"/>
       <use xlink:href="#DejaVuSans-30" transform="translate(333.044922 0.78125)"/>
       <use xlink:href="#DejaVuSans-25" transform="translate(396.667969 0.78125)"/>
      </g>
     </g>
    </g>
   </g>
   <g id="matplotlib.axis_4">
    <g id="ytick_7">
     <g id="line2d_42">
      <g>
       <use xlink:href="#mfed4e24e89" x="254.0875" y="215.943646" style="stroke: #000000; stroke-width: 0.6"/>
      </g>
     </g>
     <g id="text_24">
      <!-- 0.100 -->
      <g transform="translate(224.185 218.983021) scale(0.08 -0.08)">
       <use xlink:href="#DejaVuSans-30"/>
       <use xlink:href="#DejaVuSans-2e" transform="translate(63.623047 0)"/>
       <use xlink:href="#DejaVuSans-31" transform="translate(95.410156 0)"/>
       <use xlink:href="#DejaVuSans-30" transform="translate(159.033203 0)"/>
       <use xlink:href="#DejaVuSans-30" transform="translate(222.65625 0)"/>
      </g>
     </g>
    </g>
    <g id="ytick_8">
     <g id="line2d_43">
      <g>
       <use xlink:href="#mfed4e24e89" x="254.0875" y="187.358756" style="stroke: #000000; stroke-width: 0.6"/>
      </g>
     </g>
     <g id="text_25">
      <!-- 0.125 -->
      <g transform="translate(224.185 190.398131) scale(0.08 -0.08)">
       <defs>
        <path id="DejaVuSans-35" d="M 691 4666 
L 3169 4666 
L 3169 4134 
L 1269 4134 
L 1269 2991 
Q 1406 3038 1543 3061 
Q 1681 3084 1819 3084 
Q 2600 3084 3056 2656 
Q 3513 2228 3513 1497 
Q 3513 744 3044 326 
Q 2575 -91 1722 -91 
Q 1428 -91 1123 -41 
Q 819 9 494 109 
L 494 744 
Q 775 591 1075 516 
Q 1375 441 1709 441 
Q 2250 441 2565 725 
Q 2881 1009 2881 1497 
Q 2881 1984 2565 2268 
Q 2250 2553 1709 2553 
Q 1456 2553 1204 2497 
Q 953 2441 691 2322 
L 691 4666 
z
" transform="scale(0.015625)"/>
       </defs>
       <use xlink:href="#DejaVuSans-30"/>
       <use xlink:href="#DejaVuSans-2e" transform="translate(63.623047 0)"/>
       <use xlink:href="#DejaVuSans-31" transform="translate(95.410156 0)"/>
       <use xlink:href="#DejaVuSans-32" transform="translate(159.033203 0)"/>
       <use xlink:href="#DejaVuSans-35" transform="translate(222.65625 0)"/>
      </g>
     </g>
    </g>
    <g id="ytick_9">
     <g id="line2d_44">
      <g>
       <use xlink:href="#mfed4e24e89" x="254.0875" y="158.773867" style="stroke: #000000; stroke-width: 0.6"/>
      </g>
     </g>
     <g id="text_26">
      <!-- 0.150 -->
      <g transform="translate(224.185 161.813242) scale(0.08 -0.08)">
       <use xlink:href="#DejaVuSans-30"/>
       <use xlink:href="#DejaVuSans-2e" transform="translate(63.623047 0)"/>
       <use xlink:href="#DejaVuSans-31" transform="translate(95.410156 0)"/>
       <use xlink:href="#DejaVuSans-35" transform="translate(159.033203 0)"/>
       <use xlink:href="#DejaVuSans-30" transform="translate(222.65625 0)"/>
      </g>
     </g>
    </g>
    <g id="ytick_10">
     <g id="line2d_45">
      <g>
       <use xlink:href="#mfed4e24e89" x="254.0875" y="130.188977" style="stroke: #000000; stroke-width: 0.6"/>
      </g>
     </g>
     <g id="text_27">
      <!-- 0.175 -->
      <g transform="translate(224.185 133.228352) scale(0.08 -0.08)">
       <defs>
        <path id="DejaVuSans-37" d="M 525 4666 
L 3525 4666 
L 3525 4397 
L 1831 0 
L 1172 0 
L 2766 4134 
L 525 4134 
L 525 4666 
z
" transform="scale(0.015625)"/>
       </defs>
       <use xlink:href="#DejaVuSans-30"/>
       <use xlink:href="#DejaVuSans-2e" transform="translate(63.623047 0)"/>
       <use xlink:href="#DejaVuSans-31" transform="translate(95.410156 0)"/>
       <use xlink:href="#DejaVuSans-37" transform="translate(159.033203 0)"/>
       <use xlink:href="#DejaVuSans-35" transform="translate(222.65625 0)"/>
      </g>
     </g>
    </g>
    <g id="ytick_11">
     <g id="line2d_46">
      <g>
       <use xlink:href="#mfed4e24e89" x="254.0875" y="101.604087" style="stroke: #000000; stroke-width: 0.6"/>
      </g>
     </g>
     <g id="text_28">
      <!-- 0.200 -->
      <g transform="translate(224.185 104.643462) scale(0.08 -0.08)">
       <use xlink:href="#DejaVuSans-30"/>
       <use xlink:href="#DejaVuSans-2e" transform="translate(63.623047 0)"/>
       <use xlink:href="#DejaVuSans-32" transform="translate(95.410156 0)"/>
       <use xlink:href="#DejaVuSans-30" transform="translate(159.033203 0)"/>
       <use xlink:href="#DejaVuSans-30" transform="translate(222.65625 0)"/>
      </g>
     </g>
    </g>
    <g id="ytick_12">
     <g id="line2d_47">
      <g>
       <use xlink:href="#mfed4e24e89" x="254.0875" y="73.019198" style="stroke: #000000; stroke-width: 0.6"/>
      </g>
     </g>
     <g id="text_29">
      <!-- 0.225 -->
      <g transform="translate(224.185 76.058573) scale(0.08 -0.08)">
       <use xlink:href="#DejaVuSans-30"/>
       <use xlink:href="#DejaVuSans-2e" transform="translate(63.623047 0)"/>
       <use xlink:href="#DejaVuSans-32" transform="translate(95.410156 0)"/>
       <use xlink:href="#DejaVuSans-32" transform="translate(159.033203 0)"/>
       <use xlink:href="#DejaVuSans-35" transform="translate(222.65625 0)"/>
      </g>
     </g>
    </g>
    <g id="ytick_13">
     <g id="line2d_48">
      <g>
       <use xlink:href="#mfed4e24e89" x="254.0875" y="44.434308" style="stroke: #000000; stroke-width: 0.6"/>
      </g>
     </g>
     <g id="text_30">
      <!-- 0.250 -->
      <g transform="translate(224.185 47.473683) scale(0.08 -0.08)">
       <use xlink:href="#DejaVuSans-30"/>
       <use xlink:href="#DejaVuSans-2e" transform="translate(63.623047 0)"/>
       <use xlink:href="#DejaVuSans-32" transform="translate(95.410156 0)"/>
       <use xlink:href="#DejaVuSans-35" transform="translate(159.033203 0)"/>
       <use xlink:href="#DejaVuSans-30" transform="translate(222.65625 0)"/>
      </g>
     </g>
    </g>
    <g id="text_31">
     <!-- Advantage -->
     <g transform="translate(218.52125 151.196287) rotate(-90) scale(0.08 -0.08)">
      <defs>
       <path id="DejaVuSans-41" d="M 2188 4044 
L 1331 1722 
L 3047 1722 
L 2188 4044 
z
M 1831 4666 
L 2547 4666 
L 4325 0 
L 3669 0 
L 3244 1197 
L 1141 1197 
L 716 0 
L 50 0 
L 1831 4666 
z
" transform="scale(0.015625)"/>
       <path id="DejaVuSans-76" d="M 191 3500 
L 800 3500 
L 1894 563 
L 2988 3500 
L 3597 3500 
L 2284 0 
L 1503 0 
L 191 3500 
z
" transform="scale(0.015625)"/>
       <path id="DejaVuSans-61" d="M 2194 1759 
Q 1497 1759 1228 1600 
Q 959 1441 959 1056 
Q 959 750 1161 570 
Q 1363 391 1709 391 
Q 2188 391 2477 730 
Q 2766 1069 2766 1631 
L 2766 1759 
L 2194 1759 
z
M 3341 1997 
L 3341 0 
L 2766 0 
L 2766 531 
Q 2569 213 2275 61 
Q 1981 -91 1556 -91 
Q 1019 -91 701 211 
Q 384 513 384 1019 
Q 384 1609 779 1909 
Q 1175 2209 1959 2209 
L 2766 2209 
L 2766 2266 
Q 2766 2663 2505 2880 
Q 2244 3097 1772 3097 
Q 1472 3097 1187 3025 
Q 903 2953 641 2809 
L 641 3341 
Q 956 3463 1253 3523 
Q 1550 3584 1831 3584 
Q 2591 3584 2966 3190 
Q 3341 2797 3341 1997 
z
" transform="scale(0.015625)"/>
       <path id="DejaVuSans-6e" d="M 3513 2113 
L 3513 0 
L 2938 0 
L 2938 2094 
Q 2938 2591 2744 2837 
Q 2550 3084 2163 3084 
Q 1697 3084 1428 2787 
Q 1159 2491 1159 1978 
L 1159 0 
L 581 0 
L 581 3500 
L 1159 3500 
L 1159 2956 
Q 1366 3272 1645 3428 
Q 1925 3584 2291 3584 
Q 2894 3584 3203 3211 
Q 3513 2838 3513 2113 
z
" transform="scale(0.015625)"/>
      </defs>
      <use xlink:href="#DejaVuSans-41"/>
      <use xlink:href="#DejaVuSans-64" transform="translate(66.658203 0)"/>
      <use xlink:href="#DejaVuSans-76" transform="translate(130.134766 0)"/>
      <use xlink:href="#DejaVuSans-61" transform="translate(189.314453 0)"/>
      <use xlink:href="#DejaVuSans-6e" transform="translate(250.59375 0)"/>
      <use xlink:href="#DejaVuSans-74" transform="translate(313.972656 0)"/>
      <use xlink:href="#DejaVuSans-61" transform="translate(353.181641 0)"/>
      <use xlink:href="#DejaVuSans-67" transform="translate(414.460938 0)"/>
      <use xlink:href="#DejaVuSans-65" transform="translate(477.9375 0)"/>
     </g>
    </g>
   </g>
   <g id="patch_13">
    <path d="M 254.0875 239.953823 
L 254.0875 19.28 
" style="fill: none; stroke: #000000; stroke-width: 0.6; stroke-linejoin: miter; stroke-linecap: square"/>
   </g>
   <g id="patch_14">
    <path d="M 419.6225 239.953823 
L 419.6225 19.28 
" style="fill: none; stroke: #000000; stroke-width: 0.6; stroke-linejoin: miter; stroke-linecap: square"/>
   </g>
   <g id="patch_15">
    <path d="M 254.0875 239.953823 
L 419.6225 239.953823 
" style="fill: none; stroke: #000000; stroke-width: 0.6; stroke-linejoin: miter; stroke-linecap: square"/>
   </g>
   <g id="patch_16">
    <path d="M 254.0875 19.28 
L 419.6225 19.28 
" style="fill: none; stroke: #000000; stroke-width: 0.6; stroke-linejoin: miter; stroke-linecap: square"/>
   </g>
  </g>
  <g id="axes_3">
   <g id="patch_17">
    <path d="M 38.7625 516.971113 
L 204.2975 516.971113 
L 204.2975 296.29729 
L 38.7625 296.29729 
z
" style="fill: #ffffff"/>
   </g>
   <g id="matplotlib.axis_5">
    <g id="xtick_11">
     <g id="line2d_49">
      <path d="M 46.286818 516.971113 
L 46.286818 296.29729 
" clip-path="url(#pe198ab1f2f)" style="fill: none; stroke: #b0b0b0; stroke-width: 0.8; stroke-linecap: square"/>
     </g>
     <g id="line2d_50">
      <g>
       <use xlink:href="#mfd97124b67" x="46.286818" y="516.971113" style="stroke: #000000; stroke-width: 0.6"/>
      </g>
     </g>
     <g id="text_32">
      <!-- 0.0 -->
      <g transform="translate(39.925568 530.049863) scale(0.08 -0.08)">
       <use xlink:href="#DejaVuSans-30"/>
       <use xlink:href="#DejaVuSans-2e" transform="translate(63.623047 0)"/>
       <use xlink:href="#DejaVuSans-30" transform="translate(95.410156 0)"/>
      </g>
     </g>
    </g>
    <g id="xtick_12">
     <g id="line2d_51">
      <path d="M 76.384091 516.971113 
L 76.384091 296.29729 
" clip-path="url(#pe198ab1f2f)" style="fill: none; stroke: #b0b0b0; stroke-width: 0.8; stroke-linecap: square"/>
     </g>
     <g id="line2d_52">
      <g>
       <use xlink:href="#mfd97124b67" x="76.384091" y="516.971113" style="stroke: #000000; stroke-width: 0.6"/>
      </g>
     </g>
     <g id="text_33">
      <!-- 0.2 -->
      <g transform="translate(70.022841 530.049863) scale(0.08 -0.08)">
       <use xlink:href="#DejaVuSans-30"/>
       <use xlink:href="#DejaVuSans-2e" transform="translate(63.623047 0)"/>
       <use xlink:href="#DejaVuSans-32" transform="translate(95.410156 0)"/>
      </g>
     </g>
    </g>
    <g id="xtick_13">
     <g id="line2d_53">
      <path d="M 106.481364 516.971113 
L 106.481364 296.29729 
" clip-path="url(#pe198ab1f2f)" style="fill: none; stroke: #b0b0b0; stroke-width: 0.8; stroke-linecap: square"/>
     </g>
     <g id="line2d_54">
      <g>
       <use xlink:href="#mfd97124b67" x="106.481364" y="516.971113" style="stroke: #000000; stroke-width: 0.6"/>
      </g>
     </g>
     <g id="text_34">
      <!-- 0.4 -->
      <g transform="translate(100.120114 530.049863) scale(0.08 -0.08)">
       <use xlink:href="#DejaVuSans-30"/>
       <use xlink:href="#DejaVuSans-2e" transform="translate(63.623047 0)"/>
       <use xlink:href="#DejaVuSans-34" transform="translate(95.410156 0)"/>
      </g>
     </g>
    </g>
    <g id="xtick_14">
     <g id="line2d_55">
      <path d="M 136.578636 516.971113 
L 136.578636 296.29729 
" clip-path="url(#pe198ab1f2f)" style="fill: none; stroke: #b0b0b0; stroke-width: 0.8; stroke-linecap: square"/>
     </g>
     <g id="line2d_56">
      <g>
       <use xlink:href="#mfd97124b67" x="136.578636" y="516.971113" style="stroke: #000000; stroke-width: 0.6"/>
      </g>
     </g>
     <g id="text_35">
      <!-- 0.6 -->
      <g transform="translate(130.217386 530.049863) scale(0.08 -0.08)">
       <use xlink:href="#DejaVuSans-30"/>
       <use xlink:href="#DejaVuSans-2e" transform="translate(63.623047 0)"/>
       <use xlink:href="#DejaVuSans-36" transform="translate(95.410156 0)"/>
      </g>
     </g>
    </g>
    <g id="xtick_15">
     <g id="line2d_57">
      <path d="M 166.675909 516.971113 
L 166.675909 296.29729 
" clip-path="url(#pe198ab1f2f)" style="fill: none; stroke: #b0b0b0; stroke-width: 0.8; stroke-linecap: square"/>
     </g>
     <g id="line2d_58">
      <g>
       <use xlink:href="#mfd97124b67" x="166.675909" y="516.971113" style="stroke: #000000; stroke-width: 0.6"/>
      </g>
     </g>
     <g id="text_36">
      <!-- 0.8 -->
      <g transform="translate(160.314659 530.049863) scale(0.08 -0.08)">
       <use xlink:href="#DejaVuSans-30"/>
       <use xlink:href="#DejaVuSans-2e" transform="translate(63.623047 0)"/>
       <use xlink:href="#DejaVuSans-38" transform="translate(95.410156 0)"/>
      </g>
     </g>
    </g>
    <g id="xtick_16">
     <g id="line2d_59">
      <path d="M 196.773182 516.971113 
L 196.773182 296.29729 
" clip-path="url(#pe198ab1f2f)" style="fill: none; stroke: #b0b0b0; stroke-width: 0.8; stroke-linecap: square"/>
     </g>
     <g id="line2d_60">
      <g>
       <use xlink:href="#mfd97124b67" x="196.773182" y="516.971113" style="stroke: #000000; stroke-width: 0.6"/>
      </g>
     </g>
     <g id="text_37">
      <!-- 1.0 -->
      <g transform="translate(190.411932 530.049863) scale(0.08 -0.08)">
       <use xlink:href="#DejaVuSans-31"/>
       <use xlink:href="#DejaVuSans-2e" transform="translate(63.623047 0)"/>
       <use xlink:href="#DejaVuSans-30" transform="translate(95.410156 0)"/>
      </g>
     </g>
    </g>
    <g id="text_38">
     <!-- Type I error $\alpha$ -->
     <g transform="translate(94.21 541.776113) scale(0.08 -0.08)">
      <use xlink:href="#DejaVuSans-54" transform="translate(0 0.09375)"/>
      <use xlink:href="#DejaVuSans-79" transform="translate(61.083984 0.09375)"/>
      <use xlink:href="#DejaVuSans-70" transform="translate(120.263672 0.09375)"/>
      <use xlink:href="#DejaVuSans-65" transform="translate(183.740234 0.09375)"/>
      <use xlink:href="#DejaVuSans-20" transform="translate(245.263672 0.09375)"/>
      <use xlink:href="#DejaVuSans-49" transform="translate(277.050781 0.09375)"/>
      <use xlink:href="#DejaVuSans-20" transform="translate(306.542969 0.09375)"/>
      <use xlink:href="#DejaVuSans-65" transform="translate(338.330078 0.09375)"/>
      <use xlink:href="#DejaVuSans-72" transform="translate(399.853516 0.09375)"/>
      <use xlink:href="#DejaVuSans-72" transform="translate(440.966797 0.09375)"/>
      <use xlink:href="#DejaVuSans-6f" transform="translate(482.080078 0.09375)"/>
      <use xlink:href="#DejaVuSans-72" transform="translate(543.261719 0.09375)"/>
      <use xlink:href="#DejaVuSans-20" transform="translate(584.375 0.09375)"/>
      <use xlink:href="#DejaVuSans-Oblique-3b1" transform="translate(616.162109 0.09375)"/>
     </g>
    </g>
   </g>
   <g id="matplotlib.axis_6">
    <g id="ytick_14">
     <g id="line2d_61">
      <path d="M 38.7625 506.940485 
L 204.2975 506.940485 
" clip-path="url(#pe198ab1f2f)" style="fill: none; stroke: #b0b0b0; stroke-width: 0.8; stroke-linecap: square"/>
     </g>
     <g id="line2d_62">
      <g>
       <use xlink:href="#mfed4e24e89" x="38.7625" y="506.940485" style="stroke: #000000; stroke-width: 0.6"/>
      </g>
     </g>
     <g id="text_39">
      <!-- 0.0 -->
      <g transform="translate(19.04 509.97986) scale(0.08 -0.08)">
       <use xlink:href="#DejaVuSans-30"/>
       <use xlink:href="#DejaVuSans-2e" transform="translate(63.623047 0)"/>
       <use xlink:href="#DejaVuSans-30" transform="translate(95.410156 0)"/>
      </g>
     </g>
    </g>
    <g id="ytick_15">
     <g id="line2d_63">
      <path d="M 38.7625 466.817972 
L 204.2975 466.817972 
" clip-path="url(#pe198ab1f2f)" style="fill: none; stroke: #b0b0b0; stroke-width: 0.8; stroke-linecap: square"/>
     </g>
     <g id="line2d_64">
      <g>
       <use xlink:href="#mfed4e24e89" x="38.7625" y="466.817972" style="stroke: #000000; stroke-width: 0.6"/>
      </g>
     </g>
     <g id="text_40">
      <!-- 0.2 -->
      <g transform="translate(19.04 469.857347) scale(0.08 -0.08)">
       <use xlink:href="#DejaVuSans-30"/>
       <use xlink:href="#DejaVuSans-2e" transform="translate(63.623047 0)"/>
       <use xlink:href="#DejaVuSans-32" transform="translate(95.410156 0)"/>
      </g>
     </g>
    </g>
    <g id="ytick_16">
     <g id="line2d_65">
      <path d="M 38.7625 426.695458 
L 204.2975 426.695458 
" clip-path="url(#pe198ab1f2f)" style="fill: none; stroke: #b0b0b0; stroke-width: 0.8; stroke-linecap: square"/>
     </g>
     <g id="line2d_66">
      <g>
       <use xlink:href="#mfed4e24e89" x="38.7625" y="426.695458" style="stroke: #000000; stroke-width: 0.6"/>
      </g>
     </g>
     <g id="text_41">
      <!-- 0.4 -->
      <g transform="translate(19.04 429.734833) scale(0.08 -0.08)">
       <use xlink:href="#DejaVuSans-30"/>
       <use xlink:href="#DejaVuSans-2e" transform="translate(63.623047 0)"/>
       <use xlink:href="#DejaVuSans-34" transform="translate(95.410156 0)"/>
      </g>
     </g>
    </g>
    <g id="ytick_17">
     <g id="line2d_67">
      <path d="M 38.7625 386.572945 
L 204.2975 386.572945 
" clip-path="url(#pe198ab1f2f)" style="fill: none; stroke: #b0b0b0; stroke-width: 0.8; stroke-linecap: square"/>
     </g>
     <g id="line2d_68">
      <g>
       <use xlink:href="#mfed4e24e89" x="38.7625" y="386.572945" style="stroke: #000000; stroke-width: 0.6"/>
      </g>
     </g>
     <g id="text_42">
      <!-- 0.6 -->
      <g transform="translate(19.04 389.61232) scale(0.08 -0.08)">
       <use xlink:href="#DejaVuSans-30"/>
       <use xlink:href="#DejaVuSans-2e" transform="translate(63.623047 0)"/>
       <use xlink:href="#DejaVuSans-36" transform="translate(95.410156 0)"/>
      </g>
     </g>
    </g>
    <g id="ytick_18">
     <g id="line2d_69">
      <path d="M 38.7625 346.450432 
L 204.2975 346.450432 
" clip-path="url(#pe198ab1f2f)" style="fill: none; stroke: #b0b0b0; stroke-width: 0.8; stroke-linecap: square"/>
     </g>
     <g id="line2d_70">
      <g>
       <use xlink:href="#mfed4e24e89" x="38.7625" y="346.450432" style="stroke: #000000; stroke-width: 0.6"/>
      </g>
     </g>
     <g id="text_43">
      <!-- 0.8 -->
      <g transform="translate(19.04 349.489807) scale(0.08 -0.08)">
       <use xlink:href="#DejaVuSans-30"/>
       <use xlink:href="#DejaVuSans-2e" transform="translate(63.623047 0)"/>
       <use xlink:href="#DejaVuSans-38" transform="translate(95.410156 0)"/>
      </g>
     </g>
    </g>
    <g id="ytick_19">
     <g id="line2d_71">
      <path d="M 38.7625 306.327918 
L 204.2975 306.327918 
" clip-path="url(#pe198ab1f2f)" style="fill: none; stroke: #b0b0b0; stroke-width: 0.8; stroke-linecap: square"/>
     </g>
     <g id="line2d_72">
      <g>
       <use xlink:href="#mfed4e24e89" x="38.7625" y="306.327918" style="stroke: #000000; stroke-width: 0.6"/>
      </g>
     </g>
     <g id="text_44">
      <!-- 1.0 -->
      <g transform="translate(19.04 309.367293) scale(0.08 -0.08)">
       <use xlink:href="#DejaVuSans-31"/>
       <use xlink:href="#DejaVuSans-2e" transform="translate(63.623047 0)"/>
       <use xlink:href="#DejaVuSans-30" transform="translate(95.410156 0)"/>
      </g>
     </g>
    </g>
    <g id="text_45">
     <!-- Type II error $\beta$ -->
     <g transform="translate(13.36 435.034202) rotate(-90) scale(0.08 -0.08)">
      <use xlink:href="#DejaVuSans-54" transform="translate(0 0.390625)"/>
      <use xlink:href="#DejaVuSans-79" transform="translate(61.083984 0.390625)"/>
      <use xlink:href="#DejaVuSans-70" transform="translate(120.263672 0.390625)"/>
      <use xlink:href="#DejaVuSans-65" transform="translate(183.740234 0.390625)"/>
      <use xlink:href="#DejaVuSans-20" transform="translate(245.263672 0.390625)"/>
      <use xlink:href="#DejaVuSans-49" transform="translate(277.050781 0.390625)"/>
      <use xlink:href="#DejaVuSans-49" transform="translate(306.542969 0.390625)"/>
      <use xlink:href="#DejaVuSans-20" transform="translate(336.035156 0.390625)"/>
      <use xlink:href="#DejaVuSans-65" transform="translate(367.822266 0.390625)"/>
      <use xlink:href="#DejaVuSans-72" transform="translate(429.345703 0.390625)"/>
      <use xlink:href="#DejaVuSans-72" transform="translate(470.458984 0.390625)"/>
      <use xlink:href="#DejaVuSans-6f" transform="translate(511.572266 0.390625)"/>
      <use xlink:href="#DejaVuSans-72" transform="translate(572.753906 0.390625)"/>
      <use xlink:href="#DejaVuSans-20" transform="translate(613.867188 0.390625)"/>
      <use xlink:href="#DejaVuSans-Oblique-3b2" transform="translate(645.654297 0.390625)"/>
     </g>
    </g>
   </g>
   <g id="line2d_73">
    <path d="M 46.286818 307.252432 
L 46.422269 356.13153 
L 46.723272 378.15352 
L 47.159726 394.006336 
L 47.716582 406.466818 
L 48.393838 416.841213 
L 49.191495 425.735804 
L 50.094504 433.387415 
L 51.102863 440.092632 
L 52.216574 446.042712 
L 53.435635 451.370674 
L 54.760048 456.174 
L 56.189811 460.527124 
L 57.709875 464.452728 
L 59.335291 468.044075 
L 61.066057 471.337346 
L 62.917224 474.386173 
L 64.888793 477.207723 
L 70.607847 484.655452 
L 72.820217 487.062898 
L 75.152989 489.273004 
L 77.621213 491.306307 
L 80.270037 493.197932 
L 83.084414 494.933672 
L 86.109492 496.537749 
L 89.375373 498.01736 
L 92.942256 499.386581 
L 96.825193 500.636925 
L 101.129533 501.784921 
L 105.885378 502.81889 
L 111.198078 503.742447 
L 117.203084 504.556109 
L 124.050899 505.25531 
L 132.027474 505.840696 
L 141.524113 506.307232 
L 153.203023 506.649186 
L 168.493966 506.861603 
L 191.896936 506.939686 
L 196.773182 506.940485 
L 196.773182 506.940485 
" clip-path="url(#pe198ab1f2f)" style="fill: none; stroke: #6aaed6; stroke-width: 2; stroke-linecap: square"/>
   </g>
   <g id="line2d_74">
    <path d="M 66.73996 479.67797 
L 66.73996 333.593893 
" clip-path="url(#pe198ab1f2f)" style="fill: none; stroke-dasharray: 1,1.65; stroke-dashoffset: 0; stroke: #6aaed6"/>
   </g>
   <g id="line2d_75">
    <path d="M 46.286818 307.804277 
L 46.422269 364.828263 
L 46.708222 387.847173 
L 47.129626 404.325152 
L 47.671431 417.048467 
L 48.333637 427.455915 
L 49.101195 436.08554 
L 49.974103 443.439279 
L 50.952362 449.816694 
L 52.020922 455.345576 
L 53.194833 460.26089 
L 54.459045 464.609715 
L 55.813558 468.488769 
L 57.273421 472.004001 
L 58.838636 475.196771 
L 60.509202 478.102241 
L 62.300169 480.771345 
L 66.077754 485.798483 
L 68.049323 488.123563 
L 70.141292 490.24774 
L 72.368713 492.193391 
L 74.761686 493.987362 
L 77.33526 495.637294 
L 80.119536 497.156627 
L 83.159665 498.559453 
L 86.485746 499.846635 
L 90.17303 501.030822 
L 94.266669 502.107508 
L 98.856962 503.080419 
L 104.049261 503.949143 
L 109.994067 504.713544 
L 116.902082 505.372062 
L 125.089358 505.92213 
L 135.007402 506.357944 
L 147.544169 506.676463 
L 164.550829 506.871912 
L 192.36349 506.940137 
L 196.773182 506.940485 
L 196.773182 506.940485 
" clip-path="url(#pe198ab1f2f)" style="fill: none; stroke: #3787c0; stroke-width: 2; stroke-linecap: square"/>
   </g>
   <g id="line2d_76">
    <path d="M 64.106186 483.191241 
L 64.106186 330.082822 
" clip-path="url(#pe198ab1f2f)" style="fill: none; stroke-dasharray: 1,1.65; stroke-dashoffset: 0; stroke: #3787c0"/>
   </g>
   <g id="line2d_77">
    <path d="M 46.286818 308.785642 
L 46.422269 375.632679 
L 46.708222 400.248559 
L 47.114576 416.721994 
L 47.641331 429.289738 
L 48.273437 439.201938 
L 49.010894 447.348746 
L 49.838652 454.105278 
L 50.77176 459.925164 
L 51.79517 464.923826 
L 52.90888 469.272414 
L 54.112892 473.091639 
L 55.407204 476.470629 
L 56.806867 479.507275 
L 58.296831 482.215726 
L 59.907196 484.683979 
L 62.661372 488.372426 
L 64.437289 490.500111 
L 66.333606 492.428865 
L 68.380426 494.194388 
L 70.592797 495.808534 
L 73.000819 497.28884 
L 75.634594 498.645582 
L 78.539271 499.890291 
L 81.790102 501.037254 
L 85.432236 502.081698 
L 89.555975 503.027933 
L 94.266669 503.875795 
L 99.71482 504.625561 
L 106.12618 505.277468 
L 113.816803 505.828435 
L 123.253241 506.273298 
L 135.323455 506.609266 
L 151.773259 506.830572 
L 177.704653 506.932511 
L 196.773182 506.940485 
L 196.773182 506.940485 
" clip-path="url(#pe198ab1f2f)" style="fill: none; stroke: #105ba4; stroke-width: 2; stroke-linecap: square"/>
   </g>
   <g id="line2d_78">
    <path d="M 61.442311 486.752905 
L 61.442311 326.531624 
" clip-path="url(#pe198ab1f2f)" style="fill: none; stroke-dasharray: 1,1.65; stroke-dashoffset: 0; stroke: #105ba4"/>
   </g>
   <g id="line2d_79">
    <path d="M 46.286818 310.44336 
L 46.422269 388.228558 
L 46.693172 413.118971 
L 47.084476 429.552154 
L 47.58113 441.504421 
L 48.183136 450.82753 
L 48.875442 458.240013 
L 49.65805 464.331841 
L 50.530958 469.4471 
L 51.494167 473.807596 
L 52.547677 477.56637 
L 53.691488 480.834341 
L 54.925599 483.694889 
L 56.250012 486.212477 
L 57.679775 488.459685 
L 59.862046 491.389263 
L 61.487461 493.293395 
L 63.233277 494.997403 
L 65.129595 496.538976 
L 67.206515 497.941193 
L 69.509186 499.225391 
L 72.06771 500.395363 
L 74.957338 501.467976 
L 78.238268 502.443469 
L 82.015854 503.328008 
L 86.380395 504.116161 
L 91.527543 504.813848 
L 97.713151 505.420161 
L 105.268322 505.929257 
L 114.810112 506.339958 
L 127.40708 506.647719 
L 145.376949 506.847705 
L 175.883586 506.935294 
L 196.773182 506.940485 
L 196.773182 506.940485 
" clip-path="url(#pe198ab1f2f)" style="fill: none; stroke: #08306b; stroke-width: 2; stroke-linecap: square"/>
   </g>
   <g id="line2d_80">
    <path d="M 58.898837 490.114067 
L 58.898837 323.140933 
" clip-path="url(#pe198ab1f2f)" style="fill: none; stroke-dasharray: 1,1.65; stroke-dashoffset: 0; stroke: #08306b"/>
   </g>
   <g id="line2d_81">
    <path d="M 46.286818 306.327918 
L 196.773182 506.940485 
" clip-path="url(#pe198ab1f2f)" style="fill: none; stroke-dasharray: 1.2,1.98; stroke-dashoffset: 0; stroke: #000000; stroke-width: 1.2"/>
   </g>
   <g id="patch_18">
    <path d="M 38.7625 516.971113 
L 38.7625 296.29729 
" style="fill: none; stroke: #000000; stroke-width: 0.6; stroke-linejoin: miter; stroke-linecap: square"/>
   </g>
   <g id="patch_19">
    <path d="M 204.2975 516.971113 
L 204.2975 296.29729 
" style="fill: none; stroke: #000000; stroke-width: 0.6; stroke-linejoin: miter; stroke-linecap: square"/>
   </g>
   <g id="patch_20">
    <path d="M 38.7625 516.971113 
L 204.2975 516.971113 
" style="fill: none; stroke: #000000; stroke-width: 0.6; stroke-linejoin: miter; stroke-linecap: square"/>
   </g>
   <g id="patch_21">
    <path d="M 38.7625 296.29729 
L 204.2975 296.29729 
" style="fill: none; stroke: #000000; stroke-width: 0.6; stroke-linejoin: miter; stroke-linecap: square"/>
   </g>
   <g id="text_46">
    <!-- Budget ($\epsilon$) = 32.0 -->
    <g transform="translate(85.77 290.29729) scale(0.08 -0.08)">
     <defs>
      <path id="DejaVuSans-33" d="M 2597 2516 
Q 3050 2419 3304 2112 
Q 3559 1806 3559 1356 
Q 3559 666 3084 287 
Q 2609 -91 1734 -91 
Q 1441 -91 1130 -33 
Q 819 25 488 141 
L 488 750 
Q 750 597 1062 519 
Q 1375 441 1716 441 
Q 2309 441 2620 675 
Q 2931 909 2931 1356 
Q 2931 1769 2642 2001 
Q 2353 2234 1838 2234 
L 1294 2234 
L 1294 2753 
L 1863 2753 
Q 2328 2753 2575 2939 
Q 2822 3125 2822 3475 
Q 2822 3834 2567 4026 
Q 2313 4219 1838 4219 
Q 1578 4219 1281 4162 
Q 984 4106 628 3988 
L 628 4550 
Q 988 4650 1302 4700 
Q 1616 4750 1894 4750 
Q 2613 4750 3031 4423 
Q 3450 4097 3450 3541 
Q 3450 3153 3228 2886 
Q 3006 2619 2597 2516 
z
" transform="scale(0.015625)"/>
     </defs>
     <use xlink:href="#DejaVuSans-42" transform="translate(0 0.015625)"/>
     <use xlink:href="#DejaVuSans-75" transform="translate(68.603516 0.015625)"/>
     <use xlink:href="#DejaVuSans-64" transform="translate(131.982422 0.015625)"/>
     <use xlink:href="#DejaVuSans-67" transform="translate(195.458984 0.015625)"/>
     <use xlink:href="#DejaVuSans-65" transform="translate(258.935547 0.015625)"/>
     <use xlink:href="#DejaVuSans-74" transform="translate(320.458984 0.015625)"/>
     <use xlink:href="#DejaVuSans-20" transform="translate(359.667969 0.015625)"/>
     <use xlink:href="#DejaVuSans-28" transform="translate(391.455078 0.015625)"/>
     <use xlink:href="#DejaVuSans-Oblique-3b5" transform="translate(430.46875 0.015625)"/>
     <use xlink:href="#DejaVuSans-29" transform="translate(484.521484 0.015625)"/>
     <use xlink:href="#DejaVuSans-20" transform="translate(523.535156 0.015625)"/>
     <use xlink:href="#DejaVuSans-3d" transform="translate(555.322266 0.015625)"/>
     <use xlink:href="#DejaVuSans-20" transform="translate(639.111328 0.015625)"/>
     <use xlink:href="#DejaVuSans-33" transform="translate(670.898438 0.015625)"/>
     <use xlink:href="#DejaVuSans-32" transform="translate(734.521484 0.015625)"/>
     <use xlink:href="#DejaVuSans-2e" transform="translate(798.144531 0.015625)"/>
     <use xlink:href="#DejaVuSans-30" transform="translate(829.931641 0.015625)"/>
    </g>
   </g>
   <g id="legend_2">
    <g id="patch_22">
     <path d="M 133.4175 349.66729 
L 198.6975 349.66729 
Q 200.2975 349.66729 200.2975 348.06729 
L 200.2975 301.89729 
Q 200.2975 300.29729 198.6975 300.29729 
L 133.4175 300.29729 
Q 131.8175 300.29729 131.8175 301.89729 
L 131.8175 348.06729 
Q 131.8175 349.66729 133.4175 349.66729 
z
" style="fill: #ffffff; opacity: 0.8; stroke: #cccccc; stroke-linejoin: miter"/>
    </g>
    <g id="line2d_82">
     <path d="M 135.0175 306.77604 
L 143.0175 306.77604 
L 151.0175 306.77604 
" style="fill: none; stroke: #6aaed6; stroke-width: 2; stroke-linecap: square"/>
    </g>
    <g id="text_47">
     <!-- 20%/$\mathbf{80\%}$ -->
     <g transform="translate(157.4175 309.57604) scale(0.08 -0.08)">
      <use xlink:href="#DejaVuSans-32" transform="translate(0 0.78125)"/>
      <use xlink:href="#DejaVuSans-30" transform="translate(63.623047 0.78125)"/>
      <use xlink:href="#DejaVuSans-25" transform="translate(127.246094 0.78125)"/>
      <use xlink:href="#DejaVuSans-2f" transform="translate(222.265625 0.78125)"/>
      <use xlink:href="#DejaVuSans-Bold-38" transform="translate(255.957031 0.78125)"/>
      <use xlink:href="#DejaVuSans-Bold-30" transform="translate(325.537109 0.78125)"/>
      <use xlink:href="#DejaVuSans-Bold-25" transform="translate(395.117188 0.78125)"/>
     </g>
    </g>
    <g id="line2d_83">
     <path d="M 135.0175 318.51854 
L 143.0175 318.51854 
L 151.0175 318.51854 
" style="fill: none; stroke: #3787c0; stroke-width: 2; stroke-linecap: square"/>
    </g>
    <g id="text_48">
     <!-- 40%/$\mathbf{60\%}$ -->
     <g transform="translate(157.4175 321.31854) scale(0.08 -0.08)">
      <use xlink:href="#DejaVuSans-34" transform="translate(0 0.78125)"/>
      <use xlink:href="#DejaVuSans-30" transform="translate(63.623047 0.78125)"/>
      <use xlink:href="#DejaVuSans-25" transform="translate(127.246094 0.78125)"/>
      <use xlink:href="#DejaVuSans-2f" transform="translate(222.265625 0.78125)"/>
      <use xlink:href="#DejaVuSans-Bold-36" transform="translate(255.957031 0.78125)"/>
      <use xlink:href="#DejaVuSans-Bold-30" transform="translate(325.537109 0.78125)"/>
      <use xlink:href="#DejaVuSans-Bold-25" transform="translate(395.117188 0.78125)"/>
     </g>
    </g>
    <g id="line2d_84">
     <path d="M 135.0175 330.26104 
L 143.0175 330.26104 
L 151.0175 330.26104 
" style="fill: none; stroke: #105ba4; stroke-width: 2; stroke-linecap: square"/>
    </g>
    <g id="text_49">
     <!-- 60%/$\mathbf{40\%}$ -->
     <g transform="translate(157.4175 333.06104) scale(0.08 -0.08)">
      <use xlink:href="#DejaVuSans-36" transform="translate(0 0.78125)"/>
      <use xlink:href="#DejaVuSans-30" transform="translate(63.623047 0.78125)"/>
      <use xlink:href="#DejaVuSans-25" transform="translate(127.246094 0.78125)"/>
      <use xlink:href="#DejaVuSans-2f" transform="translate(222.265625 0.78125)"/>
      <use xlink:href="#DejaVuSans-Bold-34" transform="translate(255.957031 0.78125)"/>
      <use xlink:href="#DejaVuSans-Bold-30" transform="translate(325.537109 0.78125)"/>
      <use xlink:href="#DejaVuSans-Bold-25" transform="translate(395.117188 0.78125)"/>
     </g>
    </g>
    <g id="line2d_85">
     <path d="M 135.0175 342.00354 
L 143.0175 342.00354 
L 151.0175 342.00354 
" style="fill: none; stroke: #08306b; stroke-width: 2; stroke-linecap: square"/>
    </g>
    <g id="text_50">
     <!-- 80%/$\mathbf{20\%}$ -->
     <g transform="translate(157.4175 344.80354) scale(0.08 -0.08)">
      <use xlink:href="#DejaVuSans-38" transform="translate(0 0.78125)"/>
      <use xlink:href="#DejaVuSans-30" transform="translate(63.623047 0.78125)"/>
      <use xlink:href="#DejaVuSans-25" transform="translate(127.246094 0.78125)"/>
      <use xlink:href="#DejaVuSans-2f" transform="translate(222.265625 0.78125)"/>
      <use xlink:href="#DejaVuSans-Bold-32" transform="translate(255.957031 0.78125)"/>
      <use xlink:href="#DejaVuSans-Bold-30" transform="translate(325.537109 0.78125)"/>
      <use xlink:href="#DejaVuSans-Bold-25" transform="translate(395.117188 0.78125)"/>
     </g>
    </g>
   </g>
  </g>
  <g id="axes_4">
   <g id="patch_23">
    <path d="M 254.0875 516.971113 
L 419.6225 516.971113 
L 419.6225 296.29729 
L 254.0875 296.29729 
z
" style="fill: #ffffff"/>
   </g>
   <g id="patch_24">
    <path d="M 261.611818 1784.619066 
L 283.10987 1784.619066 
L 283.10987 498.581628 
L 261.611818 498.581628 
z
" clip-path="url(#pb5975f4373)" style="fill: #6aaed6"/>
   </g>
   <g id="patch_25">
    <path d="M 304.607922 1784.619066 
L 326.105974 1784.619066 
L 326.105974 436.743493 
L 304.607922 436.743493 
z
" clip-path="url(#pb5975f4373)" style="fill: #3787c0"/>
   </g>
   <g id="patch_26">
    <path d="M 347.604026 1784.619066 
L 369.102078 1784.619066 
L 369.102078 374.126086 
L 347.604026 374.126086 
z
" clip-path="url(#pb5975f4373)" style="fill: #105ba4"/>
   </g>
   <g id="patch_27">
    <path d="M 390.60013 1784.619066 
L 412.098182 1784.619066 
L 412.098182 314.686775 
L 390.60013 314.686775 
z
" clip-path="url(#pb5975f4373)" style="fill: #08306b"/>
   </g>
   <g id="matplotlib.axis_7">
    <g id="xtick_17">
     <g id="line2d_86">
      <g>
       <use xlink:href="#mfd97124b67" x="272.360844" y="516.971113" style="stroke: #000000; stroke-width: 0.6"/>
      </g>
     </g>
     <g id="text_51">
      <!-- 20%/$\mathbf{80\%}$ -->
      <g transform="translate(274.568344 563.651113) rotate(-90) scale(0.08 -0.08)">
       <use xlink:href="#DejaVuSans-32" transform="translate(0 0.78125)"/>
       <use xlink:href="#DejaVuSans-30" transform="translate(63.623047 0.78125)"/>
       <use xlink:href="#DejaVuSans-25" transform="translate(127.246094 0.78125)"/>
       <use xlink:href="#DejaVuSans-2f" transform="translate(222.265625 0.78125)"/>
       <use xlink:href="#DejaVuSans-Bold-38" transform="translate(255.957031 0.78125)"/>
       <use xlink:href="#DejaVuSans-Bold-30" transform="translate(325.537109 0.78125)"/>
       <use xlink:href="#DejaVuSans-Bold-25" transform="translate(395.117188 0.78125)"/>
      </g>
     </g>
    </g>
    <g id="xtick_18">
     <g id="line2d_87">
      <g>
       <use xlink:href="#mfd97124b67" x="315.356948" y="516.971113" style="stroke: #000000; stroke-width: 0.6"/>
      </g>
     </g>
     <g id="text_52">
      <!-- 40%/$\mathbf{60\%}$ -->
      <g transform="translate(317.564448 563.651113) rotate(-90) scale(0.08 -0.08)">
       <use xlink:href="#DejaVuSans-34" transform="translate(0 0.78125)"/>
       <use xlink:href="#DejaVuSans-30" transform="translate(63.623047 0.78125)"/>
       <use xlink:href="#DejaVuSans-25" transform="translate(127.246094 0.78125)"/>
       <use xlink:href="#DejaVuSans-2f" transform="translate(222.265625 0.78125)"/>
       <use xlink:href="#DejaVuSans-Bold-36" transform="translate(255.957031 0.78125)"/>
       <use xlink:href="#DejaVuSans-Bold-30" transform="translate(325.537109 0.78125)"/>
       <use xlink:href="#DejaVuSans-Bold-25" transform="translate(395.117188 0.78125)"/>
      </g>
     </g>
    </g>
    <g id="xtick_19">
     <g id="line2d_88">
      <g>
       <use xlink:href="#mfd97124b67" x="358.353052" y="516.971113" style="stroke: #000000; stroke-width: 0.6"/>
      </g>
     </g>
     <g id="text_53">
      <!-- 60%/$\mathbf{40\%}$ -->
      <g transform="translate(360.560552 563.651113) rotate(-90) scale(0.08 -0.08)">
       <use xlink:href="#DejaVuSans-36" transform="translate(0 0.78125)"/>
       <use xlink:href="#DejaVuSans-30" transform="translate(63.623047 0.78125)"/>
       <use xlink:href="#DejaVuSans-25" transform="translate(127.246094 0.78125)"/>
       <use xlink:href="#DejaVuSans-2f" transform="translate(222.265625 0.78125)"/>
       <use xlink:href="#DejaVuSans-Bold-34" transform="translate(255.957031 0.78125)"/>
       <use xlink:href="#DejaVuSans-Bold-30" transform="translate(325.537109 0.78125)"/>
       <use xlink:href="#DejaVuSans-Bold-25" transform="translate(395.117188 0.78125)"/>
      </g>
     </g>
    </g>
    <g id="xtick_20">
     <g id="line2d_89">
      <g>
       <use xlink:href="#mfd97124b67" x="401.349156" y="516.971113" style="stroke: #000000; stroke-width: 0.6"/>
      </g>
     </g>
     <g id="text_54">
      <!-- 80%/$\mathbf{20\%}$ -->
      <g transform="translate(403.556656 563.651113) rotate(-90) scale(0.08 -0.08)">
       <use xlink:href="#DejaVuSans-38" transform="translate(0 0.78125)"/>
       <use xlink:href="#DejaVuSans-30" transform="translate(63.623047 0.78125)"/>
       <use xlink:href="#DejaVuSans-25" transform="translate(127.246094 0.78125)"/>
       <use xlink:href="#DejaVuSans-2f" transform="translate(222.265625 0.78125)"/>
       <use xlink:href="#DejaVuSans-Bold-32" transform="translate(255.957031 0.78125)"/>
       <use xlink:href="#DejaVuSans-Bold-30" transform="translate(325.537109 0.78125)"/>
       <use xlink:href="#DejaVuSans-Bold-25" transform="translate(395.117188 0.78125)"/>
      </g>
     </g>
    </g>
   </g>
   <g id="matplotlib.axis_8">
    <g id="ytick_20">
     <g id="line2d_90">
      <g>
       <use xlink:href="#mfed4e24e89" x="254.0875" y="513.045881" style="stroke: #000000; stroke-width: 0.6"/>
      </g>
     </g>
     <g id="text_55">
      <!-- 0.72 -->
      <g transform="translate(229.275 516.085256) scale(0.08 -0.08)">
       <use xlink:href="#DejaVuSans-30"/>
       <use xlink:href="#DejaVuSans-2e" transform="translate(63.623047 0)"/>
       <use xlink:href="#DejaVuSans-37" transform="translate(95.410156 0)"/>
       <use xlink:href="#DejaVuSans-32" transform="translate(159.033203 0)"/>
      </g>
     </g>
    </g>
    <g id="ytick_21">
     <g id="line2d_91">
      <g>
       <use xlink:href="#mfed4e24e89" x="254.0875" y="477.724404" style="stroke: #000000; stroke-width: 0.6"/>
      </g>
     </g>
     <g id="text_56">
      <!-- 0.74 -->
      <g transform="translate(229.275 480.763779) scale(0.08 -0.08)">
       <use xlink:href="#DejaVuSans-30"/>
       <use xlink:href="#DejaVuSans-2e" transform="translate(63.623047 0)"/>
       <use xlink:href="#DejaVuSans-37" transform="translate(95.410156 0)"/>
       <use xlink:href="#DejaVuSans-34" transform="translate(159.033203 0)"/>
      </g>
     </g>
    </g>
    <g id="ytick_22">
     <g id="line2d_92">
      <g>
       <use xlink:href="#mfed4e24e89" x="254.0875" y="442.402926" style="stroke: #000000; stroke-width: 0.6"/>
      </g>
     </g>
     <g id="text_57">
      <!-- 0.76 -->
      <g transform="translate(229.275 445.442301) scale(0.08 -0.08)">
       <use xlink:href="#DejaVuSans-30"/>
       <use xlink:href="#DejaVuSans-2e" transform="translate(63.623047 0)"/>
       <use xlink:href="#DejaVuSans-37" transform="translate(95.410156 0)"/>
       <use xlink:href="#DejaVuSans-36" transform="translate(159.033203 0)"/>
      </g>
     </g>
    </g>
    <g id="ytick_23">
     <g id="line2d_93">
      <g>
       <use xlink:href="#mfed4e24e89" x="254.0875" y="407.081449" style="stroke: #000000; stroke-width: 0.6"/>
      </g>
     </g>
     <g id="text_58">
      <!-- 0.78 -->
      <g transform="translate(229.275 410.120824) scale(0.08 -0.08)">
       <use xlink:href="#DejaVuSans-30"/>
       <use xlink:href="#DejaVuSans-2e" transform="translate(63.623047 0)"/>
       <use xlink:href="#DejaVuSans-37" transform="translate(95.410156 0)"/>
       <use xlink:href="#DejaVuSans-38" transform="translate(159.033203 0)"/>
      </g>
     </g>
    </g>
    <g id="ytick_24">
     <g id="line2d_94">
      <g>
       <use xlink:href="#mfed4e24e89" x="254.0875" y="371.759972" style="stroke: #000000; stroke-width: 0.6"/>
      </g>
     </g>
     <g id="text_59">
      <!-- 0.80 -->
      <g transform="translate(229.275 374.799347) scale(0.08 -0.08)">
       <use xlink:href="#DejaVuSans-30"/>
       <use xlink:href="#DejaVuSans-2e" transform="translate(63.623047 0)"/>
       <use xlink:href="#DejaVuSans-38" transform="translate(95.410156 0)"/>
       <use xlink:href="#DejaVuSans-30" transform="translate(159.033203 0)"/>
      </g>
     </g>
    </g>
    <g id="ytick_25">
     <g id="line2d_95">
      <g>
       <use xlink:href="#mfed4e24e89" x="254.0875" y="336.438494" style="stroke: #000000; stroke-width: 0.6"/>
      </g>
     </g>
     <g id="text_60">
      <!-- 0.82 -->
      <g transform="translate(229.275 339.477869) scale(0.08 -0.08)">
       <use xlink:href="#DejaVuSans-30"/>
       <use xlink:href="#DejaVuSans-2e" transform="translate(63.623047 0)"/>
       <use xlink:href="#DejaVuSans-38" transform="translate(95.410156 0)"/>
       <use xlink:href="#DejaVuSans-32" transform="translate(159.033203 0)"/>
      </g>
     </g>
    </g>
    <g id="ytick_26">
     <g id="line2d_96">
      <g>
       <use xlink:href="#mfed4e24e89" x="254.0875" y="301.117017" style="stroke: #000000; stroke-width: 0.6"/>
      </g>
     </g>
     <g id="text_61">
      <!-- 0.84 -->
      <g transform="translate(229.275 304.156392) scale(0.08 -0.08)">
       <use xlink:href="#DejaVuSans-30"/>
       <use xlink:href="#DejaVuSans-2e" transform="translate(63.623047 0)"/>
       <use xlink:href="#DejaVuSans-38" transform="translate(95.410156 0)"/>
       <use xlink:href="#DejaVuSans-34" transform="translate(159.033203 0)"/>
      </g>
     </g>
    </g>
    <g id="text_62">
     <!-- Advantage -->
     <g transform="translate(223.61125 428.213577) rotate(-90) scale(0.08 -0.08)">
      <use xlink:href="#DejaVuSans-41"/>
      <use xlink:href="#DejaVuSans-64" transform="translate(66.658203 0)"/>
      <use xlink:href="#DejaVuSans-76" transform="translate(130.134766 0)"/>
      <use xlink:href="#DejaVuSans-61" transform="translate(189.314453 0)"/>
      <use xlink:href="#DejaVuSans-6e" transform="translate(250.59375 0)"/>
      <use xlink:href="#DejaVuSans-74" transform="translate(313.972656 0)"/>
      <use xlink:href="#DejaVuSans-61" transform="translate(353.181641 0)"/>
      <use xlink:href="#DejaVuSans-67" transform="translate(414.460938 0)"/>
      <use xlink:href="#DejaVuSans-65" transform="translate(477.9375 0)"/>
     </g>
    </g>
   </g>
   <g id="patch_28">
    <path d="M 254.0875 516.971113 
L 254.0875 296.29729 
" style="fill: none; stroke: #000000; stroke-width: 0.6; stroke-linejoin: miter; stroke-linecap: square"/>
   </g>
   <g id="patch_29">
    <path d="M 419.6225 516.971113 
L 419.6225 296.29729 
" style="fill: none; stroke: #000000; stroke-width: 0.6; stroke-linejoin: miter; stroke-linecap: square"/>
   </g>
   <g id="patch_30">
    <path d="M 254.0875 516.971113 
L 419.6225 516.971113 
" style="fill: none; stroke: #000000; stroke-width: 0.6; stroke-linejoin: miter; stroke-linecap: square"/>
   </g>
   <g id="patch_31">
    <path d="M 254.0875 296.29729 
L 419.6225 296.29729 
" style="fill: none; stroke: #000000; stroke-width: 0.6; stroke-linejoin: miter; stroke-linecap: square"/>
   </g>
  </g>
 </g>
 <defs>
  <clipPath id="p8002e2042a">
   <rect x="38.7625" y="19.28" width="165.535" height="220.673823"/>
  </clipPath>
  <clipPath id="pb568fb3d1c">
   <rect x="254.0875" y="19.28" width="165.535" height="220.673823"/>
  </clipPath>
  <clipPath id="pe198ab1f2f">
   <rect x="38.7625" y="296.29729" width="165.535" height="220.673823"/>
  </clipPath>
  <clipPath id="pb5975f4373">
   <rect x="254.0875" y="296.29729" width="165.535" height="220.673823"/>
  </clipPath>
 </defs>
</svg>
